<svg width="71" height="94" viewBox="0 0 71 94" fill="none" xmlns="http://www.w3.org/2000/svg">
<path d="M34.9964 79.1218C41.8692 79.5202 51.2972 78.2594 52.42 71.4672L53.0774 67.4905C53.6458 64.0519 52.3177 60.5481 49.3257 58.7605C45.5667 56.5146 40.122 53.9208 35.2223 54.0779C30.4504 54.2308 25.1228 56.7544 21.7826 58.6366C19.6466 59.8402 18.4287 62.1277 18.3664 64.5787L18.2341 69.7816C18.072 76.1566 28.6301 78.7527 34.9964 79.1218Z" fill="#F5953E"/>
<path d="M19.9993 70.3696C23.3047 72.3636 25.1075 72.8587 28.2019 72.8731" stroke="#F2C756" stroke-linecap="round"/>
<path d="M19.8798 67.3885C22.9519 69.0675 24.3203 69.5041 26.2359 69.5775" stroke="#F2C756" stroke-linecap="round"/>
<path d="M34.3898 18.3266L31.6785 18.1363L32.5799 47.8072C33.5545 50.2116 34.1316 50.7116 35.2912 47.9975L34.3898 18.3266Z" fill="#62BB42"/>
<ellipse cx="31.0111" cy="33.7969" rx="1.75488" ry="4.52835" transform="rotate(-43.0041 31.0111 33.7969)" fill="#62BB42"/>
<ellipse cx="29.179" cy="27.5443" rx="2.33984" ry="5.17526" transform="rotate(-43.0041 29.179 27.5443)" fill="#62BB42"/>
<ellipse cx="30.4355" cy="24.6032" rx="1.75488" ry="5.17526" transform="rotate(-43.0041 30.4355 24.6032)" fill="#62BB42"/>
<ellipse cx="30.3682" cy="20.2429" rx="2.33984" ry="5.82217" transform="rotate(-43.0041 30.3682 20.2429)" fill="#62BB42"/>
<ellipse cx="29.8733" cy="16.2816" rx="2.33984" ry="5.17526" transform="rotate(-43.0041 29.8733 16.2816)" fill="#62BB42"/>
<ellipse cx="2.1892" cy="5.45491" rx="2.1892" ry="5.45491" transform="matrix(0.960468 -0.278392 0.350655 0.936505 27.7809 8.42746)" fill="#62BB42"/>
<ellipse cx="2.35315" cy="5.06965" rx="2.35315" ry="5.06965" transform="matrix(0.866539 0.49911 -0.445107 0.895477 34.9136 8.27204)" fill="#62BB42"/>
<ellipse cx="2.37468" cy="4.25091" rx="2.37468" ry="4.25091" transform="matrix(0.637502 0.770449 -0.778787 0.627288 38.3021 29.7759)" fill="#62BB42"/>
<ellipse cx="2.37468" cy="4.25091" rx="2.37468" ry="4.25091" transform="matrix(0.637502 0.770449 -0.778787 0.627288 38.2362 25.506)" fill="#62BB42"/>
<ellipse cx="2.37468" cy="4.25091" rx="2.37468" ry="4.25091" transform="matrix(0.637502 0.770449 -0.778787 0.627288 38.1705 21.2362)" fill="#62BB42"/>
<ellipse cx="2.37468" cy="4.25091" rx="2.37468" ry="4.25091" transform="matrix(0.637502 0.770449 -0.778787 0.627288 38.1046 16.9662)" fill="#62BB42"/>
<ellipse cx="2.37468" cy="4.25091" rx="2.37468" ry="4.25091" transform="matrix(0.637502 0.770449 -0.778787 0.627288 38.0388 12.6963)" fill="#62BB42"/>
<ellipse cx="26.2466" cy="35.6241" rx="1.77531" ry="4.17017" transform="rotate(-55.1532 26.2466 35.6241)" fill="#6CD945"/>
<ellipse cx="23.537" cy="30.1323" rx="2.36708" ry="4.7659" transform="rotate(-55.1532 23.537 30.1323)" fill="#6CD945"/>
<ellipse cx="24.2499" cy="27.0232" rx="1.77531" ry="4.7659" transform="rotate(-55.1532 24.2499 27.0232)" fill="#6CD945"/>
<ellipse cx="23.4959" cy="22.893" rx="2.36708" ry="5.36164" transform="rotate(-55.1532 23.4959 22.893)" fill="#6CD945"/>
<ellipse cx="22.4039" cy="19.2483" rx="2.36708" ry="4.7659" transform="rotate(-55.1532 22.4039 19.2483)" fill="#6CD945"/>
<ellipse cx="2.17567" cy="5.09878" rx="2.17567" ry="5.09878" transform="matrix(0.862324 -0.506356 0.510709 0.859753 19.1964 12.298)" fill="#6CD945"/>
<ellipse cx="2.18621" cy="5.07417" rx="2.18621" ry="5.07417" transform="matrix(0.960183 0.279372 -0.275466 0.961311 25.8637 10.3793)" fill="#6CD945"/>
<ellipse cx="2.18764" cy="4.29847" rx="2.18764" ry="4.29847" transform="matrix(0.781748 0.623594 -0.624277 0.781203 32.4499 29.9898)" fill="#6CD945"/>
<ellipse cx="2.18764" cy="4.29847" rx="2.18764" ry="4.29847" transform="matrix(0.781748 0.623594 -0.624277 0.781203 31.7116 25.9451)" fill="#6CD945"/>
<ellipse cx="2.18764" cy="4.29847" rx="2.18764" ry="4.29847" transform="matrix(0.781748 0.623594 -0.624277 0.781203 30.9733 21.9005)" fill="#6CD945"/>
<ellipse cx="2.18764" cy="4.29847" rx="2.18764" ry="4.29847" transform="matrix(0.781748 0.623594 -0.624277 0.781203 30.235 17.8559)" fill="#6CD945"/>
<ellipse cx="2.18764" cy="4.29847" rx="2.18764" ry="4.29847" transform="matrix(0.781748 0.623594 -0.624277 0.781203 29.4967 13.8112)" fill="#6CD945"/>
<path d="M37.5 57.5C38 57.7857 37.5854 59.0572 37 59.5C36.3613 59.9831 34.5086 60 33.5 60C31.567 60 30 58.6611 30 57.7143C30 56.7675 31.567 56 33.5 56C35.433 56 37.5 56.5532 37.5 57.5Z" fill="#DD8636"/>
<path d="M28.2126 18.2977L21.1915 19.6402C26.0255 35.1211 30.0166 54.9761 30.0166 54.9761C30.0166 54.9761 30.495 56.8825 31.3923 57.8519C32.1827 58.7057 33.7229 59.2237 34.6228 59.1321C35.4844 59.0445 36.8527 58.9722 37.6228 57.6322C31.186 40.9942 28.6176 32.6558 28.2126 18.2977Z" fill="#6CD945"/>
<ellipse cx="37.8581" cy="30.1386" rx="1.84117" ry="4.85155" transform="rotate(-27.0902 37.8581 30.1386)" fill="#6CD945"/>
<ellipse cx="37.7494" cy="23.1878" rx="2.45489" ry="5.54463" transform="rotate(-27.0902 37.7494 23.1878)" fill="#6CD945"/>
<ellipse cx="39.8502" cy="20.5563" rx="1.84117" ry="5.54463" transform="rotate(-27.0902 39.8502 20.5563)" fill="#6CD945"/>
<ellipse cx="41.004" cy="16.0737" rx="2.45489" ry="6.23771" transform="rotate(-27.0902 41.004 16.0737)" fill="#6CD945"/>
<ellipse cx="41.6114" cy="11.8705" rx="2.45489" ry="5.54463" transform="rotate(-27.0902 41.6114 11.8705)" fill="#6CD945"/>
<ellipse cx="2.30683" cy="5.82669" rx="2.30683" ry="5.82669" transform="matrix(0.999992 0.00411794 0.0877507 0.996143 41.6873 3.20235)" fill="#6CD945"/>
<ellipse cx="2.51665" cy="5.33295" rx="2.51665" ry="5.33295" transform="matrix(0.692288 0.721622 -0.668434 0.743772 48.9767 5.19131)" fill="#6CD945"/>
<ellipse cx="2.54399" cy="4.46043" rx="2.54399" ry="4.46043" transform="matrix(0.402942 0.915226 -0.921532 0.388302 46.3917 28.2192)" fill="#6CD945"/>
<ellipse cx="2.54399" cy="4.46043" rx="2.54399" ry="4.46043" transform="matrix(0.402942 0.915226 -0.921532 0.388302 47.5216 23.8294)" fill="#6CD945"/>
<ellipse cx="2.54399" cy="4.46043" rx="2.54399" ry="4.46043" transform="matrix(0.402942 0.915226 -0.921532 0.388302 48.6516 19.4398)" fill="#6CD945"/>
<ellipse cx="2.54399" cy="4.46043" rx="2.54399" ry="4.46043" transform="matrix(0.402942 0.915226 -0.921532 0.388302 49.7814 15.05)" fill="#6CD945"/>
<ellipse cx="2.54399" cy="4.46043" rx="2.54399" ry="4.46043" transform="matrix(0.402942 0.915226 -0.921532 0.388302 50.9113 10.6603)" fill="#6CD945"/>
<path d="M48.3046 14.7039L40.9369 11.9453C38.5447 29.912 36.9137 39.7831 30.5431 54.9745C32.0269 58.8894 33.1915 59.4999 36.6915 58.4999C37.0466 58.3095 37.6915 57.4999 37.6915 57.4999C37.6915 57.4999 42.1611 29.0013 48.3046 14.7039Z" fill="#6CD945"/>
</svg>
