<svg width="71" height="113" viewBox="0 0 71 113" fill="none" xmlns="http://www.w3.org/2000/svg">
<path fill-rule="evenodd" clip-rule="evenodd" d="M42.7354 15.9101L38 0C38 0 39.0804 7.05625 39.0804 16.7046C39.0804 26.3529 39.4207 26.3529 39.4207 26.3529H44.1565H45.8435H52C52 26.3529 50.9196 26.3529 50.9196 16.7046C50.9196 7.05625 52 0 52 0L46.8929 17.1588L44.7483 0.144007L42.7354 15.9101Z" fill="#6CD945"/>
<rect x="32.4492" y="81.1119" width="3.5613" height="4.53868" transform="rotate(-92.0275 32.4492 81.1119)" fill="#6CD945"/>
<path d="M35.8052 98.1219C42.678 98.5203 52.106 97.2595 53.2288 90.4674L53.8862 86.4906C54.4546 83.052 53.1264 79.5482 50.1345 77.7606C46.3754 75.5148 40.9308 72.921 36.0311 73.078C31.2591 73.2309 25.9316 75.7546 22.5914 77.6367C20.4554 78.8403 19.2375 81.1279 19.1752 83.5788L19.0429 88.7818C18.8807 95.1567 29.4388 97.7529 35.8052 98.1219Z" fill="#F5953E"/>
<path d="M20.8076 89.3696C24.113 91.3636 25.9158 91.8588 29.0102 91.8731" stroke="#F2C756" stroke-linecap="round"/>
<path d="M20.6885 86.3885C23.7607 88.0676 25.129 88.5042 27.0446 88.5776" stroke="#F2C756" stroke-linecap="round"/>
<path d="M38.3877 76.1313C38.8877 76.4171 38.4731 77.6885 37.8877 78.1313C37.249 78.6145 35.3963 78.6313 34.3877 78.6313C32.4547 78.6313 30.8877 77.2924 30.8877 76.3456C30.8877 75.3989 32.4547 74.6313 34.3877 74.6313C36.3207 74.6313 38.3877 75.1846 38.3877 76.1313Z" fill="#DD8636"/>
<path d="M35.1982 37.3267L32.4869 37.1363L33.3883 66.8072C34.3629 69.2116 34.94 69.7116 36.0996 66.9976L35.1982 37.3267Z" fill="#62BB42"/>
<ellipse cx="31.8197" cy="52.7969" rx="1.75488" ry="4.52835" transform="rotate(-43.0041 31.8197 52.7969)" fill="#62BB42"/>
<ellipse cx="29.9875" cy="46.5443" rx="2.33984" ry="5.17526" transform="rotate(-43.0041 29.9875 46.5443)" fill="#62BB42"/>
<ellipse cx="31.2443" cy="43.6033" rx="1.75488" ry="5.17526" transform="rotate(-43.0041 31.2443 43.6033)" fill="#62BB42"/>
<ellipse cx="31.1768" cy="39.2429" rx="2.33984" ry="5.82217" transform="rotate(-43.0041 31.1768 39.2429)" fill="#62BB42"/>
<ellipse cx="30.6818" cy="35.2817" rx="2.33984" ry="5.17526" transform="rotate(-43.0041 30.6818 35.2817)" fill="#62BB42"/>
<ellipse cx="2.1892" cy="5.45491" rx="2.1892" ry="5.45491" transform="matrix(0.960468 -0.278392 0.350655 0.936505 28.5894 27.4275)" fill="#62BB42"/>
<ellipse cx="2.35315" cy="5.06965" rx="2.35315" ry="5.06965" transform="matrix(0.866539 0.49911 -0.445107 0.895477 35.7222 27.2721)" fill="#62BB42"/>
<ellipse cx="2.37468" cy="4.25091" rx="2.37468" ry="4.25091" transform="matrix(0.637502 0.770449 -0.778787 0.627288 39.1108 48.776)" fill="#62BB42"/>
<ellipse cx="2.37468" cy="4.25091" rx="2.37468" ry="4.25091" transform="matrix(0.637502 0.770449 -0.778787 0.627288 39.0449 44.506)" fill="#62BB42"/>
<ellipse cx="2.37468" cy="4.25091" rx="2.37468" ry="4.25091" transform="matrix(0.637502 0.770449 -0.778787 0.627288 38.979 40.2362)" fill="#62BB42"/>
<ellipse cx="2.37468" cy="4.25091" rx="2.37468" ry="4.25091" transform="matrix(0.637502 0.770449 -0.778787 0.627288 38.9131 35.9663)" fill="#62BB42"/>
<ellipse cx="2.37468" cy="4.25091" rx="2.37468" ry="4.25091" transform="matrix(0.637502 0.770449 -0.778787 0.627288 38.8477 31.6963)" fill="#62BB42"/>
<ellipse cx="38.6669" cy="49.1387" rx="1.84117" ry="4.85155" transform="rotate(-27.0902 38.6669 49.1387)" fill="#6CD945"/>
<ellipse cx="38.5582" cy="42.1878" rx="2.45489" ry="5.54463" transform="rotate(-27.0902 38.5582 42.1878)" fill="#6CD945"/>
<ellipse cx="40.6588" cy="39.5564" rx="1.84117" ry="5.54463" transform="rotate(-27.0902 40.6588 39.5564)" fill="#6CD945"/>
<ellipse cx="41.8128" cy="35.0737" rx="2.45489" ry="6.23771" transform="rotate(-27.0902 41.8128 35.0737)" fill="#6CD945"/>
<ellipse cx="42.42" cy="30.8705" rx="2.45489" ry="5.54463" transform="rotate(-27.0902 42.42 30.8705)" fill="#6CD945"/>
<ellipse cx="2.30683" cy="5.82669" rx="2.30683" ry="5.82669" transform="matrix(0.999992 0.00411794 0.0877507 0.996143 42.4961 22.2024)" fill="#6CD945"/>
<ellipse cx="2.51665" cy="5.33295" rx="2.51665" ry="5.33295" transform="matrix(0.692288 0.721622 -0.668434 0.743772 49.7852 24.1913)" fill="#6CD945"/>
<ellipse cx="2.54399" cy="4.46043" rx="2.54399" ry="4.46043" transform="matrix(0.402942 0.915226 -0.921532 0.388302 47.2002 47.2191)" fill="#6CD945"/>
<ellipse cx="2.54399" cy="4.46043" rx="2.54399" ry="4.46043" transform="matrix(0.402942 0.915226 -0.921532 0.388302 48.3301 42.8295)" fill="#6CD945"/>
<ellipse cx="2.54399" cy="4.46043" rx="2.54399" ry="4.46043" transform="matrix(0.402942 0.915226 -0.921532 0.388302 49.46 38.4398)" fill="#6CD945"/>
<ellipse cx="2.54399" cy="4.46043" rx="2.54399" ry="4.46043" transform="matrix(0.402942 0.915226 -0.921532 0.388302 50.5898 34.05)" fill="#6CD945"/>
<ellipse cx="2.54399" cy="4.46043" rx="2.54399" ry="4.46043" transform="matrix(0.402942 0.915226 -0.921532 0.388302 51.7197 29.6603)" fill="#6CD945"/>
<path d="M49.1133 33.7039L41.7455 30.9452C39.3534 48.912 37.7224 58.7831 31.3517 73.9744C32.8356 77.8893 34.0002 78.4999 37.5002 77.4999C37.8553 77.3095 38.5002 76.4999 38.5002 76.4999C38.5002 76.4999 42.9698 48.0013 49.1133 33.7039Z" fill="#6CD945"/>
<ellipse cx="27.0554" cy="54.6242" rx="1.77531" ry="4.17017" transform="rotate(-55.1532 27.0554 54.6242)" fill="#6CD945"/>
<ellipse cx="24.3458" cy="49.1323" rx="2.36708" ry="4.7659" transform="rotate(-55.1532 24.3458 49.1323)" fill="#6CD945"/>
<ellipse cx="25.0585" cy="46.0233" rx="1.77531" ry="4.7659" transform="rotate(-55.1532 25.0585 46.0233)" fill="#6CD945"/>
<ellipse cx="24.3045" cy="41.893" rx="2.36708" ry="5.36164" transform="rotate(-55.1532 24.3045 41.893)" fill="#6CD945"/>
<ellipse cx="23.2125" cy="38.2484" rx="2.36708" ry="4.7659" transform="rotate(-55.1532 23.2125 38.2484)" fill="#6CD945"/>
<ellipse cx="2.17567" cy="5.09878" rx="2.17567" ry="5.09878" transform="matrix(0.862324 -0.506356 0.510709 0.859753 20.0049 31.298)" fill="#6CD945"/>
<ellipse cx="2.18621" cy="5.07417" rx="2.18621" ry="5.07417" transform="matrix(0.960183 0.279372 -0.275466 0.961311 26.6724 29.3794)" fill="#6CD945"/>
<ellipse cx="2.18764" cy="4.29847" rx="2.18764" ry="4.29847" transform="matrix(0.781748 0.623594 -0.624277 0.781203 33.2583 48.9899)" fill="#6CD945"/>
<ellipse cx="2.18764" cy="4.29847" rx="2.18764" ry="4.29847" transform="matrix(0.781748 0.623594 -0.624277 0.781203 32.52 44.9452)" fill="#6CD945"/>
<ellipse cx="2.18764" cy="4.29847" rx="2.18764" ry="4.29847" transform="matrix(0.781748 0.623594 -0.624277 0.781203 31.7817 40.9005)" fill="#6CD945"/>
<ellipse cx="2.18764" cy="4.29847" rx="2.18764" ry="4.29847" transform="matrix(0.781748 0.623594 -0.624277 0.781203 31.0435 36.856)" fill="#6CD945"/>
<ellipse cx="2.18764" cy="4.29847" rx="2.18764" ry="4.29847" transform="matrix(0.781748 0.623594 -0.624277 0.781203 30.3052 32.8113)" fill="#6CD945"/>
<path d="M29.0211 37.2978L22 38.6403C26.834 54.1211 30.8251 73.9762 30.8251 73.9762C30.8251 73.9762 31.3035 75.8826 32.2008 76.8519C32.9912 77.7058 34.5313 78.2237 35.4313 78.1322C36.2928 78.0446 37.6611 77.9722 38.4313 76.6322C31.9945 59.9943 29.4261 51.6558 29.0211 37.2978Z" fill="#6CD945"/>
</svg>
