<svg width="390" height="300" viewBox="0 0 390 300" fill="none" xmlns="http://www.w3.org/2000/svg">
<mask id="mask0_153_409" style="mask-type:alpha" maskUnits="userSpaceOnUse" x="0" y="0" width="390" height="300">
<rect width="390" height="300" fill="#D9D9D9"/>
</mask>
<g mask="url(#mask0_153_409)">
<path d="M103.43 146.496C103.43 146.496 102.003 142.324 103.518 139.259C105.033 136.195 106.773 132.609 110.18 133.311C111.832 133.651 113.332 134.12 113.743 135.768C113.985 136.737 113.353 138.296 113.353 138.296C113.353 138.296 115.28 137.073 116.6 137.251C118.309 137.481 119.984 138.451 119.918 140.187C119.881 141.134 118.813 142.345 118.813 142.345C118.813 142.345 120.136 141.409 121.1 141.408C122.7 141.407 124.303 143.981 124.303 143.981C124.303 143.981 124.107 146.914 121.849 148.776C120.027 150.277 116.91 152.958 116.323 153.847C116.494 154.012 116.527 154.113 116.392 154.136C116.188 154.171 116.182 154.061 116.323 153.847C115.158 152.723 107.583 148.652 103.43 146.496Z" fill="#73CA65"/>
<path d="M15.4641 242.675C13.9486 215.333 50.058 204.861 65.0279 186.349C83.4169 163.609 80.1844 149.977 93.2812 143.984C106.378 137.99 121.968 150.326 119.251 165.766C117.774 174.164 106.034 190.018 85.1926 215.549C67.715 236.959 56.6439 263.741 44.432 264.013C32.2201 264.284 16.4254 260.019 15.4641 242.675Z" fill="#F4EF63"/>
<path d="M21.2193 247.99C17.0039 247.903 16.4481 241.925 18.4434 238.185C20.6905 233.972 23.04 231.627 25.3117 228.875C27.4435 226.293 29.6508 223.42 33.5251 220.908C37.5254 218.315 39.2552 216.867 41.0565 216.127C41.7047 215.861 42.9932 215.401 43.8392 215.521C45.5478 215.764 44.2398 216.428 42.738 217.721C40.3896 219.744 35.5998 222.656 33.0089 225.226C27.1968 230.992 24.2118 234.436 23.2163 239.404C22.4284 243.335 25.2013 248.071 21.2193 247.99Z" fill="#D2CD67"/>
<path d="M28.1567 250.492C23.9413 250.406 27.8182 245.056 29.8136 241.316C32.0607 237.103 40.9953 233.973 43.2669 231.221C45.5386 228.469 47.1064 227.374 47.1064 227.374C47.1064 227.374 40.8231 235.033 38.9543 237.066C36.9616 239.235 33.8962 239.849 33.1082 243.781C32.3203 247.712 32.1387 250.573 28.1567 250.492Z" fill="#D2CD67"/>
<path d="M30.6686 255.526C31.9673 259.566 34.5235 259.335 38.732 259.076C45.3724 258.668 50.216 253.876 55.2875 247.942C59.4271 243.099 61.6664 237.965 62.9362 233.505C64.2473 228.899 71.8749 220.032 71.8749 220.032C71.8749 220.032 80.2752 210.366 79.9165 209.585C79.1919 208.008 62.1109 228.454 61.3147 230.276C60.0698 233.124 56.093 237.316 54.3973 240.556C50.5936 247.824 42.6904 248.729 38.2551 251.122C34.7447 253.017 29.4417 251.711 30.6686 255.526Z" fill="#D2CD67"/>
<path d="M27.0793 252.71C25.4357 249.74 21.8856 247.145 20.8016 250.365C19.9202 252.984 21.5383 253.817 23.5041 255.747C23.5041 255.747 26.5626 259.275 28.498 258.475C30.6291 257.595 28.2007 254.736 27.0793 252.71Z" fill="#D8D9A1" stroke="#A2AF8F"/>
<path d="M108.371 143.753L112.65 138.987L109.029 141.31C109.029 141.31 106.147 141.359 106.205 142.552C106.255 143.572 108.371 143.753 108.371 143.753Z" fill="#4DA33F"/>
<path d="M113.707 147.256L118.392 142.895L116.125 146.566C116.125 146.566 116.108 149.469 114.922 149.423C113.909 149.384 113.707 147.256 113.707 147.256Z" fill="#4DA33F"/>
<path d="M62.9322 196.878C58.4719 196.513 73.99 182.928 79.5438 174.362C85.2014 165.635 88.0053 152.572 93.3397 151.183C98.6742 149.794 97.5842 150.603 93.9312 157.574C89.7052 165.639 78.6693 179.839 71.25 188.317C68.0089 192.021 64.2883 196.989 62.9322 196.878Z" fill="#F4F3CA"/>
<path d="M64.1716 222.333C64.9275 225.671 74.7061 211.156 80.2242 206.337C85.8456 201.429 97.1882 189.302 97.5907 185.176C97.9933 181.051 96.352 182.638 92.3391 186.623C88.2198 190.715 82.4837 200.875 77.2361 207.094C74.9436 209.811 63.9417 221.318 64.1716 222.333Z" fill="#F4F3CA"/>
<path d="M112.533 136.548C113.245 137.081 111.961 137.323 111.255 138.28C110.55 139.236 108.921 140.229 108.208 139.696C107.496 139.163 108.83 137.949 109.535 136.993C110.241 136.036 111.821 136.015 112.533 136.548Z" fill="#C9E9C3"/>
<path d="M118.872 140.618C119.585 141.151 118.3 141.394 117.594 142.35C116.889 143.307 115.315 145.013 114.603 144.48C113.89 143.947 115.169 142.02 115.875 141.063C116.58 140.107 118.16 140.085 118.872 140.618Z" fill="#C9E9C3"/>
<path d="M135.359 170.85C135.359 170.85 134.769 166.083 137.065 163.16C139.362 160.237 142.014 156.809 145.487 158.326C147.171 159.062 148.665 159.901 148.736 161.748C148.778 162.835 147.757 164.354 147.757 164.354C147.757 164.354 150.083 163.486 151.45 163.973C153.22 164.605 154.789 166.017 154.331 167.851C154.081 168.852 152.674 169.9 152.674 169.9C152.674 169.9 154.292 169.202 155.319 169.419C157.024 169.779 158.159 172.884 158.159 172.884C158.159 172.884 157.297 175.964 154.476 177.438C152.202 178.626 148.283 180.779 147.46 181.594C147.606 181.807 147.618 181.923 147.47 181.917C147.244 181.908 147.263 181.789 147.46 181.594C146.469 180.133 139.304 174.085 135.359 170.85Z" fill="#73CA65"/>
<path d="M20.2234 253.463C24.6962 223.99 65.5003 220.985 85.5714 204.641C110.227 184.565 109.818 169.311 125.106 165.882C140.394 162.454 154.258 179.117 147.926 194.954C144.482 203.568 128.444 217.808 100.555 240.304C77.1666 259.17 59.4081 285.205 46.3366 282.737C33.2651 280.269 17.3862 272.159 20.2234 253.463Z" fill="#4F9E65"/>
<path d="M25.1723 260.425C20.7001 259.381 21.439 252.886 24.3977 249.351C27.7296 245.371 30.7551 243.402 33.7881 240.983C36.6344 238.713 39.6257 236.151 44.3128 234.349C49.1523 232.489 51.3178 231.337 53.4016 230.956C54.1514 230.819 55.6268 230.619 56.5014 230.938C58.2676 231.583 56.7262 231.995 54.8382 233.034C51.8858 234.658 46.1342 236.68 42.8015 238.833C35.3254 243.664 31.3781 246.66 29.2116 251.728C27.4967 255.739 29.3967 261.41 25.1723 260.425Z" fill="#487D56"/>
<path d="M32.0066 264.657C27.5345 263.614 32.8562 258.789 35.8149 255.254C39.1469 251.274 49.3632 249.956 52.3962 247.537C55.4292 245.118 57.3435 244.304 57.3435 244.304C57.3435 244.304 48.9437 251.046 46.4999 252.791C43.894 254.651 40.4912 254.613 38.7764 258.624C37.0616 262.635 36.2311 265.643 32.0066 264.657Z" fill="#487D56"/>
<path d="M33.5619 270.588C34.0463 275.185 36.8213 275.516 41.3627 276.191C48.5285 277.255 54.756 273.244 61.4805 268.066C66.9693 263.84 70.4982 258.877 72.8442 254.411C75.2664 249.8 85.3673 242.075 85.3673 242.075C85.3673 242.075 96.4696 233.672 96.2612 232.759C95.8404 230.915 73.0893 248.843 71.8355 250.604C69.875 253.358 64.7045 256.927 62.1765 259.996C56.5057 266.881 47.8839 266.06 42.6255 267.609C38.4635 268.835 33.1043 266.246 33.5619 270.588Z" fill="#487D56"/>
<path d="M30.3648 266.777C29.2748 263.242 26.0701 259.675 24.1983 262.861C22.6762 265.452 24.2147 266.705 25.8793 269.206C25.8793 269.206 28.3526 273.655 30.5926 273.24C33.0592 272.783 31.1084 269.189 30.3648 266.777Z" fill="#D8D9A1" stroke="#A2AF8F"/>
<path d="M141.235 169.043L146.855 164.931L142.48 166.589C142.48 166.589 139.398 165.99 139.195 167.275C139.021 168.373 141.235 169.043 141.235 169.043Z" fill="#4DA33F"/>
<path d="M146.14 173.98L152.103 170.392L148.87 173.792C148.87 173.792 148.205 176.88 146.953 176.564C145.882 176.293 146.14 173.98 146.14 173.98Z" fill="#4DA33F"/>
<path d="M80.9946 215.386C76.3235 213.99 95.8818 203.02 103.706 195.147C111.677 187.127 117.573 173.841 123.566 173.566C129.558 173.291 128.217 173.906 122.773 180.509C116.475 188.147 101.555 200.785 91.7628 208.143C87.4849 211.357 82.4148 215.81 80.9946 215.386Z" fill="#C4DEB3"/>
<path d="M76.6477 242.787C76.7101 246.513 90.3603 233.256 97.3123 229.369C104.394 225.408 119.179 215.048 120.527 210.744C121.874 206.439 119.772 207.759 114.609 211.099C109.309 214.529 100.936 224.059 93.9601 229.5C90.9127 231.877 76.6287 241.654 76.6477 242.787Z" fill="#C4DEB3"/>
<path d="M147.274 162.306C147.914 163.035 146.491 163.003 145.527 163.863C144.562 164.723 142.605 165.413 141.965 164.684C141.325 163.955 143.016 162.963 143.981 162.103C144.946 161.244 146.633 161.577 147.274 162.306Z" fill="#C9E9C3"/>
<path d="M153.121 168.075C153.762 168.803 152.339 168.772 151.374 169.631C150.409 170.491 148.353 171.954 147.713 171.225C147.072 170.496 148.863 168.732 149.828 167.872C150.793 167.012 152.481 167.346 153.121 168.075Z" fill="#C9E9C3"/>
<path d="M31.4708 267.432C34.2366 278.006 28.3425 288.999 17.16 291.965C5.97752 294.931 -4.52928 288.289 -7.29507 277.714C-10.0609 267.14 -3.62494 256.266 7.07997 253.427C17.7849 250.587 28.705 256.858 31.4708 267.432Z" fill="#FF4C4C"/>
<path d="M-7.2873 261.51C-1.49059 262.801 4.48335 260.736 8.16241 258.527L7.22765 262.785C4.34966 263.418 0.55826 264.546 -7.2873 261.51Z" fill="#169F3C"/>
<path d="M-8.31365 255.025C-3.63821 258.71 2.63554 259.444 6.90108 259.051L4.23256 262.485C1.3651 261.806 -2.53837 261.175 -8.31365 255.025Z" fill="#169F3C"/>
<path d="M10.3535 246.584C10.484 252.561 7.31176 258.061 4.44503 261.266L8.77422 261.17C9.95039 258.45 11.786 254.924 10.3535 246.584Z" fill="#169F3C"/>
<path d="M0.953925 245.393C4.04064 250.5 4.79035 256.395 4.58074 260.2L7.28148 258.545C6.66142 255.772 6.05495 252.065 0.953925 245.393Z" fill="#169F3C"/>
<path d="M0.921902 254.435L3.11027 252.995C3.11027 252.995 4.21325 253.995 5.62976 255.921C7.04627 257.847 7.53983 260.434 7.53983 260.434L4.79997 261.375C4.79997 261.375 4.2019 258.479 3.4414 257.361C2.87102 256.523 0.921902 254.435 0.921902 254.435Z" fill="#147F32"/>
<path d="M3.10411 252.988C3.22124 253.188 2.67632 253.929 2.0478 254.303C1.41927 254.677 1.04457 254.651 0.927443 254.452C0.810311 254.252 0.994206 253.957 1.55201 253.53C2.18054 253.156 2.9489 252.815 3.10411 252.988Z" fill="#1DBC49"/>
<path d="M14.5283 250.243C12.2765 255.775 10.1674 258.535 6.26782 260.32L7.29319 262.979C9.45059 260.959 12.5324 258.465 14.5283 250.243Z" fill="#169F3C"/>
<ellipse cx="2.5014" cy="0.943617" rx="2.5014" ry="0.943617" transform="matrix(0.931689 -0.364324 0.359637 0.932681 3.69849 261.069)" fill="#169F3C"/>
<path d="M7.62953 262.57C7.56705 262.408 7.12512 262.43 6.64245 262.618C6.15978 262.807 5.76851 262.96 5.18587 263.188C5.59031 263.368 6.38602 263.394 6.86869 263.205C7.35136 263.016 7.92084 262.456 7.62953 262.57Z" fill="#169F3C"/>
<ellipse cx="5.14355" cy="4.39588" rx="5.14355" ry="4.39588" transform="matrix(0.998929 -0.0240548 0.0237572 1.00049 -5.49634 265.816)" fill="#FF8282"/>
<path d="M44.6219 282.996C42.6871 291.001 34.8654 296.155 26.3996 294.08C17.9338 292.005 13.3389 283.807 15.2738 275.802C17.2086 267.797 25.3469 262.918 33.4512 264.904C41.5555 266.89 46.5568 274.99 44.6219 282.996Z" fill="#FFCD4C"/>
<path d="M21.0521 265.069C24.4329 268.018 29.1267 268.808 32.3513 268.674L30.215 271.157C28.0825 270.537 25.1686 269.915 21.0521 265.069Z" fill="#169F3C"/>
<path d="M22.6823 260.401C24.4675 264.532 28.3625 267.285 31.3287 268.566L28.3371 269.877C26.6795 268.391 24.3179 266.562 22.6823 260.401Z" fill="#169F3C"/>
<path d="M38.0575 261.553C36.0146 265.56 31.9532 268.058 28.912 269.146L31.8145 270.647C33.5628 269.269 36.0353 267.596 38.0575 261.553Z" fill="#169F3C"/>
<path d="M32.2547 257.368C32.4804 261.866 30.8767 266.043 29.3821 268.489L31.7613 268.368C32.3384 266.307 33.2575 263.631 32.2547 257.368Z" fill="#169F3C"/>
<path d="M29.0115 263.347L30.9746 263.184C30.9746 263.184 31.3492 264.245 31.6015 266.033C31.8538 267.82 31.2589 269.713 31.2589 269.713L29.1085 269.346C29.1085 269.346 29.7441 267.211 29.6384 266.196C29.559 265.435 29.0115 263.347 29.0115 263.347Z" fill="#147F32"/>
<path d="M30.973 263.177C30.9795 263.351 30.3546 263.645 29.8048 263.666C29.255 263.687 29.016 263.534 29.0095 263.36C29.0029 263.185 29.2299 263.056 29.7517 262.975C30.3015 262.954 30.932 263.006 30.973 263.177Z" fill="#1DBC49"/>
<path d="M39.5203 265.486C36.0575 268.337 33.6767 269.404 30.4572 269.178L30.1892 271.31C32.3383 270.751 35.2686 270.212 39.5203 265.486Z" fill="#169F3C"/>
<ellipse cx="1.8846" cy="0.711025" rx="1.8846" ry="0.711025" transform="matrix(0.991613 0.126407 -0.124765 0.992547 28.4878 268.746)" fill="#169F3C"/>
<path d="M30.5576 271.161C30.5739 271.031 30.2734 270.885 29.8863 270.836C29.4993 270.787 29.1855 270.747 28.7183 270.687C28.9223 270.952 29.4401 271.257 29.8272 271.306C30.2142 271.356 30.7912 271.19 30.5576 271.161Z" fill="#169F3C"/>
<ellipse cx="3.87526" cy="3.31232" rx="3.87526" ry="3.31232" transform="matrix(0.889832 0.457884 -0.452168 0.891124 20.7046 268.569)" fill="#FFE895"/>
<path d="M213.872 75.5363L211.302 74.4317L202.198 103.759C202.336 106.441 202.728 107.126 204.767 104.864L213.872 75.5363Z" fill="#62BB42"/>
<ellipse cx="1.80593" cy="4.68207" rx="1.80593" ry="4.68207" transform="matrix(0.91317 -0.407579 0.402833 0.915273 201.851 85.9746)" fill="#62BB42"/>
<ellipse cx="2.4079" cy="5.35093" rx="2.4079" ry="5.35093" transform="matrix(0.91317 -0.407579 0.402833 0.915273 201.356 78.8712)" fill="#62BB42"/>
<ellipse cx="1.80593" cy="5.35093" rx="1.80593" ry="5.35093" transform="matrix(0.91317 -0.407579 0.402833 0.915273 204.115 76.1748)" fill="#62BB42"/>
<ellipse cx="2.4079" cy="6.0198" rx="2.4079" ry="6.0198" transform="matrix(0.91317 -0.407579 0.402833 0.915273 204.697 71.5201)" fill="#62BB42"/>
<ellipse cx="2.4079" cy="5.35093" rx="2.4079" ry="5.35093" transform="matrix(0.91317 -0.407579 0.402833 0.915273 205.819 68.09)" fill="#62BB42"/>
<ellipse cx="2.25505" cy="5.63621" rx="2.25505" ry="5.63621" transform="matrix(0.996573 0.0514725 0.0247754 1.00152 210.782 63.6149)" fill="#62BB42"/>
<ellipse cx="2.43205" cy="5.22017" rx="2.43205" ry="5.22017" transform="matrix(0.651944 0.756353 -0.712383 0.704228 217.762 65.8788)" fill="#62BB42"/>
<ellipse cx="2.45525" cy="4.37468" rx="2.45525" ry="4.37468" transform="matrix(0.348255 0.937726 -0.940064 0.33989 213.821 88.0604)" fill="#62BB42"/>
<ellipse cx="2.45525" cy="4.37468" rx="2.45525" ry="4.37468" transform="matrix(0.348255 0.937726 -0.940064 0.33989 215.193 83.8616)" fill="#62BB42"/>
<ellipse cx="2.45525" cy="4.37468" rx="2.45525" ry="4.37468" transform="matrix(0.348255 0.937726 -0.940064 0.33989 216.565 79.6627)" fill="#62BB42"/>
<ellipse cx="2.45525" cy="4.37468" rx="2.45525" ry="4.37468" transform="matrix(0.348255 0.937726 -0.940064 0.33989 217.938 75.4639)" fill="#62BB42"/>
<ellipse cx="2.45525" cy="4.37468" rx="2.45525" ry="4.37468" transform="matrix(0.348255 0.937726 -0.940064 0.33989 219.31 71.265)" fill="#62BB42"/>
<path d="M208.557 73.6426L201.286 72.5775C200.774 89.3574 200.192 98.6383 195.628 113.676C197.605 117.273 199.027 118.132 202.899 114.741C202.244 96.2861 204.121 87.824 208.557 73.6426Z" fill="#6CD945"/>
<ellipse cx="1.82734" cy="4.31083" rx="1.82734" ry="4.31083" transform="matrix(0.80737 -0.59186 0.585213 0.809567 196.146 87.2888)" fill="#6CD945"/>
<ellipse cx="2.43645" cy="4.92666" rx="2.43645" ry="4.92666" transform="matrix(0.80737 -0.59186 0.585213 0.809567 194.509 80.8612)" fill="#6CD945"/>
<ellipse cx="1.82734" cy="4.92666" rx="1.82734" ry="4.92666" transform="matrix(0.80737 -0.59186 0.585213 0.809567 196.739 77.701)" fill="#6CD945"/>
<ellipse cx="2.43645" cy="5.54249" rx="2.43645" ry="5.54249" transform="matrix(0.80737 -0.59186 0.585213 0.809567 196.544 73.2676)" fill="#6CD945"/>
<ellipse cx="2.43645" cy="4.92666" rx="2.43645" ry="4.92666" transform="matrix(0.80737 -0.59186 0.585213 0.809567 197.07 69.8314)" fill="#6CD945"/>
<ellipse cx="2.24111" cy="5.26691" rx="2.24111" ry="5.26691" transform="matrix(0.978466 -0.197269 0.200274 0.98158 201.142 64.4929)" fill="#6CD945"/>
<ellipse cx="2.25896" cy="5.22523" rx="2.25896" ry="5.22523" transform="matrix(0.811658 0.57922 -0.573821 0.822507 208.263 64.8745)" fill="#6CD945"/>
<ellipse cx="2.26139" cy="4.42453" rx="2.26139" ry="4.42453" transform="matrix(0.531651 0.846227 -0.844366 0.536928 208.065 86.2872)" fill="#6CD945"/>
<ellipse cx="2.26139" cy="4.42453" rx="2.26139" ry="4.42453" transform="matrix(0.531651 0.846227 -0.844366 0.536928 208.708 82.0808)" fill="#6CD945"/>
<ellipse cx="2.26139" cy="4.42453" rx="2.26139" ry="4.42453" transform="matrix(0.531651 0.846227 -0.844366 0.536928 209.351 77.8746)" fill="#6CD945"/>
<ellipse cx="2.26139" cy="4.42453" rx="2.26139" ry="4.42453" transform="matrix(0.531651 0.846227 -0.844366 0.536928 209.995 73.6683)" fill="#6CD945"/>
<ellipse cx="2.26139" cy="4.42453" rx="2.26139" ry="4.42453" transform="matrix(0.531651 0.846227 -0.844366 0.536928 210.638 69.4619)" fill="#6CD945"/>
<path d="M229.206 76.9149L222.977 71.721C214.611 88.4848 209.706 97.5876 198.409 110.289C198.546 115.063 199.458 116.74 204.637 115.483C212.711 96.357 218.43 88.8189 229.206 76.9149Z" fill="#6CD945"/>
<ellipse cx="1.8954" cy="5.01447" rx="1.8954" ry="5.01447" transform="matrix(0.988796 -0.139765 0.138235 0.991775 211.3 83.7656)" fill="#6CD945"/>
<ellipse cx="2.5272" cy="5.73082" rx="2.5272" ry="5.73082" transform="matrix(0.988796 -0.139765 0.138235 0.991775 212.809 76.3077)" fill="#6CD945"/>
<ellipse cx="1.8954" cy="5.73082" rx="1.8954" ry="5.73082" transform="matrix(0.988796 -0.139765 0.138235 0.991775 216.359 74.3571)" fill="#6CD945"/>
<ellipse cx="2.5272" cy="6.44718" rx="2.5272" ry="6.44718" transform="matrix(0.988796 -0.139765 0.138235 0.991775 218.264 69.7411)" fill="#6CD945"/>
<ellipse cx="2.5272" cy="5.73082" rx="2.5272" ry="5.73082" transform="matrix(0.988796 -0.139765 0.138235 0.991775 220.366 66.546)" fill="#6CD945"/>
<ellipse cx="2.37679" cy="6.01897" rx="2.37679" ry="6.01897" transform="matrix(0.94137 0.332654 -0.241842 0.972014 226.647 63.4235)" fill="#6CD945"/>
<ellipse cx="2.6003" cy="5.49286" rx="2.6003" ry="5.49286" transform="matrix(0.415884 0.910087 -0.873243 0.486515 233.058 67.838)" fill="#6CD945"/>
<ellipse cx="2.62938" cy="4.59192" rx="2.62938" ry="4.59192" transform="matrix(0.0808298 0.998197 -0.996331 0.0657366 222.802 89.4868)" fill="#6CD945"/>
<ellipse cx="2.62938" cy="4.59192" rx="2.62938" ry="4.59192" transform="matrix(0.0808298 0.998197 -0.996331 0.0657366 225.376 85.5758)" fill="#6CD945"/>
<ellipse cx="2.62938" cy="4.59192" rx="2.62938" ry="4.59192" transform="matrix(0.0808298 0.998197 -0.996331 0.0657366 227.95 81.6649)" fill="#6CD945"/>
<ellipse cx="2.62938" cy="4.59192" rx="2.62938" ry="4.59192" transform="matrix(0.0808298 0.998197 -0.996331 0.0657366 230.524 77.7538)" fill="#6CD945"/>
<ellipse cx="2.62938" cy="4.59192" rx="2.62938" ry="4.59192" transform="matrix(0.0808298 0.998197 -0.996331 0.0657366 233.098 73.8428)" fill="#6CD945"/>
<rect width="3.67476" height="4.6802" transform="matrix(0.29246 -0.95896 0.952892 0.29471 196.591 114.324)" fill="#6CD945"/>
<path d="M160.481 206.627C159.191 213.234 168.004 216.666 171.464 210.903L191.851 176.95L212.485 135.318C215.653 128.926 214.78 121.254 210.259 115.75L209.766 115.15C205.812 110.336 199.528 108.135 193.461 109.438V109.438C187.399 110.741 182.557 115.327 180.894 121.341L168.077 167.714L160.481 206.627Z" fill="#E98339"/>
<path d="M178.365 138.87C181.219 140.401 182.783 140.741 185.476 140.627" stroke="#F2C756" stroke-linecap="round"/>
<path d="M175.941 147.008C178.795 148.539 180.358 148.88 183.052 148.765" stroke="#F2C756" stroke-linecap="round"/>
<path d="M177.261 142.689C179.904 144.327 181.327 144.738 183.744 144.764" stroke="#F2C756" stroke-linecap="round"/>
<path d="M168.994 201.153C168.994 212.088 160.514 221.206 148.95 221.206C137.386 221.206 128.906 212.088 128.906 201.153C128.906 190.218 137.88 181.354 148.95 181.354C160.02 181.354 168.994 190.218 168.994 201.153Z" fill="#FF4C4C"/>
<path d="M133.012 185.485C138.291 188.22 144.59 187.756 148.707 186.563L146.726 190.441C143.783 190.315 139.831 190.433 133.012 185.485Z" fill="#169F3C"/>
<path d="M133.66 178.951C137.249 183.713 143.13 186.033 147.355 186.747L143.905 189.383C141.305 187.99 137.689 186.379 133.66 178.951Z" fill="#169F3C"/>
<path d="M153.846 175.577C152.461 181.39 148.002 185.895 144.419 188.259L148.63 189.276C150.455 186.948 153.122 184.009 153.846 175.577Z" fill="#169F3C"/>
<path d="M145.058 172.014C146.751 177.744 145.985 183.637 144.82 187.263L147.85 186.355C147.952 183.514 148.303 179.774 145.058 172.014Z" fill="#169F3C"/>
<path d="M142.74 180.75L145.22 179.918C145.22 179.918 146.034 181.168 146.917 183.394C147.799 185.62 147.622 188.248 147.622 188.248L144.735 188.455C144.735 188.455 144.889 185.501 144.436 184.225C144.097 183.269 142.74 180.75 142.74 180.75Z" fill="#147F32"/>
<path d="M145.216 179.91C145.279 180.133 144.565 180.71 143.862 180.91C143.16 181.111 142.804 180.99 142.741 180.767C142.678 180.544 142.931 180.306 143.578 180.036C144.281 179.835 145.11 179.702 145.216 179.91Z" fill="#1DBC49"/>
<path d="M156.958 180.186C153.381 184.958 150.643 187.086 146.421 187.811L146.74 190.646C149.337 189.246 152.948 187.625 156.958 180.186Z" fill="#169F3C"/>
<ellipse cx="2.50029" cy="0.944032" rx="2.50029" ry="0.944032" transform="matrix(0.993552 -0.113377 0.11182 0.993729 143.747 187.877)" fill="#169F3C"/>
<path d="M147.169 190.337C147.15 190.164 146.717 190.071 146.202 190.13C145.688 190.189 145.271 190.236 144.65 190.307C144.995 190.585 145.758 190.814 146.273 190.756C146.787 190.697 147.479 190.301 147.169 190.337Z" fill="#169F3C"/>
<ellipse cx="5.14145" cy="4.39765" rx="5.14145" ry="4.39765" transform="matrix(0.972462 0.233062 -0.229992 0.973193 133.655 190.109)" fill="#FF8282"/>
<path d="M128.583 248.397C128.583 248.397 160.402 223.074 194.816 190.382C214.71 171.483 235.501 150.155 251.579 129.902C295.468 74.6137 341.337 31.9775 341.337 31.9775L358.107 55.5195C339.345 73.8742 240.663 164.779 141.57 256.684L128.583 248.397Z" fill="#F2F8EA"/>
<path d="M255.748 123.896C264.909 97.1246 267.487 81.915 268.171 54.4808C273.181 50.3887 276.451 50.4419 282.802 53.166C284.938 78.091 283.262 92.6252 276.754 119.234L255.748 123.896Z" fill="url(#paint0_linear_153_409)"/>
<path fill-rule="evenodd" clip-rule="evenodd" d="M261.901 145.315C310.446 100.335 347.668 65.7495 358.467 55.1845C354.291 48.0246 351.53 43.8907 346.046 37.1593C345.946 37.0371 345.846 36.9141 345.744 36.7902C345.565 36.571 345.383 36.3491 345.198 36.1242L339.544 40.7822L344.684 35.8348L341.697 31.6425C341.697 31.6425 296.254 73.8824 252.552 128.795L261.901 145.315Z" fill="url(#paint1_linear_153_409)"/>
<path d="M135.845 251.889C137.315 252.799 142.052 256.022 141.57 256.684C141.089 257.345 138.054 256.205 134.305 253.886C130.557 251.566 128.102 249.059 128.583 248.397C129.794 248.979 132.097 249.57 135.845 251.889Z" fill="#B7B070"/>
<path d="M281.982 53.7214C282.059 54.4473 278.867 55.0903 275.503 55.4516C272.139 55.8128 269.21 55.4824 269.133 54.7565C269.056 54.0306 271.423 52.0123 274.787 51.6511C278.151 51.2899 280.954 52.6862 281.982 53.7214Z" fill="#2A7E3D"/>
<path d="M264.698 77.4415L262.468 75.7467L246.622 102.006C246.115 104.642 246.332 105.402 248.852 103.7L264.698 77.4415Z" fill="#62BB42"/>
<ellipse cx="1.80422" cy="4.68644" rx="1.80422" ry="4.68644" transform="matrix(0.984669 -0.174433 0.172078 0.985083 250.536 84.6594)" fill="#62BB42"/>
<ellipse cx="2.40563" cy="5.35594" rx="2.40563" ry="5.35594" transform="matrix(0.984669 -0.174433 0.172078 0.985083 251.752 77.6448)" fill="#62BB42"/>
<ellipse cx="1.80422" cy="5.35594" rx="1.80422" ry="5.35594" transform="matrix(0.984669 -0.174433 0.172078 0.985083 255.075 75.6964)" fill="#62BB42"/>
<ellipse cx="2.40563" cy="6.02543" rx="2.40563" ry="6.02543" transform="matrix(0.984669 -0.174433 0.172078 0.985083 256.753 71.3197)" fill="#62BB42"/>
<ellipse cx="2.40563" cy="5.35594" rx="2.40563" ry="5.35594" transform="matrix(0.984669 -0.174433 0.172078 0.985083 258.661 68.2621)" fill="#62BB42"/>
<ellipse cx="2.25379" cy="5.63994" rx="2.25379" ry="5.63994" transform="matrix(0.955509 0.291667 -0.215176 0.977436 264.548 65.1217)" fill="#62BB42"/>
<ellipse cx="2.43393" cy="5.21646" rx="2.43393" ry="5.21646" transform="matrix(0.451658 0.891443 -0.860365 0.511226 270.782 69.011)" fill="#62BB42"/>
<ellipse cx="2.45753" cy="4.37059" rx="2.45753" ry="4.37059" transform="matrix(0.113793 0.993646 -0.994595 0.102146 261.655 89.5851)" fill="#62BB42"/>
<ellipse cx="2.45753" cy="4.37059" rx="2.45753" ry="4.37059" transform="matrix(0.113793 0.993646 -0.994595 0.102146 263.99 85.8422)" fill="#62BB42"/>
<ellipse cx="2.45753" cy="4.37059" rx="2.45753" ry="4.37059" transform="matrix(0.113793 0.993646 -0.994595 0.102146 266.326 82.0995)" fill="#62BB42"/>
<ellipse cx="2.45753" cy="4.37059" rx="2.45753" ry="4.37059" transform="matrix(0.113793 0.993646 -0.994595 0.102146 268.661 78.3566)" fill="#62BB42"/>
<ellipse cx="2.45753" cy="4.37059" rx="2.45753" ry="4.37059" transform="matrix(0.113793 0.993646 -0.994595 0.102146 270.997 74.6138)" fill="#62BB42"/>
<path d="M259.992 74.3153L253.19 71.5192C248.682 87.6818 245.899 96.5487 237.875 110.038C238.934 114.009 240.109 115.187 244.678 112.834C248.452 94.7629 252.297 87.0046 259.992 74.3153Z" fill="#6CD945"/>
<ellipse cx="1.82577" cy="4.3145" rx="1.82577" ry="4.3145" transform="matrix(0.92589 -0.379102 0.374202 0.92682 244.684 84.5524)" fill="#6CD945"/>
<ellipse cx="2.43436" cy="4.93086" rx="2.43436" ry="4.93086" transform="matrix(0.92589 -0.379102 0.374202 0.92682 244.632 77.9169)" fill="#6CD945"/>
<ellipse cx="1.82577" cy="4.93086" rx="1.82577" ry="4.93086" transform="matrix(0.92589 -0.379102 0.374202 0.92682 247.552 75.39)" fill="#6CD945"/>
<ellipse cx="2.43436" cy="5.54722" rx="2.43436" ry="5.54722" transform="matrix(0.92589 -0.379102 0.374202 0.92682 248.422 71.0397)" fill="#6CD945"/>
<ellipse cx="2.43436" cy="4.93086" rx="2.43436" ry="4.93086" transform="matrix(0.92589 -0.379102 0.374202 0.92682 249.753 67.8318)" fill="#6CD945"/>
<ellipse cx="2.23986" cy="5.26986" rx="2.23986" ry="5.26986" transform="matrix(0.997408 0.0457118 -0.0401914 1.0007 254.982 63.6373)" fill="#6CD945"/>
<ellipse cx="2.2605" cy="5.22167" rx="2.2605" ry="5.22167" transform="matrix(0.648922 0.758404 -0.754047 0.659697 261.802 65.7338)" fill="#6CD945"/>
<ellipse cx="2.2633" cy="4.42075" rx="2.2633" ry="4.42075" transform="matrix(0.313507 0.949408 -0.948681 0.316761 256.492 86.4688)" fill="#6CD945"/>
<ellipse cx="2.2633" cy="4.42075" rx="2.2633" ry="4.42075" transform="matrix(0.313507 0.949408 -0.948681 0.316761 258.122 82.5421)" fill="#6CD945"/>
<ellipse cx="2.2633" cy="4.42075" rx="2.2633" ry="4.42075" transform="matrix(0.313507 0.949408 -0.948681 0.316761 259.751 78.6154)" fill="#6CD945"/>
<ellipse cx="2.2633" cy="4.42075" rx="2.2633" ry="4.42075" transform="matrix(0.313507 0.949408 -0.948681 0.316761 261.381 74.6886)" fill="#6CD945"/>
<ellipse cx="2.2633" cy="4.42075" rx="2.2633" ry="4.42075" transform="matrix(0.313507 0.949408 -0.948681 0.316761 263.011 70.7618)" fill="#6CD945"/>
<path d="M279.251 82.4962L274.447 75.9454C262.32 90.1884 255.384 97.835 241.383 107.425C240.375 112.091 240.86 113.94 246.187 113.976C258.595 97.3689 265.947 91.4384 279.251 82.4962Z" fill="#6CD945"/>
<ellipse cx="1.89388" cy="5.01846" rx="1.89388" ry="5.01846" transform="matrix(0.993931 0.104087 -0.102784 0.995334 260.235 84.8055)" fill="#6CD945"/>
<ellipse cx="2.52517" cy="5.73538" rx="2.52517" ry="5.73538" transform="matrix(0.993931 0.104087 -0.102784 0.995334 263.481 77.9325)" fill="#6CD945"/>
<ellipse cx="1.89388" cy="5.73538" rx="1.89388" ry="5.73538" transform="matrix(0.993931 0.104087 -0.102784 0.995334 267.394 76.8997)" fill="#6CD945"/>
<ellipse cx="2.52517" cy="6.4523" rx="2.52517" ry="6.4523" transform="matrix(0.993931 0.104087 -0.102784 0.995334 270.346 72.8811)" fill="#6CD945"/>
<ellipse cx="2.52517" cy="5.73538" rx="2.52517" ry="5.73538" transform="matrix(0.993931 0.104087 -0.102784 0.995334 273.15 70.2897)" fill="#6CD945"/>
<ellipse cx="2.37569" cy="6.02241" rx="2.37569" ry="6.02241" transform="matrix(0.834578 0.551296 -0.46678 0.884318 279.992 68.781)" fill="#6CD945"/>
<ellipse cx="2.60203" cy="5.48958" rx="2.60203" ry="5.48958" transform="matrix(0.186022 0.983481 -0.964426 0.260716 285.16 74.6198)" fill="#6CD945"/>
<ellipse cx="2.63146" cy="4.58827" rx="2.63146" ry="4.58827" transform="matrix(-0.159992 0.987665 -0.983534 -0.177823 270.031 93.1464)" fill="#6CD945"/>
<ellipse cx="2.63146" cy="4.58827" rx="2.63146" ry="4.58827" transform="matrix(-0.159992 0.987665 -0.983534 -0.177823 273.464 89.9742)" fill="#6CD945"/>
<ellipse cx="2.63146" cy="4.58827" rx="2.63146" ry="4.58827" transform="matrix(-0.159992 0.987665 -0.983534 -0.177823 276.897 86.802)" fill="#6CD945"/>
<ellipse cx="2.63146" cy="4.58827" rx="2.63146" ry="4.58827" transform="matrix(-0.159992 0.987665 -0.983534 -0.177823 280.33 83.6298)" fill="#6CD945"/>
<ellipse cx="2.63146" cy="4.58827" rx="2.63146" ry="4.58827" transform="matrix(-0.159992 0.987665 -0.983534 -0.177823 283.763 80.4576)" fill="#6CD945"/>
<rect width="3.67524" height="4.67959" transform="matrix(0.512989 -0.859771 0.854556 0.517072 238.655 110.9)" fill="#6CD945"/>
<path d="M181.545 191.737C178.714 197.838 186.447 203.305 191.183 198.55L219.085 170.536L249.063 135.129C253.666 129.693 254.652 122.036 251.579 115.597L251.244 114.895C248.557 109.265 242.985 105.605 236.784 105.4V105.4C230.589 105.195 224.793 108.472 221.742 113.907L198.218 155.809L181.545 191.737Z" fill="#F5953E"/>
<path d="M215.097 130.307C217.502 132.485 218.938 133.194 221.579 133.736" stroke="#F2C756" stroke-linecap="round"/>
<path d="M210.799 137.619C213.204 139.797 214.64 140.506 217.281 141.048" stroke="#F2C756" stroke-linecap="round"/>
<path d="M213.113 133.747C215.287 135.977 216.57 136.721 218.91 137.332" stroke="#F2C756" stroke-linecap="round"/>
<path d="M266.908 150.627C284.352 117.978 326.022 83.3585 343.547 69.6818C345.367 68.2617 346.276 67.5516 347.746 66.9033C350.157 65.8401 354.608 65.6472 357.101 66.4979C358.62 67.0166 359.224 67.4087 360.43 68.1928C361.263 68.7345 362.046 69.2988 362.718 69.8707C364.876 71.7059 367.806 74.4718 369.096 75.7012C369.254 75.8515 369.332 75.9266 369.435 76.029C369.619 76.2123 369.86 76.4685 370.031 76.6638C370.127 76.7729 370.197 76.8566 370.337 77.024C371.667 78.6095 374.96 82.5764 377.052 85.4445V85.4445C377.3 85.7844 377.424 85.9543 377.881 86.8364C379.437 89.8364 379.537 95.446 378.088 98.4996C377.662 99.3973 377.328 99.8908 376.661 100.878C364.386 119.025 331.108 164.638 297.002 180.308C290.91 183.107 283.961 185.209 277.476 186.762C273.628 187.683 271.704 188.144 268.982 187.623C264.243 186.715 259.111 181.18 258.538 176.355C258.209 173.586 258.792 171.701 259.959 167.932C261.772 162.075 264.074 155.933 266.908 150.627Z" fill="url(#paint2_linear_153_409)"/>
<path d="M364.566 53.8056C360.266 58.0581 357.311 62.6736 355.937 65.036C355.418 65.9283 355.723 67.0478 356.591 67.5998L357.468 68.1573C358.377 68.7348 359.586 68.4898 360.243 67.6335C361.54 65.9431 363.963 62.9733 367.637 59.196C369.082 57.7097 370.22 56.5842 371.115 55.7358C372.344 54.5708 373.175 51.1116 372.439 49.582C372.266 49.2224 371.969 48.9327 371.574 48.9742C370.655 49.0709 368.567 49.8487 364.566 53.8056Z" fill="#AACC7D"/>
<path d="M369.4 56.6579C365.1 60.9104 362.145 65.5259 360.771 67.8883C360.252 68.7806 360.557 69.9001 361.425 70.4521L362.302 71.0096C363.211 71.5871 364.42 71.3421 365.077 70.4858C366.374 68.7954 368.797 65.8256 372.471 62.0483C373.916 60.562 375.054 59.4365 375.949 58.5881C377.178 57.4231 378.009 53.9639 377.273 52.4343C377.1 52.0747 376.803 51.785 376.408 51.8265C375.489 51.9232 373.401 52.701 369.4 56.6579Z" fill="#AACC7D"/>
<path d="M373.292 61.4545C369.058 65.6582 366.049 70.132 364.604 72.4752C364.041 73.3878 364.356 74.5618 365.271 75.1143L365.752 75.4052C366.648 75.9457 367.811 75.7067 368.458 74.882C369.761 73.2198 372.222 70.2485 375.939 66.4264C377.55 64.7698 378.776 63.5587 379.708 62.6784C380.816 61.6323 381.609 58.4891 380.995 57.0904C380.835 56.7271 380.538 56.4453 380.149 56.5124C379.254 56.6668 377.235 57.5397 373.292 61.4545Z" fill="#AACC7D"/>
<path d="M388.262 78.3045C384.141 82.7273 380.163 85.1908 378.111 86.2856C377.285 86.7263 376.296 86.4343 375.766 85.6589L374.873 84.3523C374.217 83.393 374.481 82.0365 375.387 81.3127C376.794 80.1881 379.083 78.1906 382.332 74.85L390.352 66.6034C390.956 65.9826 391.887 65.8242 392.66 66.2102L394.4 67.0784C395.422 67.5887 395.795 68.8451 395.153 69.7945C393.948 71.5758 391.728 74.5839 388.262 78.3045Z" fill="#AACC7D"/>
<path d="M381.012 74.0276C376.795 78.5553 373.454 79.8168 371.87 80.1677C371.247 80.3056 370.653 79.9898 370.291 79.4614L369.389 78.1452C368.618 77.0211 369.106 75.3035 370.232 74.5424C371.718 73.5377 373.893 71.807 376.751 68.8675L384.197 61.2119C385.039 60.3463 386.443 60.4256 387.186 61.3786L388.202 62.6805C388.699 63.3173 388.763 64.1893 388.324 64.8676C387.262 66.5081 384.938 69.8121 381.012 74.0276Z" fill="#AACC7D"/>
<path d="M362.654 54.7925C358.42 58.9962 355.41 63.47 353.966 65.8132C353.403 66.7258 353.717 67.8998 354.632 68.4523L355.114 68.7432C356.009 69.2837 357.173 69.0448 357.819 68.22C359.122 66.5578 361.583 63.5865 365.301 59.7644C366.912 58.1078 368.138 56.8967 369.07 56.0165C370.177 54.9703 370.971 51.8271 370.357 50.4284C370.197 50.0651 369.899 49.7833 369.51 49.8504C368.616 50.0049 366.597 50.8777 362.654 54.7925Z" fill="#ADDA74"/>
<path d="M367.993 60.0585C363.758 64.2622 360.749 68.736 359.304 71.0792C358.742 71.9918 359.056 73.1658 359.971 73.7183L360.453 74.0092C361.348 74.5497 362.511 74.3108 363.158 73.486C364.461 71.8238 366.922 68.8525 370.639 65.0304C372.251 63.3738 373.477 62.1627 374.409 61.2825C375.516 60.2363 376.31 57.0931 375.695 55.6944C375.536 55.3311 375.238 55.0493 374.849 55.1164C373.955 55.2708 371.936 56.1437 367.993 60.0585Z" fill="#ADDA74"/>
<path d="M389.73 81.6903C385.3 86.4337 379.856 88.8156 377.369 89.7213C376.567 90.0137 375.695 89.6883 375.219 88.975L374.758 88.2836C373.999 87.1456 374.547 85.5089 375.757 84.8801C377.759 83.8397 380.757 81.9092 384.071 78.5011L388.082 74.3775C389.04 73.3926 390.585 73.7455 391.822 74.3363L393.738 75.2515C393.91 75.3336 394.13 75.4063 394.151 75.5967C394.203 76.0554 393.687 77.4536 389.73 81.6903Z" fill="#ADDA74"/>
<path d="M382.955 76.9235C378.573 81.601 373.328 84.1004 370.865 85.094C370.038 85.4275 369.121 85.0938 368.636 84.3411L368.352 83.9C367.634 82.7852 368.149 81.2193 369.31 80.5883C371.272 79.5219 374.27 77.5392 377.64 74.0735L381.599 70.0031C382.572 69.0028 384.219 69.3072 385.49 69.8749L387.021 70.5586C387.203 70.6398 387.435 70.7198 387.437 70.9201C387.441 71.392 386.827 72.7906 382.955 76.9235Z" fill="#ADDA74"/>
<path d="M378.576 71.6474C374.194 76.3248 368.95 78.8242 366.486 79.8179C365.659 80.1513 364.742 79.8176 364.258 79.065L363.974 78.6238C363.256 77.5091 363.771 75.9431 364.931 75.3122C366.893 74.2457 369.891 72.2631 373.262 68.7974L377.221 64.727C378.194 63.7266 379.841 64.0311 381.112 64.5988L382.643 65.2825C382.825 65.3637 383.056 65.4437 383.058 65.644C383.062 66.1159 382.448 67.5145 378.576 71.6474Z" fill="#ADDA74"/>
<path d="M335.831 118.05C335.831 118.05 340.283 122.123 342.869 124.992C346.198 128.685 350.66 135.07 350.66 135.07" stroke="#DCE4DA"/>
<path d="M333.996 134.104C333.996 134.104 336.907 137.487 339.044 140.709C341.795 144.856 341.782 145.486 341.782 145.486" stroke="#DCE4DA"/>
<path d="M337.382 128.678C337.382 128.678 340.136 131.075 342.722 133.944C346.051 137.637 347.1 139.22 347.1 139.22" stroke="#DCE4DA"/>
</g>
<defs>
<linearGradient id="paint0_linear_153_409" x1="274.032" y1="53.9541" x2="280.121" y2="121.705" gradientUnits="userSpaceOnUse">
<stop stop-color="#169F3C"/>
<stop offset="1" stop-color="#6E9938"/>
</linearGradient>
<linearGradient id="paint1_linear_153_409" x1="252.147" y1="134.674" x2="352.133" y2="43.0281" gradientUnits="userSpaceOnUse">
<stop stop-color="#ECFBE7"/>
<stop offset="1" stop-color="#169F3C"/>
</linearGradient>
<linearGradient id="paint2_linear_153_409" x1="338.143" y1="109.317" x2="396.545" y2="47.1898" gradientUnits="userSpaceOnUse">
<stop stop-color="#F2FFF9"/>
<stop offset="1" stop-color="#A0F0AD"/>
</linearGradient>
</defs>
</svg>
