<svg width="390" height="287" viewBox="0 0 390 287" fill="none" xmlns="http://www.w3.org/2000/svg">
<path d="M315.661 13.3613L314.225 12.4101L305.461 29.0527C305.247 30.6827 305.41 31.1385 306.896 30.0039L315.661 13.3613Z" fill="#62BB42"/>
<ellipse cx="308.969" cy="20.8374" rx="1.11196" ry="2.86934" transform="rotate(-13.4916 308.969 20.8374)" fill="#62BB42"/>
<ellipse cx="309.91" cy="16.8175" rx="1.48261" ry="3.27925" transform="rotate(-13.4916 309.91 16.8175)" fill="#62BB42"/>
<ellipse cx="311.521" cy="15.588" rx="1.11196" ry="3.27925" transform="rotate(-13.4916 311.521 15.588)" fill="#62BB42"/>
<ellipse cx="312.845" cy="13.1626" rx="1.48261" ry="3.68915" transform="rotate(-13.4916 312.845 13.1626)" fill="#62BB42"/>
<ellipse cx="313.809" cy="10.8238" rx="1.48261" ry="3.27925" transform="rotate(-13.4916 313.809 10.8238)" fill="#62BB42"/>
<ellipse cx="1.38716" cy="3.45644" rx="1.38716" ry="3.45644" transform="matrix(0.972985 0.230869 -0.156178 0.987729 315.106 5.83984)" fill="#62BB42"/>
<ellipse cx="1.49105" cy="3.21233" rx="1.49105" ry="3.21233" transform="matrix(0.508235 0.861218 -0.828478 0.560022 319.088 7.98047)" fill="#62BB42"/>
<ellipse cx="1.50469" cy="2.69354" rx="1.50469" ry="2.69354" transform="matrix(0.175251 0.984524 -0.986749 0.162255 314.244 20.8958)" fill="#62BB42"/>
<ellipse cx="1.50469" cy="2.69354" rx="1.50469" ry="2.69354" transform="matrix(0.175251 0.984524 -0.986749 0.162255 315.541 18.5208)" fill="#62BB42"/>
<ellipse cx="1.50469" cy="2.69354" rx="1.50469" ry="2.69354" transform="matrix(0.175251 0.984524 -0.986749 0.162255 316.837 16.1458)" fill="#62BB42"/>
<ellipse cx="1.50469" cy="2.69354" rx="1.50469" ry="2.69354" transform="matrix(0.175251 0.984524 -0.986749 0.162255 318.134 13.7708)" fill="#62BB42"/>
<ellipse cx="1.50469" cy="2.69354" rx="1.50469" ry="2.69354" transform="matrix(0.175251 0.984524 -0.986749 0.162255 319.43 11.3955)" fill="#62BB42"/>
<path d="M312.648 11.6292L308.357 10.1779C306.191 20.2233 304.811 25.746 300.38 34.2909C301.181 36.6769 301.948 37.3525 304.671 35.7422C306.315 24.5584 308.39 19.6729 312.648 11.6292Z" fill="#6CD945"/>
<ellipse cx="305.771" cy="20.3578" rx="1.12491" ry="2.64238" transform="rotate(-25.6407 305.771 20.3578)" fill="#6CD945"/>
<ellipse cx="305.991" cy="16.4836" rx="1.49988" ry="3.01986" transform="rotate(-25.6407 305.991 16.4836)" fill="#6CD945"/>
<ellipse cx="307.355" cy="14.9918" rx="1.12491" ry="3.01986" transform="rotate(-25.6407 307.355 14.9918)" fill="#6CD945"/>
<ellipse cx="308.228" cy="12.4789" rx="1.49988" ry="3.39735" transform="rotate(-25.6407 308.228 12.4789)" fill="#6CD945"/>
<ellipse cx="308.764" cy="10.1284" rx="1.49988" ry="3.01986" transform="rotate(-25.6407 308.764 10.1284)" fill="#6CD945"/>
<ellipse cx="1.37859" cy="3.23079" rx="1.37859" ry="3.23079" transform="matrix(0.999874 -0.015863 0.0209179 0.999781 309.165 5.29443)" fill="#6CD945"/>
<ellipse cx="1.38527" cy="3.2152" rx="1.38527" ry="3.2152" transform="matrix(0.697975 0.716122 -0.713278 0.700881 313.44 6.31763)" fill="#6CD945"/>
<ellipse cx="1.38618" cy="2.72368" rx="1.38618" ry="2.72368" transform="matrix(0.373125 0.927781 -0.928107 0.372314 310.95 19.187)" fill="#6CD945"/>
<ellipse cx="1.38618" cy="2.72368" rx="1.38618" ry="2.72368" transform="matrix(0.373125 0.927781 -0.928107 0.372314 311.806 16.7263)" fill="#6CD945"/>
<ellipse cx="1.38618" cy="2.72368" rx="1.38618" ry="2.72368" transform="matrix(0.373125 0.927781 -0.928107 0.372314 312.661 14.2656)" fill="#6CD945"/>
<ellipse cx="1.38618" cy="2.72368" rx="1.38618" ry="2.72368" transform="matrix(0.373125 0.927781 -0.928107 0.372314 313.517 11.8049)" fill="#6CD945"/>
<ellipse cx="1.38618" cy="2.72368" rx="1.38618" ry="2.72368" transform="matrix(0.373125 0.927781 -0.928107 0.372314 314.372 9.34399)" fill="#6CD945"/>
<path d="M324.805 15.8999L321.603 12.079C314.676 21.2396 310.696 26.1736 302.441 32.562C301.996 35.4512 302.363 36.5627 305.642 36.3829C312.653 25.7675 316.954 21.8662 324.805 15.8999Z" fill="#6CD945"/>
<ellipse cx="314.227" cy="21.1502" rx="1.16664" ry="3.07413" transform="rotate(2.42226 314.227 21.1502)" fill="#6CD945"/>
<ellipse cx="316.336" cy="17.2834" rx="1.55551" ry="3.5133" transform="rotate(2.42226 316.336 17.2834)" fill="#6CD945"/>
<ellipse cx="318.316" cy="16.4879" rx="1.16664" ry="3.5133" transform="rotate(2.42226 318.316 16.4879)" fill="#6CD945"/>
<ellipse cx="320.352" cy="14.3765" rx="1.55551" ry="3.95246" transform="rotate(2.42226 320.352 14.3765)" fill="#6CD945"/>
<ellipse cx="321.999" cy="12.2483" rx="1.55551" ry="3.5133" transform="rotate(2.42226 321.999 12.2483)" fill="#6CD945"/>
<ellipse cx="1.4617" cy="3.69202" rx="1.4617" ry="3.69202" transform="matrix(0.868212 0.496193 -0.414348 0.910118 324.746 7.49219)" fill="#6CD945"/>
<ellipse cx="1.59465" cy="3.37916" rx="1.59465" ry="3.37916" transform="matrix(0.246982 0.96902 -0.948095 0.317986 328.145 10.8643)" fill="#6CD945"/>
<ellipse cx="1.61197" cy="2.8263" rx="1.61197" ry="2.8263" transform="matrix(-0.100193 0.994968 -0.993244 -0.11604 319.531 22.7554)" fill="#6CD945"/>
<ellipse cx="1.61197" cy="2.8263" rx="1.61197" ry="2.8263" transform="matrix(-0.100193 0.994968 -0.993244 -0.11604 321.525 20.6875)" fill="#6CD945"/>
<ellipse cx="1.61197" cy="2.8263" rx="1.61197" ry="2.8263" transform="matrix(-0.100193 0.994968 -0.993244 -0.11604 323.518 18.6196)" fill="#6CD945"/>
<ellipse cx="1.61197" cy="2.8263" rx="1.61197" ry="2.8263" transform="matrix(-0.100193 0.994968 -0.993244 -0.11604 325.511 16.5518)" fill="#6CD945"/>
<ellipse cx="1.61197" cy="2.8263" rx="1.61197" ry="2.8263" transform="matrix(-0.100193 0.994968 -0.993244 -0.11604 327.504 14.4839)" fill="#6CD945"/>
<rect x="300.892" y="34.7883" width="2.25658" height="2.87589" transform="rotate(-62.515 300.892 34.7883)" fill="#6CD945"/>
<path d="M263.208 100.477C262.797 101.518 264.144 102.345 264.886 101.508L291.09 71.9646L308.206 49.1985C310.834 45.7032 311.153 40.9872 309.021 37.1695L308.789 36.7534C306.924 33.4148 303.358 31.3896 299.535 31.4984C295.716 31.6071 292.272 33.8287 290.599 37.2643L277.698 63.7553L263.208 100.477Z" fill="#F2B04F"/>
<path d="M287.126 47.5359C288.688 48.7757 289.598 49.1547 291.243 49.386" stroke="#F2C756" stroke-linecap="round"/>
<path d="M284.756 52.1658C286.317 53.4056 287.228 53.7845 288.873 54.0158" stroke="#F2C756" stroke-linecap="round"/>
<path d="M286.034 49.7124C287.455 50.9932 288.273 51.3993 289.735 51.684" stroke="#F2C756" stroke-linecap="round"/>
<path fill-rule="evenodd" clip-rule="evenodd" d="M392 202V115.426C381.478 119.024 368.578 118.83 353.371 114.969C337.73 110.998 324.828 111.034 314.586 114.935C303.822 119.034 290.465 118.998 274.596 114.969C258.955 110.998 246.053 111.034 235.81 114.935C225.046 119.034 211.69 118.998 195.821 114.969C180.18 110.998 167.278 111.034 157.035 114.935C146.271 119.034 132.915 118.998 117.046 114.969C101.405 110.998 88.5028 111.034 78.2602 114.935C67.4961 119.034 54.14 118.998 38.2707 114.969C22.9583 111.082 10.2707 111.034 0.133789 114.694V202H392Z" fill="#A5CF6E"/>
<path fill-rule="evenodd" clip-rule="evenodd" d="M350.611 135.235C366.913 139.44 380.733 139.647 392 135.727V230.089H-28V134.93C-17.1237 130.946 -3.51962 131.003 12.8882 135.235C29.8904 139.62 44.1927 139.657 55.7142 135.199C66.7076 130.946 80.5488 130.909 97.319 135.235C114.321 139.62 128.623 139.657 140.145 135.199C151.138 130.946 164.98 130.909 181.75 135.235C198.752 139.62 213.054 139.657 224.576 135.199C235.569 130.946 249.41 130.909 266.181 135.235C283.183 139.62 297.485 139.657 309.007 135.199C320 130.946 333.841 130.909 350.611 135.235Z" fill="#ADDA73"/>
<rect y="230" width="390" height="57" fill="#ADDA73"/>
</svg>
