<svg width="200" height="117" viewBox="0 0 200 117" fill="none" xmlns="http://www.w3.org/2000/svg">
<path d="M41 117L28 117L28 6.5C28 2.91015 30.9102 -8.82083e-07 34.5 -5.68249e-07C38.0899 -2.54414e-07 41 2.91015 41 6.50001L41 117Z" fill="#70604D"/>
<path d="M172 117L159 117L159 6.5C159 2.91015 161.91 -8.82083e-07 165.5 -5.68249e-07C169.09 -2.54414e-07 172 2.91015 172 6.50001L172 117Z" fill="#70604D"/>
<path d="M0 18C0 15.2386 2.23858 13 5 13H194.111C196.873 13 199.111 15.2386 199.111 18V55.0741L193.185 59.2222H199.111V72C199.111 74.7614 196.873 77 194.111 77H4.99999C2.23857 77 0 74.7614 0 72V28.4074H4.74074L0 23.0741V18Z" fill="#917A5F"/>
<line x1="6.63476e-08" y1="66.7686" x2="199.111" y2="66.7686" stroke="#AF977F" stroke-width="1.5"/>
<line x1="4.42318e-08" y1="22.537" x2="199.111" y2="22.537" stroke="#AF977F"/>
<line x1="4.42318e-08" y1="62.2778" x2="199.111" y2="62.2779" stroke="#AF977F"/>
<path d="M64 52.7037C64 56.9583 54.1835 60.4074 42.0741 60.4074C29.9648 60.4074 20.1482 56.9583 20.1482 52.7037C20.1482 48.4491 29.9648 45 42.0741 45C54.1835 45 64 48.4491 64 52.7037ZM25.208 52.7037C25.208 56.507 31.2493 59.5902 42.0741 59.5902C52.899 59.5902 60.2052 56.507 60.2052 52.7037C60.2052 48.9004 52.899 45.8172 42.0741 45.8172C31.2493 45.8172 25.208 48.9004 25.208 52.7037Z" fill="#AF977F"/>
<path d="M73.4815 52.7037C73.4815 58.2675 57.0321 62.7778 36.7407 62.7778C16.4494 62.7778 0 58.2675 0 52.7037C0 47.14 16.4494 42.6296 36.7407 42.6296C57.0321 42.6296 73.4815 47.14 73.4815 52.7037ZM8.47863 52.7037C8.47863 57.6773 18.6018 61.7092 36.7407 61.7092C54.8797 61.7092 67.1225 57.6773 67.1225 52.7037C67.1225 47.7301 54.8797 43.6982 36.7407 43.6982C18.6018 43.6982 8.47863 47.7301 8.47863 52.7037Z" fill="#AF977F"/>
<path d="M174.896 57.7823C175.717 58.5277 176.208 58.7704 177.11 58.9558M173.428 60.2846C174.249 61.03 174.74 61.2727 175.642 61.4581M174.218 58.9594C174.96 59.7228 175.399 59.9774 176.198 60.1864M191.838 39.6896L191.076 39.1096L185.664 48.0963C185.49 48.9987 185.565 49.2586 186.425 48.6764L191.838 39.6896ZM188.49 43.5244C188.642 44.397 188.493 45.1526 188.158 45.2121C187.823 45.2716 187.428 44.6124 187.276 43.7398C187.124 42.8672 187.272 42.1117 187.607 42.0522C187.943 41.9927 188.338 42.6518 188.49 43.5244ZM189.349 41.2776C189.523 42.2749 189.302 43.1476 188.855 43.2269C188.408 43.3062 187.905 42.5621 187.731 41.5649C187.557 40.5676 187.778 39.6949 188.225 39.6156C188.672 39.5363 189.175 40.2804 189.349 41.2776ZM190.08 40.6826C190.253 41.6798 190.123 42.5365 189.788 42.596C189.452 42.6555 189.04 41.8953 188.866 40.898C188.692 39.9008 188.823 39.0441 189.158 38.9846C189.493 38.9252 189.906 39.6854 190.08 40.6826ZM191.096 39.3386C191.292 40.4605 191.088 41.4343 190.642 41.5136C190.195 41.5929 189.674 40.7478 189.478 39.6259C189.283 38.504 189.486 37.5302 189.933 37.4509C190.38 37.3716 190.901 38.2167 191.096 39.3386ZM191.709 38.0665C191.883 39.0637 191.661 39.9365 191.214 40.0158C190.768 40.0951 190.264 39.351 190.091 38.3537C189.917 37.3565 190.138 36.4838 190.585 36.4044C191.032 36.3251 191.535 37.0693 191.709 38.0665ZM192.843 37.8099C192.614 38.8519 192.1 39.5958 191.693 39.4716C191.287 39.3473 191.143 38.4019 191.372 37.3599C191.601 36.318 192.116 35.574 192.522 35.6983C192.929 35.8225 193.072 36.7679 192.843 37.8099ZM193.134 39.2022C192.287 39.7062 191.433 39.7824 191.226 39.3723C191.018 38.9622 191.536 38.2211 192.383 37.717C193.23 37.213 194.084 37.1368 194.292 37.5469C194.499 37.957 193.981 38.6981 193.134 39.2022ZM189.505 45.6698C188.685 45.7542 187.977 45.4484 187.924 44.9869C187.872 44.5253 188.494 44.0828 189.314 43.9984C190.134 43.914 190.841 44.2198 190.894 44.6813C190.947 45.1429 190.325 45.5854 189.505 45.6698ZM190.302 44.3889C189.482 44.4732 188.775 44.1675 188.722 43.7059C188.669 43.2444 189.291 42.8018 190.111 42.7174C190.931 42.633 191.639 42.9388 191.692 43.4004C191.745 43.8619 191.123 44.3045 190.302 44.3889ZM191.1 43.108C190.28 43.1923 189.573 42.8866 189.52 42.425C189.467 41.9635 190.089 41.5209 190.909 41.4365C191.729 41.3521 192.437 41.6579 192.489 42.1195C192.542 42.581 191.92 43.0236 191.1 43.108ZM191.898 41.827C191.078 41.9114 190.37 41.6056 190.318 41.1441C190.265 40.6825 190.887 40.24 191.707 40.1556C192.527 40.0712 193.234 40.3769 193.287 40.8385C193.34 41.3001 192.718 41.7426 191.898 41.827ZM192.696 40.5461C191.876 40.6304 191.168 40.3247 191.115 39.8631C191.063 39.4016 191.685 38.959 192.505 38.8746C193.325 38.7902 194.032 39.096 194.085 39.5576C194.138 40.0191 193.516 40.4617 192.696 40.5461ZM190.23 38.6197L187.907 37.6628C186.367 43.1942 185.417 46.2288 182.676 50.8453C183.038 52.2042 183.439 52.6076 185 51.8022C186.289 45.6176 187.602 42.9625 190.23 38.6197ZM186.708 43.018C187.013 43.7738 187.001 44.4926 186.682 44.6234C186.363 44.7542 185.858 44.2476 185.553 43.4917C185.249 42.7359 185.26 42.0172 185.579 41.8863C185.898 41.7555 186.403 42.2622 186.708 43.018ZM187.154 40.7847C187.502 41.6484 187.439 42.4901 187.014 42.6645C186.589 42.839 185.962 42.2801 185.614 41.4163C185.266 40.5525 185.329 39.7109 185.754 39.5365C186.179 39.362 186.806 39.9209 187.154 40.7847ZM187.766 40.0778C188.114 40.9416 188.138 41.7479 187.819 41.8787C187.5 42.0096 186.959 41.4154 186.611 40.5516C186.263 39.6878 186.24 38.8815 186.558 38.7507C186.877 38.6198 187.418 39.214 187.766 40.0778ZM188.527 38.6265C188.919 39.5983 188.891 40.5275 188.466 40.7019C188.041 40.8763 187.379 40.23 186.987 39.2582C186.596 38.2864 186.623 37.3573 187.048 37.1828C187.473 37.0084 188.136 37.6548 188.527 38.6265ZM188.903 37.3332C189.251 38.197 189.189 39.0386 188.763 39.213C188.338 39.3875 187.711 38.8286 187.363 37.9648C187.015 37.1011 187.078 36.2594 187.503 36.085C187.928 35.9105 188.555 36.4694 188.903 37.3332ZM189.973 36.8402C189.933 37.837 189.559 38.6293 189.137 38.61C188.716 38.5906 188.407 37.7669 188.447 36.7701C188.487 35.7734 188.861 34.981 189.282 35.0003C189.704 35.0197 190.013 35.8434 189.973 36.8402ZM190.506 38.0351C189.763 38.6862 188.937 38.9514 188.66 38.6273C188.383 38.3033 188.761 37.5128 189.504 36.8617C190.247 36.2106 191.073 35.9455 191.35 36.2695C191.627 36.5935 191.249 37.384 190.506 38.0351ZM188.087 44.7291C187.296 44.9938 186.546 44.8791 186.412 44.473C186.278 44.0668 186.811 43.523 187.602 43.2583C188.394 42.9937 189.143 43.1084 189.277 43.5145C189.411 43.9207 188.878 44.4645 188.087 44.7291ZM188.644 43.3853C187.853 43.65 187.103 43.5353 186.969 43.1291C186.835 42.723 187.368 42.1792 188.159 41.9145C188.95 41.6498 189.7 41.7645 189.834 42.1706C189.968 42.5768 189.435 43.1206 188.644 43.3853ZM189.2 42.0414C188.409 42.3061 187.659 42.1914 187.526 41.7852C187.392 41.3791 187.925 40.8353 188.716 40.5706C189.507 40.3059 190.257 40.4206 190.391 40.8268C190.524 41.2329 189.992 41.7767 189.2 42.0414ZM189.757 40.6975C188.966 40.9622 188.216 40.8475 188.082 40.4414C187.948 40.0352 188.481 39.4914 189.272 39.2267C190.063 38.9621 190.813 39.0767 190.947 39.4829C191.081 39.889 190.548 40.4329 189.757 40.6975ZM190.314 39.3536C189.523 39.6183 188.773 39.5036 188.639 39.0975C188.505 38.6913 189.038 38.1475 189.829 37.8828C190.62 37.6181 191.37 37.7328 191.504 38.139C191.638 38.5451 191.105 39.0889 190.314 39.3536ZM196.809 41.4195L195.168 39.1776C191.026 44.0521 188.657 46.6691 183.874 49.9511C183.53 51.5482 183.695 52.181 185.515 52.193C189.753 46.5095 192.264 44.4799 196.809 41.4195ZM191.423 44.0543C191.326 44.9984 190.959 45.7336 190.604 45.6963C190.249 45.6591 190.04 44.8635 190.137 43.9194C190.234 42.9753 190.601 42.2401 190.956 42.2774C191.311 42.3146 191.52 43.1102 191.423 44.0543ZM192.936 41.9913C192.824 43.0703 192.35 43.9047 191.877 43.8551C191.403 43.8054 191.11 42.8904 191.221 41.8114C191.332 40.7324 191.806 39.898 192.28 39.9476C192.753 39.9973 193.047 40.9123 192.936 41.9913ZM193.843 41.5928C193.732 42.6718 193.354 43.5163 192.999 43.4791C192.644 43.4418 192.446 42.5369 192.557 41.4579C192.668 40.3789 193.046 39.5344 193.402 39.5717C193.757 39.6089 193.954 40.5138 193.843 41.5928ZM195.255 40.5067C195.13 41.7206 194.645 42.6644 194.171 42.6147C193.698 42.565 193.415 41.5407 193.54 40.3268C193.666 39.1129 194.151 38.1692 194.624 38.2188C195.098 38.2685 195.38 39.2928 195.255 40.5067ZM196.238 39.3756C196.127 40.4546 195.653 41.289 195.179 41.2394C194.706 41.1897 194.412 40.2747 194.524 39.1957C194.635 38.1167 195.109 37.2823 195.582 37.3319C196.056 37.3816 196.349 38.2966 196.238 39.3756ZM197.456 39.4448C196.926 40.4515 196.193 41.0668 195.819 40.8193C195.445 40.5717 195.571 39.555 196.102 38.5484C196.632 37.5417 197.365 36.9264 197.739 37.1739C198.113 37.4215 197.986 38.4382 197.456 39.4448ZM197.349 40.9654C196.351 41.2359 195.467 41.0631 195.376 40.5794C195.284 40.0957 196.02 39.4843 197.019 39.2138C198.017 38.9432 198.901 39.116 198.992 39.5997C199.084 40.0834 198.348 40.6948 197.349 40.9654ZM191.83 46.5641C190.979 46.4099 190.353 45.8867 190.433 45.3954C190.512 44.9042 191.267 44.631 192.118 44.7852C192.969 44.9394 193.595 45.4627 193.516 45.9539C193.436 46.4451 192.682 46.7184 191.83 46.5641ZM193.003 45.4785C192.152 45.3243 191.526 44.8011 191.605 44.3098C191.685 43.8186 192.439 43.5454 193.291 43.6996C194.142 43.8538 194.768 44.377 194.688 44.8683C194.609 45.3595 193.854 45.6328 193.003 45.4785ZM194.176 44.3929C193.324 44.2387 192.699 43.7154 192.778 43.2242C192.858 42.7329 193.612 42.4597 194.463 42.6139C195.315 42.7681 195.94 43.2914 195.861 43.7826C195.781 44.2739 195.027 44.5471 194.176 44.3929ZM195.348 43.3072C194.497 43.153 193.871 42.6298 193.951 42.1385C194.03 41.6473 194.785 41.374 195.636 41.5283C196.487 41.6825 197.113 42.2057 197.034 42.697C196.954 43.1882 196.2 43.4614 195.348 43.3072ZM196.521 42.2216C195.67 42.0674 195.044 41.5441 195.123 41.0529C195.203 40.5617 195.957 40.2884 196.809 40.4427C197.66 40.5969 198.286 41.1201 198.206 41.6114C198.127 42.1026 197.372 42.3758 196.521 42.2216ZM182.942 51.1405L183.586 50.0591L184.952 50.8872L184.308 51.9686L182.942 51.1405ZM169.13 66.5102L177.165 52.1694C178.208 50.3096 180.187 49.1878 182.303 49.2581C184.421 49.3284 186.325 50.5808 187.243 52.5077L187.357 52.7479C188.407 54.9514 188.07 57.5722 186.498 59.4326L176.258 71.5503L175.062 72.7534C171.798 76.0372 166.467 72.2614 168.418 68.0478L169.13 66.5102Z" stroke="#F5F5F5" stroke-linecap="round"/>
</svg>
