<svg width="335" height="117" viewBox="0 0 335 117" fill="none" xmlns="http://www.w3.org/2000/svg">
<path d="M75.152 62.328C75.088 62.648 75.024 62.968 74.96 63.288C74.96 63.608 74.96 63.896 74.96 64.152V66.072C75.024 66.84 74.96 67.64 74.768 68.472C74.64 69.24 74.256 70.136 73.616 71.16C73.232 71.736 72.496 72.568 71.408 73.656C71.088 73.976 70.608 74.072 69.968 73.944C69.776 73.88 69.552 73.816 69.296 73.752C69.104 73.688 68.944 73.624 68.816 73.56C68.432 73.56 68.176 73.592 68.048 73.656C67.536 73.848 67.024 73.976 66.512 74.04C66 74.104 65.488 74.104 64.976 74.04C63.696 73.592 62.768 72.824 62.192 71.736C62.128 71.544 62.064 71.352 62 71.16C61.936 70.968 61.968 70.776 62.096 70.584C62.16 70.264 62.192 70.008 62.192 69.816C62.256 69.56 62.256 69.304 62.192 69.048C61.808 67.576 61.616 66.104 61.616 64.632C61.68 63.16 61.776 61.656 61.904 60.12C62.928 59.032 63.824 57.912 64.592 56.76C64.976 56.568 65.424 56.408 65.936 56.28C66.512 56.088 67.056 55.928 67.568 55.8C68.08 55.8 68.624 55.832 69.2 55.896C69.776 55.896 70.384 55.928 71.024 55.992C71.536 56.248 72.016 56.504 72.464 56.76C72.976 57.016 73.488 57.24 74 57.432C74.704 57.752 74.992 58.296 74.864 59.064C74.8 59.384 74.704 59.736 74.576 60.12C74.448 60.44 74.352 60.792 74.288 61.176C74.352 61.304 74.448 61.432 74.576 61.56C74.704 61.624 74.8 61.72 74.864 61.848C74.928 62.04 75.024 62.2 75.152 62.328ZM59.216 71.16C58.896 71.992 58.448 72.568 57.872 72.888C56.656 73.528 55.44 73.976 54.224 74.232C53.84 74.296 53.424 74.232 52.976 74.04C52.784 73.912 52.592 73.784 52.4 73.656C52.208 73.464 51.984 73.24 51.728 72.984C51.152 72.856 50.544 72.76 49.904 72.696C49.328 72.568 48.784 72.472 48.272 72.408C48.208 72.28 48.112 72.184 47.984 72.12C47.856 72.056 47.792 71.992 47.792 71.928C47.6 71.352 47.376 70.808 47.12 70.296C46.864 69.72 46.608 69.144 46.352 68.568C46.48 68.056 46.608 67.608 46.736 67.224C46.864 66.776 46.832 66.328 46.64 65.88V63.864C46.768 63.608 46.864 63.416 46.928 63.288C47.056 63.096 47.152 62.904 47.216 62.712C47.152 62.264 46.992 61.88 46.736 61.56C46.48 61.176 46.448 60.728 46.64 60.216C46.768 59.896 46.928 59.576 47.12 59.256C47.376 58.872 47.6 58.488 47.792 58.104C48.368 57.784 48.912 57.56 49.424 57.432C49.936 57.24 50.512 57.208 51.152 57.336C51.344 57.4 51.728 57.368 52.304 57.24C52.88 57.176 53.424 57.176 53.936 57.24C54.512 57.304 55.056 57.56 55.568 58.008C55.824 58.264 56.144 58.424 56.528 58.488C56.912 58.552 57.296 58.648 57.68 58.776C57.808 59.032 57.968 59.288 58.16 59.544C58.416 59.736 58.64 59.96 58.832 60.216C58.768 61.24 58.736 61.944 58.736 62.328C58.736 62.648 58.864 63.32 59.12 64.344C59.056 64.792 58.96 65.24 58.832 65.688C58.768 66.072 58.672 66.52 58.544 67.032C58.672 67.608 58.768 68.184 58.832 68.76C58.96 69.336 59.088 69.976 59.216 70.68V71.16ZM70.256 98.328C70.064 98.776 69.776 99.128 69.392 99.384C69.072 99.576 68.784 99.832 68.528 100.152C68.272 100.472 68.016 100.792 67.76 101.112C67.504 101.432 67.216 101.752 66.896 102.072C66.704 102.392 66.512 102.744 66.32 103.128C66.128 103.448 65.968 103.768 65.84 104.088C65.456 104.536 65.072 104.952 64.688 105.336C64.368 105.72 64.048 106.072 63.728 106.392C63.408 106.712 63.088 107 62.768 107.256C62.448 107.448 62.096 107.576 61.712 107.64C61.456 107.512 61.232 107.384 61.04 107.256C60.848 107.128 60.592 107 60.272 106.872C59.888 106.936 59.504 107 59.12 107.064C58.736 107.128 58.384 107.192 58.064 107.256C57.68 107 57.456 106.84 57.392 106.776C57.008 106.008 56.528 105.368 55.952 104.856C55.376 104.344 54.704 103.864 53.936 103.416C53.04 102.968 52.24 102.296 51.536 101.4C51.344 101.08 51.056 100.824 50.672 100.632C50.608 100.568 50.48 100.472 50.288 100.344C50.096 100.152 50 100.056 50 100.056L49.424 99.672L49.232 99.384C48.4 98.488 47.568 97.72 46.736 97.08C45.904 96.376 45.04 95.544 44.144 94.584C44.016 94.264 43.792 93.912 43.472 93.528C43.216 93.08 42.896 92.632 42.512 92.184C42.192 91.736 41.84 91.32 41.456 90.936C41.008 90.552 40.56 90.232 40.112 89.976C39.728 89.72 39.248 89.592 38.672 89.592C38.16 89.656 37.648 89.592 37.136 89.4C36.688 89.208 36.24 88.984 35.792 88.728C35.472 88.536 35.152 88.376 34.832 88.248C34.512 88.056 34.256 87.832 34.064 87.576C33.488 87.064 32.88 86.648 32.24 86.328C31.6 86.008 30.928 85.72 30.224 85.464C29.328 85.784 28.688 86.072 28.304 86.328C27.92 86.584 27.472 87 26.96 87.576C26.704 87.832 26.416 88.088 26.096 88.344C25.776 88.6 25.616 88.984 25.616 89.496C25.616 89.56 25.52 89.688 25.328 89.88C24.624 90.328 24.048 90.872 23.6 91.512C23.216 92.152 22.864 92.92 22.544 93.816C21.84 94.392 21.36 94.744 21.104 94.872C20.912 94.936 20.72 95.032 20.528 95.16C20.4 95.288 20.08 95.736 19.568 96.504C19.312 96.824 19.056 97.144 18.8 97.464C18.608 97.784 18.352 98.104 18.032 98.424C17.712 98.68 17.36 98.936 16.976 99.192C16.656 99.384 16.336 99.64 16.016 99.96C15.696 99.896 15.344 99.832 14.96 99.768C14.576 99.704 14.224 99.672 13.904 99.672C13.648 99.672 13.36 99.736 13.04 99.864C12.784 99.928 12.528 99.96 12.272 99.96C11.824 99.832 11.44 99.64 11.12 99.384C10.864 99.128 10.576 98.872 10.256 98.616C10 97.912 9.648 97.272 9.2 96.696C8.752 96.12 8.368 95.48 8.048 94.776C7.792 94.072 7.44 93.464 6.992 92.952C6.608 92.376 6.224 91.768 5.84 91.128C5.968 90.616 6.064 90.104 6.128 89.592C6.256 89.016 6.352 88.504 6.416 88.056C6.544 87.928 6.672 87.928 6.8 88.056C6.928 88.12 7.024 88.184 7.088 88.248C7.216 88.312 7.344 88.312 7.472 88.248C7.664 88.184 7.76 88.12 7.76 88.056V86.712C8.208 86.264 8.432 86.072 8.432 86.136C8.496 86.136 8.528 86.168 8.528 86.232C8.592 86.232 8.848 85.976 9.296 85.464C10 85.144 10.928 84.6 12.08 83.832C12.528 83.192 13.04 82.648 13.616 82.2C14.256 81.752 14.768 81.208 15.152 80.568C15.472 79.864 15.792 79.192 16.112 78.552C16.496 77.912 16.88 77.24 17.264 76.536C17.456 76.408 17.68 76.248 17.936 76.056C18.256 75.8 18.576 75.608 18.896 75.48C19.152 75.16 19.312 74.84 19.376 74.52C19.504 74.136 19.6 73.784 19.664 73.464C19.728 73.4 19.792 73.336 19.856 73.272C19.92 73.144 20.016 73.048 20.144 72.984C20.272 72.92 20.432 72.856 20.624 72.792C20.816 72.664 20.944 72.472 21.008 72.216C21.136 72.088 21.2 71.928 21.2 71.736C21.264 71.48 21.328 71.288 21.392 71.16C21.52 70.84 21.648 70.552 21.776 70.296C21.968 70.04 22.192 69.88 22.448 69.816C22.704 69.688 22.928 69.656 23.12 69.72C23.376 69.784 23.6 69.816 23.792 69.816C24.304 69.944 24.816 69.848 25.328 69.528C25.648 69.272 25.968 69.048 26.288 68.856C26.608 68.6 26.928 68.344 27.248 68.088C27.504 67.96 27.696 67.832 27.824 67.704C28.016 67.512 28.24 67.384 28.496 67.32C29.264 66.744 29.904 66.84 30.416 67.608C30.608 67.8 30.768 68.024 30.896 68.28C31.856 68.536 32.752 68.76 33.584 68.952C34.416 69.08 35.248 69.208 36.08 69.336C36.208 69.528 36.272 69.656 36.272 69.72C36.272 69.784 36.304 69.88 36.368 70.008C36.496 70.264 36.656 70.36 36.848 70.296C37.104 70.168 37.328 70.168 37.52 70.296C38.032 70.424 38.384 70.552 38.576 70.68C38.832 71 39.12 71.288 39.44 71.544C39.824 71.8 40.176 72.024 40.496 72.216C40.816 72.472 41.136 72.696 41.456 72.888C41.776 73.016 42.096 73.176 42.416 73.368C42.736 73.56 43.056 74.008 43.376 74.712C44.848 75.544 46.32 76.696 47.792 78.168C47.984 78.36 48.208 78.552 48.464 78.744C48.72 78.936 48.944 79.128 49.136 79.32C49.52 79.64 49.904 79.992 50.288 80.376C50.736 80.696 51.088 81.08 51.344 81.528C51.472 81.784 51.6 82.008 51.728 82.2C51.92 82.392 52.112 82.584 52.304 82.776C52.816 83.16 53.328 83.576 53.84 84.024C54.352 84.472 54.832 84.888 55.28 85.272C55.92 85.72 56.528 86.168 57.104 86.616C57.68 87 58.224 87.448 58.736 87.96C59.12 88.664 59.664 89.208 60.368 89.592C61.072 89.912 61.744 90.232 62.384 90.552C63.6 91.128 64.656 91.768 65.552 92.472C65.936 92.856 66.384 93.208 66.896 93.528C67.408 93.784 67.888 94.072 68.336 94.392C68.912 94.776 69.104 95.32 68.912 96.024C68.912 96.024 68.912 96.12 68.912 96.312C68.976 96.568 69.136 96.76 69.392 96.888C69.648 96.952 69.84 97.048 69.968 97.176C70.16 97.368 70.256 97.56 70.256 97.752C70.256 97.944 70.256 98.136 70.256 98.328ZM131.173 51.192C131.429 52.024 131.429 52.888 131.173 53.784C130.917 54.616 130.885 55.48 131.077 56.376C130.949 57.208 130.917 58.04 130.981 58.872C131.109 59.704 131.109 60.568 130.981 61.464C130.853 61.784 130.661 62.168 130.405 62.616C130.213 63 130.053 63.384 129.925 63.768C129.797 63.832 129.701 63.896 129.637 63.96C129.573 63.96 129.477 63.992 129.349 64.056C128.773 64.184 128.197 64.28 127.621 64.344C127.045 64.408 126.469 64.44 125.893 64.44C125.125 64.376 124.357 64.376 123.589 64.44C122.885 64.504 122.117 64.6 121.285 64.728C120.645 64.408 120.069 64.12 119.557 63.864C119.045 63.608 118.533 63.416 118.021 63.288C117.829 62.84 117.733 62.424 117.733 62.04C117.733 61.592 117.733 61.176 117.733 60.792C117.797 60.408 117.829 60.024 117.829 59.64C117.893 59.256 118.021 58.936 118.213 58.68C118.469 57.976 118.629 57.304 118.693 56.664C118.821 55.96 118.917 55.288 118.981 54.648C119.045 54.072 119.141 53.496 119.269 52.92C119.397 52.344 119.397 51.8 119.269 51.288C119.653 50.584 120.069 50.2 120.517 50.136C121.029 50.136 121.573 50.136 122.149 50.136C122.725 50.136 123.269 50.232 123.781 50.424C125.253 50.872 126.821 50.808 128.485 50.232C128.549 50.168 128.613 50.136 128.677 50.136C128.805 50.136 128.901 50.104 128.965 50.04C129.477 50.104 129.861 50.264 130.117 50.52C130.437 50.712 130.789 50.936 131.173 51.192ZM115.525 59.352C115.141 60.056 114.885 60.568 114.757 60.888C114.693 61.144 114.533 61.752 114.277 62.712C114.149 62.776 113.957 62.84 113.701 62.904C113.509 62.968 113.317 63.032 113.125 63.096C113.125 63.736 113.093 64.216 113.029 64.536C112.965 64.6 112.901 64.664 112.837 64.728C112.837 64.728 112.805 64.76 112.741 64.824C112.293 64.952 111.845 65.08 111.397 65.208C110.949 65.336 110.565 65.464 110.245 65.592C109.797 65.656 109.445 65.624 109.189 65.496C108.933 65.304 108.741 65.112 108.613 64.92C108.485 64.984 108.357 65.048 108.229 65.112C108.165 65.112 108.069 65.144 107.941 65.208C107.173 65.784 106.341 65.816 105.445 65.304C105.381 64.984 105.285 64.632 105.157 64.248C105.029 63.8 104.869 63.416 104.677 63.096C104.613 62.712 104.389 62.392 104.005 62.136C103.749 61.496 103.717 60.888 103.909 60.312C104.101 59.736 104.197 59.128 104.197 58.488C103.749 57.4 103.525 56.248 103.525 55.032C103.525 53.816 103.557 52.6 103.621 51.384C103.621 51.256 103.653 51.16 103.717 51.096C103.781 51.032 103.845 50.968 103.909 50.904C104.549 51.224 105.221 51.448 105.925 51.576C106.629 51.704 107.333 51.64 108.037 51.384C108.357 51.256 108.677 51.16 108.997 51.096C109.317 51.032 109.605 50.968 109.861 50.904C110.181 50.776 110.469 50.68 110.725 50.616C110.981 50.552 111.205 50.488 111.397 50.424C111.717 50.296 112.005 50.232 112.261 50.232C112.581 50.232 112.901 50.2 113.221 50.136C113.861 50.264 114.469 50.488 115.045 50.808C115.045 50.936 115.045 51.064 115.045 51.192C115.109 51.32 115.109 51.448 115.045 51.576C114.981 51.96 114.917 52.376 114.853 52.824C114.853 53.272 114.885 53.688 114.949 54.072C115.333 55.352 115.333 56.664 114.949 58.008C114.885 58.264 115.077 58.712 115.525 59.352ZM120.805 92.568L120.133 95.256C119.941 95.64 119.685 95.992 119.365 96.312C119.301 96.44 119.269 96.6 119.269 96.792C119.333 96.984 119.301 97.144 119.173 97.272C118.981 97.592 118.789 97.944 118.597 98.328C118.469 98.648 118.341 98.968 118.213 99.288C117.957 99.672 117.669 99.928 117.349 100.056C117.029 100.184 116.709 100.408 116.389 100.728C116.453 100.984 116.485 101.304 116.485 101.688V102.36C116.421 102.424 116.389 102.52 116.389 102.648C116.389 102.712 116.357 102.808 116.293 102.936C115.525 103.896 114.757 104.856 113.989 105.816C113.221 106.776 112.453 107.704 111.685 108.6C111.429 108.856 111.109 109.112 110.725 109.368C110.405 109.624 110.085 109.912 109.765 110.232C109.701 110.296 109.605 110.328 109.477 110.328C109.413 110.328 109.317 110.36 109.189 110.424C108.741 110.424 108.293 110.584 107.845 110.904C107.461 111.16 107.013 111.384 106.501 111.576C106.117 112.152 105.893 112.504 105.829 112.632C105.509 113.016 105.125 113.208 104.677 113.208C104.293 113.272 103.941 113.432 103.621 113.688C103.557 113.752 103.461 113.848 103.333 113.976C103.269 114.104 103.205 114.264 103.141 114.456C102.949 114.84 102.629 115.096 102.181 115.224C101.733 115.224 101.285 115.224 100.837 115.224C100.389 115.288 99.9093 115.288 99.3973 115.224C99.1413 115.224 98.8853 115.16 98.6293 115.032C98.4373 114.904 98.1813 114.808 97.8613 114.744C97.7973 114.808 97.7333 114.808 97.6693 114.744C97.6053 114.744 97.5093 114.776 97.3813 114.84C96.1653 115.416 94.9493 115.32 93.7333 114.552C93.2853 114.232 92.8053 113.912 92.2933 113.592C91.7813 113.336 91.2693 113.048 90.7573 112.728C90.6293 112.6 90.5013 112.408 90.3733 112.152C90.2453 111.96 90.1173 111.736 89.9893 111.48C89.6053 110.776 89.0613 110.328 88.3573 110.136C88.0373 110.008 87.7173 109.88 87.3973 109.752C87.1413 109.56 86.8533 109.432 86.5333 109.368C86.2773 109.048 85.9573 108.728 85.5733 108.408C85.2533 108.024 84.9333 107.64 84.6133 107.256C84.4213 107 84.2613 106.776 84.1333 106.584C84.0053 106.392 83.8773 106.168 83.7493 105.912C83.4933 105.272 83.2053 104.696 82.8853 104.184C82.5653 103.608 82.2133 103.096 81.8293 102.648C81.7013 102.328 81.5733 102.008 81.4453 101.688C81.3173 101.368 81.2213 101.048 81.1573 100.728C81.1573 99.896 81.0613 99.096 80.8693 98.328C80.6773 97.56 80.4853 96.792 80.2933 96.024C80.2293 95.704 80.1653 95.384 80.1013 95.064C80.1013 94.744 80.1013 94.424 80.1013 94.104C80.1653 93.592 80.1973 93.08 80.1973 92.568C80.1973 92.056 80.1973 91.576 80.1973 91.128C80.2613 91 80.3253 90.84 80.3893 90.648C80.5173 90.392 80.6453 90.2 80.7733 90.072C80.3893 89.048 80.1333 88.376 80.0053 88.056C79.9413 87.736 79.9093 87.096 79.9093 86.136C79.8453 85.176 79.8133 84.184 79.8133 83.16C79.8773 82.072 79.9093 80.984 79.9093 79.896C80.0373 79.64 80.1333 79.416 80.1973 79.224C80.3253 78.968 80.4853 78.744 80.6773 78.552V77.88C80.4853 77.112 80.4853 76.344 80.6773 75.576C80.8053 75.256 80.9013 74.904 80.9653 74.52C81.0293 74.136 80.9973 73.752 80.8693 73.368C80.7413 73.24 80.7413 73.016 80.8693 72.696C81.1253 72.184 81.2213 71.672 81.1573 71.16C81.1573 70.584 81.1893 70.04 81.2533 69.528C81.3813 69.144 81.3813 68.792 81.2533 68.472C81.1253 68.088 81.0933 67.704 81.1573 67.32C81.3493 66.936 81.4453 66.552 81.4453 66.168C81.4453 65.784 81.4453 65.368 81.4453 64.92C81.4453 64.792 81.4773 64.664 81.5413 64.536C81.6693 64.408 81.7653 64.248 81.8293 64.056C81.8293 63.736 81.7013 63.416 81.4453 63.096C81.2533 62.712 81.2533 62.328 81.4453 61.944C81.5733 61.688 81.7013 61.624 81.8293 61.752C82.0213 61.816 82.0853 61.784 82.0213 61.656C81.9573 61.528 81.9893 61.528 82.1172 61.656C82.3093 61.592 82.3413 61.4 82.2133 61.08C82.0213 60.696 81.9573 60.472 82.0213 60.408C82.1493 60.28 82.1173 59.992 81.9253 59.544C81.7333 58.648 81.7333 57.784 81.9253 56.952C82.1173 56.12 82.5973 55.416 83.3653 54.84C83.8773 54.712 84.3253 54.68 84.7093 54.744C85.0933 54.808 85.5093 54.744 85.9573 54.552C86.2773 54.424 86.5973 54.392 86.9173 54.456C87.3013 54.456 87.6853 54.456 88.0693 54.456C88.2613 54.456 88.4853 54.456 88.7413 54.456C89.0613 54.392 89.3493 54.424 89.6053 54.552C90.6293 54.936 91.7173 55.064 92.8693 54.936C93.1253 54.872 93.3493 54.872 93.5413 54.936C93.7333 54.936 93.9253 54.936 94.1173 54.936C94.6293 54.936 95.1413 54.936 95.6533 54.936C96.2293 54.872 96.7413 54.712 97.1893 54.456C97.6373 54.392 97.9573 54.616 98.1493 55.128V57.528C97.8933 58.168 97.5733 58.808 97.1893 59.448C97.2533 59.704 97.2853 59.928 97.2853 60.12C97.2853 60.248 97.3173 60.472 97.3813 60.792L96.9013 62.904C96.7093 63.416 96.7093 63.96 96.9013 64.536C97.0293 64.92 97.0293 65.368 96.9013 65.88C96.6453 66.328 96.4853 66.84 96.4213 67.416C96.4213 67.992 96.4213 68.536 96.4213 69.048C96.4213 69.688 96.3893 70.296 96.3253 70.872C96.2613 71.384 96.1333 71.96 95.9413 72.6C95.8133 73.368 95.7493 74.168 95.7493 75C95.7493 75.832 95.7813 76.632 95.8453 77.4C95.9093 77.592 95.9733 77.784 96.0373 77.976C96.1013 78.104 96.1333 78.264 96.1333 78.456C96.3253 79.416 96.3893 80.184 96.3253 80.76C96.3253 81.272 96.1973 82.104 95.9413 83.256C96.1333 84.28 96.2293 85.24 96.2293 86.136C96.2933 86.392 96.2933 86.68 96.2293 87C96.2293 87.256 96.2293 87.544 96.2293 87.864C96.1653 88.12 96.0693 88.376 95.9413 88.632C95.8773 88.888 95.8453 89.176 95.8453 89.496C95.7813 89.816 95.7493 90.2 95.7493 90.648C95.8133 91.032 95.8453 91.48 95.8453 91.992C95.9093 92.248 96.0053 92.568 96.1333 92.952C96.2613 93.272 96.3573 93.592 96.4213 93.912C96.8053 94.36 97.1573 94.808 97.4773 95.256C97.8613 95.704 98.3413 96.056 98.9173 96.312C99.3013 96.312 99.6213 96.28 99.8773 96.216C100.773 95.704 101.637 95.64 102.469 96.024C102.725 96.088 102.917 96.152 103.045 96.216C103.237 96.216 103.461 96.248 103.717 96.312C104.165 96.312 104.453 96.248 104.581 96.12C104.965 95.928 105.317 95.736 105.637 95.544C105.957 95.288 106.245 94.968 106.501 94.584C106.565 94.2 106.789 93.976 107.173 93.912C107.813 93.656 108.229 93.208 108.421 92.568C108.421 92.248 108.549 91.96 108.805 91.704C109.445 91.192 109.893 90.616 110.149 89.976C110.469 89.272 110.757 88.568 111.013 87.864C111.141 87.352 111.397 86.968 111.781 86.712C111.973 86.776 112.197 86.84 112.453 86.904C112.709 86.968 112.965 86.968 113.221 86.904C114.245 86.712 115.077 86.936 115.717 87.576C116.037 87.832 116.357 88.056 116.677 88.248C116.997 88.44 117.317 88.6 117.637 88.728C118.597 89.176 119.589 89.752 120.613 90.456C120.677 90.84 120.709 91.192 120.709 91.512C120.709 91.832 120.741 92.184 120.805 92.568ZM180.308 57.816C180.372 58.2 180.34 58.52 180.212 58.776C180.148 58.968 180.052 59.192 179.924 59.448C179.668 59.96 179.54 60.536 179.54 61.176C179.54 61.816 179.316 62.264 178.868 62.52C178.868 62.904 178.676 63.352 178.292 63.864C178.036 64.248 177.812 64.664 177.62 65.112C177.428 65.56 177.268 66.04 177.14 66.552C176.116 67.192 175.412 67.576 175.028 67.704C174.708 67.832 174.004 67.96 172.916 68.088C172.724 68.024 172.532 67.96 172.34 67.896C172.148 67.768 171.924 67.672 171.668 67.608C171.604 67.608 171.508 67.64 171.38 67.704C171.252 67.704 171.092 67.736 170.9 67.8C170.836 67.864 170.708 67.928 170.516 67.992C170.388 68.056 170.26 68.12 170.132 68.184C169.684 68.056 169.268 67.96 168.884 67.896C168.5 67.768 168.116 67.672 167.732 67.608C166.9 67.48 166.26 67.768 165.812 68.472C165.812 68.792 165.812 69.144 165.812 69.528C165.812 69.848 165.78 70.168 165.716 70.488C165.652 70.808 165.588 71.128 165.524 71.448C165.524 71.768 165.524 72.088 165.524 72.408C165.46 72.664 165.364 72.984 165.236 73.368C165.172 73.688 165.14 74.04 165.14 74.424C165.14 74.744 165.14 75.096 165.14 75.48C165.204 75.8 165.268 76.152 165.332 76.536C164.948 76.984 164.564 77.432 164.18 77.88C163.86 78.328 163.54 78.776 163.22 79.224C163.028 79.416 162.932 79.608 162.932 79.8C162.74 81.08 162.484 82.392 162.164 83.736C161.908 85.08 161.652 86.392 161.396 87.672C161.332 88.44 160.98 89.144 160.34 89.784C160.084 89.976 159.892 90.168 159.764 90.36C159.636 90.552 159.412 90.712 159.092 90.84C158.772 90.84 158.516 90.744 158.324 90.552C158.132 90.296 157.876 90.136 157.556 90.072C157.3 89.944 157.044 89.944 156.788 90.072C156.596 90.136 156.372 90.2 156.116 90.264C154.9 89.944 154.068 89.784 153.62 89.784C153.236 89.72 152.5 89.848 151.412 90.168C151.156 90.104 150.964 89.944 150.836 89.688C150.708 89.432 150.516 89.24 150.26 89.112C150.068 88.984 149.94 88.792 149.876 88.536C149.812 88.28 149.62 88.12 149.3 88.056C149.044 88.184 148.82 88.344 148.628 88.536C148.436 88.728 148.18 88.888 147.86 89.016C147.668 89.016 147.476 89.048 147.284 89.112C147.092 89.112 146.9 89.112 146.708 89.112C146.58 88.856 146.452 88.632 146.324 88.44C146.196 88.184 146.036 87.928 145.844 87.672C145.908 87.352 145.94 87.032 145.94 86.712C145.94 86.392 145.94 86.008 145.94 85.56C146.004 84.92 146.1 84.248 146.228 83.544C146.356 82.84 146.58 82.168 146.9 81.528C147.028 81.208 147.092 80.728 147.092 80.088C147.028 79.576 147.06 79.096 147.188 78.648C147.38 78.136 147.604 77.688 147.86 77.304C147.604 76.536 147.54 75.8 147.668 75.096C147.86 74.392 148.02 73.688 148.148 72.984C147.956 72.472 147.572 72.216 146.996 72.216C146.868 72.216 146.708 72.248 146.516 72.312C146.388 72.312 146.228 72.344 146.036 72.408C144.692 72.728 143.316 72.792 141.908 72.6C141.652 72.536 141.396 72.536 141.14 72.6C140.884 72.6 140.66 72.6 140.468 72.6H138.548C138.356 72.6 138.068 72.536 137.684 72.408C137.62 72.216 137.556 72.056 137.492 71.928C137.428 71.8 137.332 71.672 137.204 71.544C137.012 70.648 136.852 69.784 136.724 68.952C136.596 68.056 136.596 67.128 136.724 66.168V64.92C136.724 64.728 136.692 64.536 136.628 64.344C136.628 64.152 136.628 63.96 136.628 63.768C136.692 63.512 136.724 63.32 136.724 63.192C136.788 63 136.852 62.776 136.916 62.52C136.852 62.328 136.756 62.104 136.628 61.848C136.564 61.592 136.468 61.336 136.34 61.08C136.404 60.952 136.468 60.792 136.532 60.6C136.596 60.344 136.66 60.152 136.724 60.024C136.724 59.96 136.692 59.896 136.628 59.832C136.628 59.768 136.628 59.704 136.628 59.64C136.244 58.872 136.148 58.328 136.34 58.008C136.532 57.688 136.884 57.304 137.396 56.856C137.524 56.728 137.78 56.6 138.164 56.472C138.996 56.024 139.796 55.384 140.564 54.552C141.076 54.552 141.62 54.616 142.196 54.744C142.772 54.872 143.316 54.936 143.828 54.936C144.404 55 144.948 55.064 145.46 55.128C146.036 55.128 146.612 55.192 147.188 55.32C147.7 55.448 148.148 55.48 148.532 55.416C148.916 55.288 149.3 55.096 149.684 54.84C149.812 54.712 149.94 54.616 150.068 54.552C150.196 54.424 150.324 54.328 150.452 54.264C151.156 53.688 151.508 52.984 151.508 52.152C151.572 51.896 151.572 51.64 151.508 51.384C151.508 51.128 151.508 50.872 151.508 50.616C151.508 49.4 151.636 48.28 151.892 47.256C152.02 47.192 152.148 47.128 152.276 47.064C152.404 47 152.5 46.936 152.564 46.872C153.012 46.68 153.428 46.488 153.812 46.296C154.26 46.04 154.612 45.752 154.868 45.432C154.996 45.24 155.028 45.112 154.964 45.048C154.964 44.92 154.804 44.792 154.484 44.664C154.484 44.664 154.452 44.664 154.388 44.664C154.388 44.6 154.388 44.536 154.388 44.472V44.184C154.708 43.992 154.996 43.896 155.252 43.896C155.956 43.832 156.628 43.832 157.268 43.896C157.908 43.96 158.484 44.184 158.996 44.568C159.7 44.952 160.468 45.08 161.3 44.952C161.876 44.952 162.42 44.92 162.932 44.856C163.444 44.792 163.924 44.76 164.372 44.76C165.012 44.632 165.46 44.856 165.716 45.432C165.716 45.688 165.684 45.976 165.62 46.296C165.62 46.552 165.62 46.84 165.62 47.16C165.876 47.672 166.1 48.184 166.292 48.696C166.484 49.208 166.548 49.784 166.484 50.424C166.42 50.552 166.356 50.712 166.292 50.904C166.228 51.096 166.164 51.288 166.1 51.48C166.292 52.184 166.644 52.568 167.156 52.632C167.86 52.632 168.596 52.664 169.364 52.728C170.132 52.728 170.9 52.728 171.668 52.728C172.82 52.664 173.908 52.856 174.932 53.304C175.06 53.368 175.156 53.4 175.22 53.4C175.348 53.336 175.444 53.336 175.508 53.4C175.764 53.336 176.02 53.272 176.276 53.208C176.532 53.08 176.82 52.984 177.14 52.92C177.524 53.176 177.908 53.432 178.292 53.688C178.74 53.88 179.188 54.136 179.636 54.456C179.7 54.776 179.732 55.096 179.732 55.416C179.732 55.672 179.764 55.96 179.828 56.28C179.956 56.536 180.052 56.824 180.116 57.144C180.18 57.4 180.244 57.624 180.308 57.816ZM202.388 78.648C202.388 78.776 202.356 78.936 202.292 79.128C202.292 79.256 202.292 79.384 202.292 79.512C202.484 80.088 202.548 80.664 202.484 81.24C202.484 81.752 202.42 82.296 202.292 82.872C202.228 83.256 202.132 83.64 202.004 84.024C201.94 84.408 201.844 84.856 201.716 85.368C201.46 85.688 201.236 86.072 201.044 86.52C200.852 86.904 200.596 87.352 200.276 87.864C200.02 88.184 199.86 88.568 199.796 89.016C199.732 89.464 199.636 89.912 199.508 90.36C199.252 90.808 198.996 91.256 198.74 91.704C198.484 92.152 198.196 92.632 197.876 93.144C197.62 93.208 197.396 93.304 197.204 93.432C197.076 93.56 196.884 93.688 196.628 93.816C196.564 93.816 196.468 93.848 196.34 93.912C196.212 93.912 196.084 93.88 195.956 93.816C195.636 93.688 195.284 93.656 194.9 93.72C194.516 93.72 194.164 93.752 193.844 93.816C193.012 93.88 192.436 93.912 192.116 93.912C191.796 93.912 191.156 93.784 190.196 93.528C189.94 93.656 189.62 93.752 189.236 93.816C188.916 93.88 188.596 93.976 188.276 94.104C187.444 94.232 186.836 93.976 186.452 93.336C186.324 93.08 186.196 92.856 186.068 92.664C185.94 92.472 185.812 92.248 185.684 91.992C185.94 91.672 186.164 91.384 186.356 91.128C186.612 90.808 186.804 90.488 186.932 90.168C187.06 89.784 187.156 89.464 187.22 89.208C187.156 88.888 187.092 88.568 187.028 88.248C186.964 87.928 186.9 87.64 186.836 87.384C186.388 86.744 185.876 86.424 185.3 86.424C184.724 86.232 184.212 86.232 183.764 86.424C183.508 86.488 183.22 86.552 182.9 86.616C182.58 86.68 182.26 86.712 181.94 86.712C181.684 86.776 181.396 86.808 181.076 86.808C180.82 86.744 180.532 86.712 180.212 86.712C179.956 86.968 179.7 87.256 179.444 87.576C179.188 87.832 178.996 88.056 178.868 88.248C178.228 88.504 177.62 88.664 177.044 88.728C176.532 88.728 176.02 88.824 175.508 89.016C174.868 89.272 174.26 89.304 173.684 89.112C173.108 88.92 172.628 88.6 172.244 88.152C171.476 87.32 170.644 86.648 169.748 86.136C169.364 85.624 169.204 85.112 169.268 84.6C169.332 84.088 169.396 83.544 169.46 82.968C169.524 82.392 169.716 81.88 170.036 81.432C170.228 81.112 170.324 80.824 170.324 80.568C170.324 80.248 170.324 79.928 170.324 79.608C170.388 78.84 170.42 78.104 170.42 77.4C170.484 76.632 170.548 75.864 170.612 75.096C170.612 74.968 170.644 74.84 170.708 74.712C170.772 74.584 170.836 74.456 170.9 74.328C171.22 74.264 171.508 74.232 171.764 74.232C172.084 74.168 172.404 74.104 172.724 74.04C172.852 73.784 173.012 73.528 173.204 73.272C173.46 73.016 173.62 72.792 173.684 72.6C174.004 72.6 174.26 72.568 174.452 72.504C174.644 72.44 174.804 72.44 174.932 72.504C175.572 72.696 176.212 72.792 176.852 72.792C177.556 72.728 178.228 72.76 178.868 72.888C179.828 73.08 180.532 73.176 180.98 73.176C181.492 73.112 182.26 72.952 183.284 72.696C183.412 72.76 183.54 72.856 183.668 72.984C183.796 73.048 183.892 73.144 183.956 73.272C184.276 73.4 184.532 73.432 184.724 73.368C184.98 73.304 185.236 73.304 185.492 73.368C185.748 73.368 186.132 73.432 186.644 73.56C186.836 73.432 187.028 73.272 187.22 73.08C187.476 72.888 187.7 72.76 187.892 72.696C188.212 72.824 188.532 73.016 188.852 73.272C189.172 73.464 189.46 73.624 189.716 73.752C190.292 73.688 190.9 73.656 191.54 73.656C192.18 73.656 192.82 73.624 193.46 73.56C194.484 73.752 195.508 74.008 196.532 74.328C197.044 74.456 197.524 74.616 197.972 74.808C198.484 75 198.932 75.256 199.316 75.576C199.764 75.832 200.18 76.12 200.564 76.44C200.948 76.696 201.364 76.984 201.812 77.304C202.196 77.688 202.388 78.136 202.388 78.648ZM197.492 105.624C197.428 105.944 197.332 106.296 197.204 106.68C197.076 107.064 196.916 107.448 196.724 107.832C196.532 108.6 196.532 109.4 196.724 110.232C196.788 110.296 196.82 110.424 196.82 110.616C196.884 110.744 196.948 110.872 197.012 111C196.628 111.448 196.34 111.736 196.148 111.864C195.956 112.056 195.412 112.408 194.516 112.92C194.388 113.176 194.228 113.432 194.036 113.688C193.844 114.008 193.684 114.328 193.556 114.648C193.108 114.712 192.692 114.744 192.308 114.744C191.924 114.808 191.54 114.872 191.156 114.936C190.9 115 190.644 115.064 190.388 115.128C190.132 115.192 189.908 115.256 189.716 115.32H189.332C189.076 115.32 188.82 115.288 188.564 115.224C188.308 115.288 188.02 115.384 187.7 115.512C187.444 115.704 187.124 115.896 186.74 116.088C186.228 116.024 185.716 115.896 185.204 115.704C184.692 115.512 184.148 115.352 183.572 115.224C182.612 115.096 181.652 115.16 180.692 115.416C179.796 115.736 178.868 115.8 177.908 115.608C177.524 115.544 177.14 115.448 176.756 115.32C176.372 115.192 175.956 115.064 175.508 114.936C175.38 114.872 175.188 114.808 174.932 114.744C174.74 114.68 174.58 114.616 174.452 114.552C174.132 114.296 173.78 114.104 173.396 113.976C173.012 113.912 172.596 113.848 172.148 113.784C171.764 113.72 171.38 113.592 170.996 113.4C170.676 113.272 170.324 113.112 169.94 112.92C169.812 112.664 169.684 112.504 169.556 112.44C169.556 112.312 169.524 112.152 169.46 111.96C169.46 111.832 169.492 111.704 169.556 111.576C169.684 110.872 169.748 110.2 169.748 109.56C169.812 108.92 169.716 108.28 169.46 107.64C169.396 107.448 169.364 107.256 169.364 107.064C169.428 106.872 169.46 106.68 169.46 106.488C169.588 106.104 169.62 105.72 169.556 105.336C169.556 104.952 169.62 104.568 169.748 104.184C169.876 103.736 169.908 103.32 169.844 102.936C169.78 102.488 169.684 102.072 169.556 101.688C169.492 101.432 169.428 101.144 169.364 100.824C169.364 100.504 169.364 100.216 169.364 99.96C169.492 99.832 169.588 99.736 169.652 99.672C169.78 99.544 169.876 99.48 169.94 99.48C170.388 99.352 170.868 99.256 171.38 99.192C171.892 99.128 172.372 99.064 172.82 99C173.268 98.872 173.684 98.68 174.068 98.424C174.516 98.168 174.996 98.104 175.508 98.232C176.02 98.296 176.468 98.456 176.852 98.712C177.3 98.904 177.748 99.064 178.196 99.192C178.708 99.384 179.188 99.544 179.636 99.672C180.148 99.8 180.628 99.928 181.076 100.056C181.204 100.12 181.3 100.152 181.364 100.152C181.492 100.152 181.588 100.184 181.652 100.248C182.164 100.696 182.708 101.016 183.284 101.208C183.86 101.336 184.436 101.56 185.012 101.88C186.484 101.944 187.86 101.912 189.14 101.784C190.484 101.656 191.764 101.368 192.98 100.92C193.3 100.792 193.556 100.728 193.748 100.728C194.004 100.728 194.26 100.696 194.516 100.632C195.284 100.568 195.828 100.632 196.148 100.824C196.468 101.016 196.756 101.56 197.012 102.456C197.14 102.968 197.236 103.48 197.3 103.992C197.364 104.504 197.428 105.048 197.492 105.624ZM279.34 62.328C279.276 62.648 279.212 62.968 279.148 63.288C279.148 63.608 279.148 63.896 279.148 64.152V66.072C279.212 66.84 279.148 67.64 278.956 68.472C278.828 69.24 278.444 70.136 277.804 71.16C277.42 71.736 276.684 72.568 275.596 73.656C275.276 73.976 274.796 74.072 274.156 73.944C273.964 73.88 273.74 73.816 273.484 73.752C273.292 73.688 273.132 73.624 273.004 73.56C272.62 73.56 272.364 73.592 272.236 73.656C271.724 73.848 271.212 73.976 270.7 74.04C270.188 74.104 269.676 74.104 269.164 74.04C267.884 73.592 266.956 72.824 266.38 71.736C266.316 71.544 266.252 71.352 266.188 71.16C266.124 70.968 266.156 70.776 266.284 70.584C266.348 70.264 266.38 70.008 266.38 69.816C266.444 69.56 266.444 69.304 266.38 69.048C265.996 67.576 265.804 66.104 265.804 64.632C265.868 63.16 265.964 61.656 266.092 60.12C267.116 59.032 268.012 57.912 268.78 56.76C269.164 56.568 269.612 56.408 270.124 56.28C270.7 56.088 271.244 55.928 271.756 55.8C272.268 55.8 272.812 55.832 273.388 55.896C273.964 55.896 274.572 55.928 275.212 55.992C275.724 56.248 276.204 56.504 276.652 56.76C277.164 57.016 277.676 57.24 278.188 57.432C278.892 57.752 279.18 58.296 279.052 59.064C278.988 59.384 278.892 59.736 278.764 60.12C278.636 60.44 278.54 60.792 278.476 61.176C278.54 61.304 278.636 61.432 278.764 61.56C278.892 61.624 278.988 61.72 279.052 61.848C279.116 62.04 279.212 62.2 279.34 62.328ZM263.404 71.16C263.084 71.992 262.636 72.568 262.06 72.888C260.844 73.528 259.628 73.976 258.412 74.232C258.028 74.296 257.612 74.232 257.164 74.04C256.972 73.912 256.78 73.784 256.588 73.656C256.396 73.464 256.172 73.24 255.916 72.984C255.34 72.856 254.732 72.76 254.092 72.696C253.516 72.568 252.972 72.472 252.46 72.408C252.396 72.28 252.3 72.184 252.172 72.12C252.044 72.056 251.98 71.992 251.98 71.928C251.788 71.352 251.564 70.808 251.308 70.296C251.052 69.72 250.796 69.144 250.54 68.568C250.668 68.056 250.796 67.608 250.924 67.224C251.052 66.776 251.02 66.328 250.828 65.88V63.864C250.956 63.608 251.052 63.416 251.116 63.288C251.244 63.096 251.34 62.904 251.404 62.712C251.34 62.264 251.18 61.88 250.924 61.56C250.668 61.176 250.636 60.728 250.828 60.216C250.956 59.896 251.116 59.576 251.308 59.256C251.564 58.872 251.788 58.488 251.98 58.104C252.556 57.784 253.1 57.56 253.612 57.432C254.124 57.24 254.7 57.208 255.34 57.336C255.532 57.4 255.916 57.368 256.492 57.24C257.068 57.176 257.612 57.176 258.124 57.24C258.7 57.304 259.244 57.56 259.756 58.008C260.012 58.264 260.332 58.424 260.716 58.488C261.1 58.552 261.484 58.648 261.868 58.776C261.996 59.032 262.156 59.288 262.348 59.544C262.604 59.736 262.828 59.96 263.02 60.216C262.956 61.24 262.924 61.944 262.924 62.328C262.924 62.648 263.052 63.32 263.308 64.344C263.244 64.792 263.148 65.24 263.02 65.688C262.956 66.072 262.86 66.52 262.732 67.032C262.86 67.608 262.956 68.184 263.02 68.76C263.148 69.336 263.276 69.976 263.404 70.68V71.16ZM274.444 98.328C274.252 98.776 273.964 99.128 273.58 99.384C273.26 99.576 272.972 99.832 272.716 100.152C272.46 100.472 272.204 100.792 271.948 101.112C271.692 101.432 271.404 101.752 271.084 102.072C270.892 102.392 270.7 102.744 270.508 103.128C270.316 103.448 270.156 103.768 270.028 104.088C269.644 104.536 269.26 104.952 268.876 105.336C268.556 105.72 268.236 106.072 267.916 106.392C267.596 106.712 267.276 107 266.956 107.256C266.636 107.448 266.284 107.576 265.9 107.64C265.644 107.512 265.42 107.384 265.228 107.256C265.036 107.128 264.78 107 264.46 106.872C264.076 106.936 263.692 107 263.308 107.064C262.924 107.128 262.572 107.192 262.252 107.256C261.868 107 261.644 106.84 261.58 106.776C261.196 106.008 260.716 105.368 260.14 104.856C259.564 104.344 258.892 103.864 258.124 103.416C257.228 102.968 256.428 102.296 255.724 101.4C255.532 101.08 255.244 100.824 254.86 100.632C254.796 100.568 254.668 100.472 254.476 100.344C254.284 100.152 254.188 100.056 254.188 100.056L253.612 99.672L253.42 99.384C252.588 98.488 251.756 97.72 250.924 97.08C250.092 96.376 249.228 95.544 248.332 94.584C248.204 94.264 247.98 93.912 247.66 93.528C247.404 93.08 247.084 92.632 246.7 92.184C246.38 91.736 246.028 91.32 245.644 90.936C245.196 90.552 244.748 90.232 244.3 89.976C243.916 89.72 243.436 89.592 242.86 89.592C242.348 89.656 241.836 89.592 241.324 89.4C240.876 89.208 240.428 88.984 239.98 88.728C239.66 88.536 239.34 88.376 239.02 88.248C238.7 88.056 238.444 87.832 238.252 87.576C237.676 87.064 237.068 86.648 236.428 86.328C235.788 86.008 235.116 85.72 234.411 85.464C233.516 85.784 232.876 86.072 232.492 86.328C232.108 86.584 231.66 87 231.148 87.576C230.892 87.832 230.604 88.088 230.284 88.344C229.964 88.6 229.804 88.984 229.804 89.496C229.804 89.56 229.708 89.688 229.516 89.88C228.812 90.328 228.236 90.872 227.788 91.512C227.404 92.152 227.052 92.92 226.732 93.816C226.028 94.392 225.548 94.744 225.292 94.872C225.1 94.936 224.908 95.032 224.716 95.16C224.588 95.288 224.268 95.736 223.756 96.504C223.5 96.824 223.244 97.144 222.988 97.464C222.796 97.784 222.54 98.104 222.22 98.424C221.9 98.68 221.548 98.936 221.164 99.192C220.844 99.384 220.524 99.64 220.204 99.96C219.884 99.896 219.532 99.832 219.148 99.768C218.764 99.704 218.412 99.672 218.092 99.672C217.836 99.672 217.548 99.736 217.228 99.864C216.972 99.928 216.716 99.96 216.46 99.96C216.012 99.832 215.628 99.64 215.308 99.384C215.052 99.128 214.764 98.872 214.444 98.616C214.188 97.912 213.836 97.272 213.388 96.696C212.94 96.12 212.556 95.48 212.236 94.776C211.98 94.072 211.628 93.464 211.18 92.952C210.796 92.376 210.412 91.768 210.028 91.128C210.156 90.616 210.252 90.104 210.316 89.592C210.444 89.016 210.54 88.504 210.604 88.056C210.732 87.928 210.86 87.928 210.988 88.056C211.116 88.12 211.212 88.184 211.276 88.248C211.404 88.312 211.532 88.312 211.66 88.248C211.852 88.184 211.948 88.12 211.948 88.056V86.712C212.396 86.264 212.62 86.072 212.62 86.136C212.684 86.136 212.716 86.168 212.716 86.232C212.78 86.232 213.036 85.976 213.484 85.464C214.188 85.144 215.116 84.6 216.268 83.832C216.716 83.192 217.228 82.648 217.804 82.2C218.444 81.752 218.956 81.208 219.34 80.568C219.66 79.864 219.98 79.192 220.299 78.552C220.684 77.912 221.068 77.24 221.452 76.536C221.644 76.408 221.868 76.248 222.124 76.056C222.444 75.8 222.764 75.608 223.084 75.48C223.34 75.16 223.5 74.84 223.564 74.52C223.692 74.136 223.788 73.784 223.852 73.464C223.916 73.4 223.98 73.336 224.044 73.272C224.108 73.144 224.204 73.048 224.332 72.984C224.46 72.92 224.62 72.856 224.812 72.792C225.004 72.664 225.132 72.472 225.196 72.216C225.324 72.088 225.388 71.928 225.388 71.736C225.452 71.48 225.516 71.288 225.58 71.16C225.708 70.84 225.836 70.552 225.964 70.296C226.156 70.04 226.38 69.88 226.636 69.816C226.892 69.688 227.116 69.656 227.308 69.72C227.564 69.784 227.788 69.816 227.98 69.816C228.492 69.944 229.004 69.848 229.516 69.528C229.836 69.272 230.156 69.048 230.476 68.856C230.796 68.6 231.116 68.344 231.436 68.088C231.692 67.96 231.884 67.832 232.012 67.704C232.204 67.512 232.428 67.384 232.684 67.32C233.452 66.744 234.092 66.84 234.604 67.608C234.796 67.8 234.956 68.024 235.084 68.28C236.044 68.536 236.94 68.76 237.772 68.952C238.604 69.08 239.436 69.208 240.268 69.336C240.396 69.528 240.46 69.656 240.46 69.72C240.46 69.784 240.492 69.88 240.556 70.008C240.684 70.264 240.844 70.36 241.036 70.296C241.292 70.168 241.516 70.168 241.708 70.296C242.22 70.424 242.572 70.552 242.764 70.68C243.02 71 243.308 71.288 243.628 71.544C244.012 71.8 244.364 72.024 244.684 72.216C245.004 72.472 245.324 72.696 245.644 72.888C245.964 73.016 246.284 73.176 246.604 73.368C246.924 73.56 247.244 74.008 247.564 74.712C249.036 75.544 250.508 76.696 251.98 78.168C252.172 78.36 252.396 78.552 252.652 78.744C252.908 78.936 253.132 79.128 253.324 79.32C253.708 79.64 254.092 79.992 254.476 80.376C254.924 80.696 255.276 81.08 255.531 81.528C255.66 81.784 255.788 82.008 255.916 82.2C256.108 82.392 256.3 82.584 256.492 82.776C257.004 83.16 257.516 83.576 258.028 84.024C258.54 84.472 259.02 84.888 259.468 85.272C260.108 85.72 260.715 86.168 261.292 86.616C261.868 87 262.412 87.448 262.924 87.96C263.308 88.664 263.852 89.208 264.556 89.592C265.26 89.912 265.932 90.232 266.572 90.552C267.788 91.128 268.844 91.768 269.74 92.472C270.124 92.856 270.572 93.208 271.084 93.528C271.596 93.784 272.076 94.072 272.524 94.392C273.1 94.776 273.292 95.32 273.1 96.024C273.1 96.024 273.1 96.12 273.1 96.312C273.164 96.568 273.324 96.76 273.58 96.888C273.836 96.952 274.028 97.048 274.156 97.176C274.348 97.368 274.444 97.56 274.444 97.752C274.444 97.944 274.444 98.136 274.444 98.328ZM327.585 88.44C327.393 88.696 327.265 88.92 327.201 89.112C327.137 89.24 327.041 89.4 326.913 89.592C326.977 89.848 327.009 90.168 327.009 90.552C327.073 90.936 327.105 91.288 327.105 91.608V92.76C327.233 93.848 326.977 94.744 326.337 95.448V96.6C326.209 97.112 326.049 97.592 325.857 98.04C325.665 98.488 325.505 98.968 325.377 99.48C325.057 100.312 324.737 101.24 324.417 102.264C324.225 102.456 324.001 102.648 323.745 102.84C323.553 102.968 323.361 103.16 323.169 103.416C322.977 103.608 322.817 103.832 322.689 104.088C322.625 104.28 322.529 104.472 322.401 104.664C321.761 104.984 321.153 105.4 320.577 105.912C320.065 106.36 319.681 106.936 319.425 107.64C319.105 108.344 318.657 108.952 318.081 109.464C317.569 109.848 317.057 110.264 316.545 110.712C316.097 111.096 315.617 111.512 315.105 111.96C314.401 112.536 313.665 112.92 312.897 113.112C312.641 113.176 312.353 113.272 312.033 113.4C311.777 113.528 311.489 113.688 311.169 113.88C309.953 114.712 308.513 115.256 306.849 115.512C305.249 115.832 303.649 116.056 302.049 116.184C301.601 116.248 301.153 116.248 300.705 116.184C300.257 116.184 299.777 116.184 299.265 116.184C299.009 116.056 298.753 115.896 298.497 115.704C298.305 115.512 298.049 115.384 297.729 115.32C297.089 115.384 296.481 115.512 295.905 115.704C295.585 115.576 295.233 115.448 294.849 115.32C294.529 115.192 294.209 115.064 293.889 114.936C293.121 114.68 292.417 114.264 291.777 113.688C291.393 113.304 290.977 112.92 290.529 112.536C290.081 112.216 289.697 111.8 289.377 111.288C289.185 111.096 288.929 110.904 288.609 110.712C288.353 110.52 288.129 110.36 287.937 110.232C287.873 109.72 287.809 109.208 287.745 108.696C287.681 108.12 287.553 107.608 287.361 107.16C287.233 106.648 287.137 106.136 287.073 105.624C287.073 105.112 286.913 104.536 286.593 103.896C286.913 103.384 287.073 102.872 287.073 102.36C287.073 101.848 287.073 101.336 287.073 100.824C287.329 100.312 287.585 99.768 287.841 99.192C288.097 98.616 288.257 98.04 288.321 97.464C288.385 97.144 288.513 96.856 288.705 96.6C288.897 96.28 289.089 95.96 289.281 95.64C289.665 95.32 290.049 94.968 290.433 94.584C290.817 94.2 291.233 93.816 291.681 93.432C292.001 92.984 292.257 92.568 292.449 92.184C292.705 91.736 293.025 91.32 293.409 90.936H294.849C295.233 90.744 295.489 90.392 295.617 89.88C295.937 89.176 296.577 88.76 297.537 88.632C298.113 88.632 298.689 88.632 299.265 88.632C299.905 88.568 300.545 88.6 301.185 88.728C301.505 88.792 301.793 88.824 302.049 88.824C302.369 88.76 302.689 88.76 303.009 88.824C303.521 88.888 304.001 88.92 304.449 88.92C304.961 88.92 305.409 88.856 305.793 88.728C306.753 88.92 307.489 89.336 308.001 89.976C308.513 90.552 309.121 91.096 309.825 91.608C309.953 91.928 310.081 92.28 310.209 92.664C310.401 92.984 310.593 93.304 310.785 93.624C310.657 94.008 310.529 94.328 310.401 94.584C310.273 94.84 310.273 95 310.401 95.064C310.529 95.128 310.625 95.16 310.689 95.16C310.817 95.096 310.913 95.064 310.977 95.064H311.361C311.553 95.128 311.745 95.224 311.937 95.352C312.193 95.416 312.417 95.512 312.609 95.64C312.993 95.576 313.281 95.416 313.473 95.16C313.729 94.904 313.889 94.648 313.953 94.392C314.145 94.008 314.305 93.624 314.433 93.24C314.561 92.856 314.657 92.472 314.721 92.088C314.721 91.768 314.689 91.48 314.625 91.224C314.561 90.904 314.561 90.584 314.625 90.264C314.817 89.56 314.785 88.952 314.529 88.44C314.273 87.928 313.889 87.448 313.377 87C313.249 86.872 313.121 86.776 312.993 86.712C312.865 86.584 312.737 86.488 312.609 86.424C312.545 86.104 312.449 85.784 312.321 85.464C312.257 85.08 312.161 84.696 312.033 84.312C311.777 83.992 311.489 83.704 311.169 83.448C310.913 83.128 310.625 82.808 310.305 82.488C310.241 82.36 310.145 82.296 310.017 82.296C309.889 82.232 309.825 82.2 309.825 82.2C309.505 81.88 309.185 81.72 308.865 81.72C308.609 81.72 308.353 81.72 308.097 81.72C307.905 81.656 307.681 81.624 307.425 81.624C307.233 81.56 307.073 81.496 306.945 81.432C306.241 81.112 305.505 80.792 304.737 80.472C304.033 80.152 303.297 79.832 302.529 79.512C302.465 79.576 302.337 79.608 302.145 79.608C302.017 79.608 301.889 79.672 301.761 79.8C301.057 80.248 300.257 80.568 299.361 80.76C298.529 80.952 297.665 81.08 296.769 81.144C295.937 81.208 295.105 81.368 294.273 81.624C293.505 81.816 292.769 82.104 292.065 82.488C291.809 82.68 291.553 82.84 291.297 82.968C291.041 83.032 290.753 83.128 290.433 83.256C289.985 83.32 289.569 83.288 289.185 83.16C288.801 82.968 288.449 82.84 288.129 82.776C287.873 82.584 287.681 82.392 287.553 82.2C287.425 82.008 287.297 81.784 287.169 81.528C286.593 80.952 286.369 80.28 286.497 79.512C286.561 79 286.529 78.52 286.401 78.072C286.337 77.624 286.241 77.176 286.113 76.728C286.049 76.28 286.017 75.864 286.017 75.48C286.017 75.032 286.049 74.584 286.113 74.136C286.113 73.88 286.177 73.656 286.305 73.464C286.433 73.272 286.529 73.08 286.593 72.888C286.785 72.568 287.009 72.28 287.265 72.024C287.521 71.768 287.777 71.512 288.033 71.256C288.161 71.192 288.321 71.128 288.513 71.064C288.705 71 288.897 70.904 289.089 70.776C289.345 70.584 289.665 70.264 290.049 69.816C291.265 69.56 292.481 68.856 293.697 67.704C293.761 67.512 293.825 67.32 293.889 67.128C294.017 66.872 294.113 66.616 294.177 66.36C295.073 65.784 295.617 65.4 295.809 65.208C296.065 64.952 296.417 64.408 296.865 63.576C296.865 62.68 296.417 62.136 295.521 61.944C294.817 61.816 294.081 61.72 293.313 61.656C292.609 61.528 291.905 61.464 291.201 61.464C289.729 61.464 288.225 61.08 286.689 60.312C286.305 59.928 286.017 59.48 285.825 58.968C285.697 58.456 285.505 57.912 285.249 57.336C285.441 57.016 285.601 56.696 285.729 56.376C285.857 55.992 285.985 55.64 286.113 55.32C286.049 55 285.985 54.68 285.921 54.36C285.857 54.04 285.761 53.72 285.633 53.4C285.761 52.888 285.889 52.44 286.017 52.056C286.145 51.608 286.113 51.16 285.921 50.712C285.985 50.648 286.017 50.616 286.017 50.616C286.017 50.552 286.049 50.488 286.113 50.424C286.433 50.04 286.753 49.688 287.073 49.368C287.457 48.984 287.809 48.6 288.129 48.216C289.729 48.152 290.945 48.088 291.777 48.024C292.609 47.96 293.377 47.96 294.081 48.024C294.849 48.024 295.809 48.12 296.961 48.312C298.177 48.504 299.937 48.824 302.241 49.272C302.433 49.208 302.625 49.144 302.817 49.08C303.009 49.016 303.201 48.952 303.393 48.888C303.585 48.952 303.777 48.984 303.969 48.984C304.161 48.984 304.353 49.016 304.545 49.08C305.057 48.888 305.505 48.696 305.889 48.504C306.337 48.312 306.689 48.024 306.945 47.64C307.265 47.256 307.617 47.192 308.001 47.448C308.449 47.704 308.897 47.896 309.345 48.024C309.793 48.088 310.241 48.184 310.689 48.312C311.265 48.44 311.809 48.696 312.321 49.08C312.641 49.208 312.897 49.368 313.089 49.56C313.345 49.752 313.601 49.912 313.857 50.04H314.241C314.753 49.912 315.073 50.104 315.201 50.616C315.329 51.256 315.489 51.864 315.681 52.44C315.873 52.952 316.161 53.432 316.545 53.88C316.609 54.392 316.641 54.872 316.641 55.32C316.705 55.768 316.769 56.248 316.833 56.76C316.833 56.824 316.801 56.92 316.737 57.048C316.737 57.112 316.737 57.208 316.737 57.336C316.673 57.912 316.449 58.392 316.065 58.776C315.681 59.096 315.425 59.512 315.297 60.024C315.233 60.536 315.009 61.016 314.625 61.464C314.305 61.848 313.985 62.232 313.665 62.616C313.409 63.064 313.121 63.48 312.801 63.864C312.481 64.248 312.097 64.6 311.649 64.92C311.521 65.112 311.361 65.336 311.169 65.592C310.977 65.784 310.817 65.976 310.689 66.168C310.625 66.232 310.561 66.36 310.497 66.552C310.433 66.68 310.401 66.808 310.401 66.936C310.337 67.192 310.369 67.448 310.497 67.704C310.689 67.896 310.817 68.024 310.881 68.088C311.457 68.152 311.937 68.344 312.321 68.664C312.705 68.92 313.153 69.112 313.665 69.24C314.113 69.304 314.529 69.464 314.913 69.72C315.361 69.912 315.777 70.104 316.161 70.296C316.737 70.488 317.281 70.712 317.793 70.968C318.369 71.16 318.913 71.352 319.425 71.544C319.809 71.8 320.193 72.056 320.577 72.312C320.961 72.568 321.249 72.888 321.441 73.272C322.017 74.104 322.689 74.68 323.457 75C323.777 75.576 324.033 76.088 324.225 76.536C324.481 76.984 324.769 77.464 325.089 77.976C325.473 78.936 325.665 80.056 325.665 81.336C325.921 81.592 326.113 81.848 326.241 82.104C326.369 82.296 326.497 82.456 326.625 82.584C326.625 83.032 326.625 83.48 326.625 83.928C326.625 84.312 326.721 84.696 326.913 85.08C327.041 85.592 327.105 86.168 327.105 86.808C327.169 87.384 327.329 87.928 327.585 88.44ZM303.393 103.128C303.329 102.808 303.265 102.52 303.201 102.264C303.137 101.944 303.105 101.624 303.105 101.304C302.721 100.856 302.433 100.376 302.241 99.864C302.049 99.352 301.697 98.904 301.185 98.52C301.057 98.52 300.929 98.52 300.801 98.52C300.737 98.456 300.673 98.424 300.609 98.424H298.305C297.217 98.872 296.545 99.544 296.289 100.44C296.033 101.464 296.193 102.456 296.769 103.416C296.833 103.48 296.865 103.544 296.865 103.608C296.929 103.672 296.993 103.768 297.057 103.896C297.441 104.408 297.889 104.664 298.401 104.664C299.041 104.664 299.649 104.664 300.225 104.664C300.801 104.664 301.409 104.632 302.049 104.568C302.369 104.568 302.657 104.408 302.913 104.088C303.233 103.768 303.393 103.448 303.393 103.128Z" fill="#FF8282"/>
<path d="M35.98 18.24L31.38 9.72H33.58L36.7 16.3L35.56 16.26L38.42 9.72H40.5L36.08 18.24H35.98ZM46.1475 18.2C45.2008 18.2 44.3875 18.0133 43.7075 17.64C43.0275 17.2533 42.5008 16.7333 42.1275 16.08C41.7675 15.4133 41.5875 14.6533 41.5875 13.8C41.5875 12.9867 41.7942 12.2467 42.2075 11.58C42.6208 10.9133 43.1742 10.38 43.8675 9.98C44.5608 9.58 45.3342 9.38 46.1875 9.38C47.2808 9.38 48.1875 9.7 48.9075 10.34C49.6275 10.98 50.1142 11.86 50.3675 12.98L43.5475 15.38L43.1075 14.28L48.7075 12.24L48.3075 12.5C48.1475 12.06 47.8808 11.68 47.5075 11.36C47.1342 11.0267 46.6475 10.86 46.0475 10.86C45.5408 10.86 45.0875 10.9867 44.6875 11.24C44.2875 11.48 43.9742 11.8133 43.7475 12.24C43.5208 12.6667 43.4075 13.1533 43.4075 13.7C43.4075 14.2733 43.5275 14.78 43.7675 15.22C44.0075 15.6467 44.3342 15.9867 44.7475 16.24C45.1742 16.48 45.6542 16.6 46.1875 16.6C46.5475 16.6 46.8942 16.5333 47.2275 16.4C47.5742 16.2667 47.8942 16.0933 48.1875 15.88L49.0475 17.26C48.6342 17.54 48.1675 17.7667 47.6475 17.94C47.1408 18.1133 46.6408 18.2 46.1475 18.2ZM56.6781 22.1C56.0648 22.1 55.5248 22.0267 55.0581 21.88C54.5915 21.7467 54.1648 21.5533 53.7781 21.3C53.4048 21.0467 53.0448 20.76 52.6981 20.44L53.7781 19.18C54.2181 19.5933 54.6648 19.9133 55.1181 20.14C55.5715 20.3667 56.0781 20.48 56.6381 20.48C57.2648 20.48 57.7915 20.3733 58.2181 20.16C58.6581 19.96 58.9915 19.6733 59.2181 19.3C59.4448 18.94 59.5581 18.52 59.5581 18.04L59.5781 15.8L59.7381 16.16C59.4981 16.7333 59.0648 17.22 58.4381 17.62C57.8115 18.0067 57.0515 18.2 56.1581 18.2C55.3981 18.2 54.6981 18.0067 54.0581 17.62C53.4315 17.2333 52.9248 16.7133 52.5381 16.06C52.1648 15.3933 51.9781 14.6467 51.9781 13.82C51.9781 12.9533 52.1781 12.1933 52.5781 11.54C52.9781 10.8733 53.5048 10.3467 54.1581 9.96C54.8115 9.57333 55.5248 9.38 56.2981 9.38C57.0315 9.38 57.6981 9.53333 58.2981 9.84C58.9115 10.1333 59.3581 10.5133 59.6381 10.98L59.5381 11.32L59.7381 9.72H61.4381V18.06C61.4381 18.8067 61.2448 19.4867 60.8581 20.1C60.4715 20.7133 59.9248 21.2 59.2181 21.56C58.5115 21.92 57.6648 22.1 56.6781 22.1ZM53.8381 13.78C53.8381 14.3133 53.9648 14.8 54.2181 15.24C54.4715 15.68 54.8115 16.0267 55.2381 16.28C55.6781 16.5333 56.1648 16.66 56.6981 16.66C57.1915 16.66 57.6315 16.5733 58.0181 16.4C58.4181 16.2133 58.7515 15.9667 59.0181 15.66C59.2848 15.34 59.4715 14.9733 59.5781 14.56V12.92C59.4581 12.52 59.2581 12.1733 58.9781 11.88C58.6981 11.5733 58.3648 11.34 57.9781 11.18C57.5915 11.0067 57.1648 10.92 56.6981 10.92C56.1648 10.92 55.6781 11.04 55.2381 11.28C54.8115 11.52 54.4715 11.86 54.2181 12.3C53.9648 12.7267 53.8381 13.22 53.8381 13.78ZM68.4913 18.2C67.5446 18.2 66.7313 18.0133 66.0513 17.64C65.3713 17.2533 64.8446 16.7333 64.4713 16.08C64.1113 15.4133 63.9313 14.6533 63.9313 13.8C63.9313 12.9867 64.1379 12.2467 64.5513 11.58C64.9646 10.9133 65.5179 10.38 66.2113 9.98C66.9046 9.58 67.6779 9.38 68.5313 9.38C69.6246 9.38 70.5313 9.7 71.2513 10.34C71.9713 10.98 72.4579 11.86 72.7113 12.98L65.8913 15.38L65.4513 14.28L71.0513 12.24L70.6513 12.5C70.4913 12.06 70.2246 11.68 69.8513 11.36C69.4779 11.0267 68.9913 10.86 68.3913 10.86C67.8846 10.86 67.4313 10.9867 67.0313 11.24C66.6313 11.48 66.3179 11.8133 66.0913 12.24C65.8646 12.6667 65.7513 13.1533 65.7513 13.7C65.7513 14.2733 65.8713 14.78 66.1113 15.22C66.3513 15.6467 66.6779 15.9867 67.0913 16.24C67.5179 16.48 67.9979 16.6 68.5313 16.6C68.8913 16.6 69.2379 16.5333 69.5713 16.4C69.9179 16.2667 70.2379 16.0933 70.5313 15.88L71.3913 17.26C70.9779 17.54 70.5113 17.7667 69.9913 17.94C69.4846 18.1133 68.9846 18.2 68.4913 18.2ZM75.8419 6.08H77.7019V9.76H79.9819V11.22H77.7019V18H75.8419V11.22H74.3219V9.76H75.8419V6.08ZM85.6694 18.2C84.896 18.2 84.1894 18.0333 83.5494 17.7C82.9227 17.3667 82.4227 16.88 82.0494 16.24C81.6894 15.5867 81.5094 14.7933 81.5094 13.86C81.5094 12.94 81.7027 12.1467 82.0894 11.48C82.476 10.8 82.9894 10.28 83.6294 9.92C84.2827 9.56 84.996 9.38 85.7694 9.38C86.5427 9.38 87.196 9.56 87.7294 9.92C88.2627 10.2667 88.6694 10.68 88.9494 11.16L88.8294 11.48L89.0094 9.72H90.7294V18H88.8694V15.84L89.0694 16.32C89.016 16.4533 88.896 16.6267 88.7094 16.84C88.536 17.04 88.296 17.2467 87.9894 17.46C87.696 17.6733 87.356 17.8533 86.9694 18C86.5827 18.1333 86.1494 18.2 85.6694 18.2ZM86.1694 16.66C86.636 16.66 87.056 16.5733 87.4294 16.4C87.8027 16.2267 88.1094 15.9867 88.3494 15.68C88.6027 15.36 88.776 14.98 88.8694 14.54V12.92C88.7627 12.52 88.576 12.1733 88.3094 11.88C88.0427 11.5733 87.7227 11.34 87.3494 11.18C86.976 11.0067 86.5627 10.92 86.1094 10.92C85.616 10.92 85.1627 11.04 84.7494 11.28C84.336 11.52 84.0027 11.8533 83.7494 12.28C83.5094 12.7067 83.3894 13.2067 83.3894 13.78C83.3894 14.3133 83.516 14.8 83.7694 15.24C84.0227 15.68 84.3627 16.0267 84.7894 16.28C85.216 16.5333 85.676 16.66 86.1694 16.66ZM98.9881 18.2C98.2281 18.2 97.5548 18.0333 96.9681 17.7C96.3948 17.3667 95.9348 16.9467 95.5881 16.44L95.8081 15.86V18H93.9481V2.52H95.7881V11.62L95.7281 10.92C96.0615 10.4667 96.5348 10.1 97.1481 9.82C97.7748 9.52667 98.4681 9.38 99.2281 9.38C99.9748 9.38 100.655 9.56 101.268 9.92C101.881 10.28 102.368 10.7867 102.728 11.44C103.101 12.08 103.288 12.8467 103.288 13.74C103.288 14.6733 103.088 15.4733 102.688 16.14C102.301 16.8067 101.781 17.32 101.128 17.68C100.475 18.0267 99.7615 18.2 98.9881 18.2ZM98.6081 16.62C99.1415 16.62 99.6215 16.4933 100.048 16.24C100.475 15.9867 100.808 15.6467 101.048 15.22C101.288 14.78 101.408 14.28 101.408 13.72C101.408 13.1867 101.281 12.7067 101.028 12.28C100.788 11.84 100.455 11.4933 100.028 11.24C99.6148 10.9867 99.1415 10.86 98.6081 10.86C98.1548 10.86 97.7348 10.9467 97.3481 11.12C96.9615 11.2933 96.6348 11.5333 96.3681 11.84C96.1015 12.1333 95.9148 12.48 95.8081 12.88V14.54C95.9148 14.94 96.0948 15.3 96.3481 15.62C96.6015 15.9267 96.9215 16.1733 97.3081 16.36C97.6948 16.5333 98.1281 16.62 98.6081 16.62ZM105.804 2.52H107.664V18H105.804V2.52ZM114.722 18.2C113.775 18.2 112.962 18.0133 112.282 17.64C111.602 17.2533 111.075 16.7333 110.702 16.08C110.342 15.4133 110.162 14.6533 110.162 13.8C110.162 12.9867 110.368 12.2467 110.782 11.58C111.195 10.9133 111.748 10.38 112.442 9.98C113.135 9.58 113.908 9.38 114.762 9.38C115.855 9.38 116.762 9.7 117.482 10.34C118.202 10.98 118.688 11.86 118.942 12.98L112.122 15.38L111.682 14.28L117.282 12.24L116.882 12.5C116.722 12.06 116.455 11.68 116.082 11.36C115.708 11.0267 115.222 10.86 114.622 10.86C114.115 10.86 113.662 10.9867 113.262 11.24C112.862 11.48 112.548 11.8133 112.322 12.24C112.095 12.6667 111.982 13.1533 111.982 13.7C111.982 14.2733 112.102 14.78 112.342 15.22C112.582 15.6467 112.908 15.9867 113.322 16.24C113.748 16.48 114.228 16.6 114.762 16.6C115.122 16.6 115.468 16.5333 115.802 16.4C116.148 16.2667 116.468 16.0933 116.762 15.88L117.622 17.26C117.208 17.54 116.742 17.7667 116.222 17.94C115.715 18.1133 115.215 18.2 114.722 18.2ZM132.64 18.2C131.88 18.2 131.207 18.0333 130.62 17.7C130.047 17.3667 129.587 16.9467 129.24 16.44L129.46 15.86V18H127.6V2.52H129.44V11.62L129.38 10.92C129.714 10.4667 130.187 10.1 130.8 9.82C131.427 9.52667 132.12 9.38 132.88 9.38C133.627 9.38 134.307 9.56 134.92 9.92C135.534 10.28 136.02 10.7867 136.38 11.44C136.754 12.08 136.94 12.8467 136.94 13.74C136.94 14.6733 136.74 15.4733 136.34 16.14C135.954 16.8067 135.434 17.32 134.78 17.68C134.127 18.0267 133.414 18.2 132.64 18.2ZM132.26 16.62C132.794 16.62 133.274 16.4933 133.7 16.24C134.127 15.9867 134.46 15.6467 134.7 15.22C134.94 14.78 135.06 14.28 135.06 13.72C135.06 13.1867 134.934 12.7067 134.68 12.28C134.44 11.84 134.107 11.4933 133.68 11.24C133.267 10.9867 132.794 10.86 132.26 10.86C131.807 10.86 131.387 10.9467 131 11.12C130.614 11.2933 130.287 11.5333 130.02 11.84C129.754 12.1333 129.567 12.48 129.46 12.88V14.54C129.567 14.94 129.747 15.3 130 15.62C130.254 15.9267 130.574 16.1733 130.96 16.36C131.347 16.5333 131.78 16.62 132.26 16.62ZM143.296 18.2C142.349 18.2 141.536 18.0133 140.856 17.64C140.176 17.2533 139.649 16.7333 139.276 16.08C138.916 15.4133 138.736 14.6533 138.736 13.8C138.736 12.9867 138.943 12.2467 139.356 11.58C139.769 10.9133 140.323 10.38 141.016 9.98C141.709 9.58 142.483 9.38 143.336 9.38C144.429 9.38 145.336 9.7 146.056 10.34C146.776 10.98 147.263 11.86 147.516 12.98L140.696 15.38L140.256 14.28L145.856 12.24L145.456 12.5C145.296 12.06 145.029 11.68 144.656 11.36C144.283 11.0267 143.796 10.86 143.196 10.86C142.689 10.86 142.236 10.9867 141.836 11.24C141.436 11.48 141.123 11.8133 140.896 12.24C140.669 12.6667 140.556 13.1533 140.556 13.7C140.556 14.2733 140.676 14.78 140.916 15.22C141.156 15.6467 141.483 15.9867 141.896 16.24C142.323 16.48 142.803 16.6 143.336 16.6C143.696 16.6 144.043 16.5333 144.376 16.4C144.723 16.2667 145.043 16.0933 145.336 15.88L146.196 17.26C145.783 17.54 145.316 17.7667 144.796 17.94C144.289 18.1133 143.789 18.2 143.296 18.2ZM149.947 21.98L148.847 20.84C149.22 20.52 149.513 20.12 149.727 19.64C149.94 19.1733 150.047 18.62 150.047 17.98V9.72H151.927V18.06C151.927 18.9933 151.767 19.78 151.447 20.42C151.14 21.0733 150.64 21.5933 149.947 21.98ZM149.887 6.72C149.887 6.42667 150 6.18 150.227 5.98C150.467 5.78 150.727 5.68 151.007 5.68C151.287 5.68 151.533 5.78 151.747 5.98C151.973 6.18 152.087 6.42667 152.087 6.72C152.087 7.02667 151.973 7.28 151.747 7.48C151.533 7.66667 151.287 7.76 151.007 7.76C150.727 7.76 150.467 7.66 150.227 7.46C150 7.26 149.887 7.01333 149.887 6.72ZM155.022 9.72H156.882V18H155.022V9.72ZM154.882 6.72C154.882 6.42667 154.996 6.18 155.222 5.98C155.462 5.78 155.722 5.68 156.002 5.68C156.282 5.68 156.529 5.78 156.742 5.98C156.969 6.18 157.082 6.42667 157.082 6.72C157.082 7.02667 156.969 7.28 156.742 7.48C156.529 7.66667 156.282 7.76 156.002 7.76C155.722 7.76 155.462 7.66 155.222 7.46C154.996 7.26 154.882 7.01333 154.882 6.72ZM160.9 6.08H162.76V9.76H165.04V11.22H162.76V18H160.9V11.22H159.38V9.76H160.9V6.08ZM170.728 18.2C169.955 18.2 169.248 18.0333 168.608 17.7C167.981 17.3667 167.481 16.88 167.108 16.24C166.748 15.5867 166.568 14.7933 166.568 13.86C166.568 12.94 166.761 12.1467 167.148 11.48C167.535 10.8 168.048 10.28 168.688 9.92C169.341 9.56 170.055 9.38 170.828 9.38C171.601 9.38 172.255 9.56 172.788 9.92C173.321 10.2667 173.728 10.68 174.008 11.16L173.888 11.48L174.068 9.72H175.788V18H173.928V15.84L174.128 16.32C174.075 16.4533 173.955 16.6267 173.768 16.84C173.595 17.04 173.355 17.2467 173.048 17.46C172.755 17.6733 172.415 17.8533 172.028 18C171.641 18.1333 171.208 18.2 170.728 18.2ZM171.228 16.66C171.695 16.66 172.115 16.5733 172.488 16.4C172.861 16.2267 173.168 15.9867 173.408 15.68C173.661 15.36 173.835 14.98 173.928 14.54V12.92C173.821 12.52 173.635 12.1733 173.368 11.88C173.101 11.5733 172.781 11.34 172.408 11.18C172.035 11.0067 171.621 10.92 171.168 10.92C170.675 10.92 170.221 11.04 169.808 11.28C169.395 11.52 169.061 11.8533 168.808 12.28C168.568 12.7067 168.448 13.2067 168.448 13.78C168.448 14.3133 168.575 14.8 168.828 15.24C169.081 15.68 169.421 16.0267 169.848 16.28C170.275 16.5333 170.735 16.66 171.228 16.66ZM184.047 18.2C183.287 18.2 182.613 18.0333 182.027 17.7C181.453 17.3667 180.993 16.9467 180.647 16.44L180.867 15.86V18H179.007V2.52H180.847V11.62L180.787 10.92C181.12 10.4667 181.593 10.1 182.207 9.82C182.833 9.52667 183.527 9.38 184.287 9.38C185.033 9.38 185.713 9.56 186.327 9.92C186.94 10.28 187.427 10.7867 187.787 11.44C188.16 12.08 188.347 12.8467 188.347 13.74C188.347 14.6733 188.147 15.4733 187.747 16.14C187.36 16.8067 186.84 17.32 186.187 17.68C185.533 18.0267 184.82 18.2 184.047 18.2ZM183.667 16.62C184.2 16.62 184.68 16.4933 185.107 16.24C185.533 15.9867 185.867 15.6467 186.107 15.22C186.347 14.78 186.467 14.28 186.467 13.72C186.467 13.1867 186.34 12.7067 186.087 12.28C185.847 11.84 185.513 11.4933 185.087 11.24C184.673 10.9867 184.2 10.86 183.667 10.86C183.213 10.86 182.793 10.9467 182.407 11.12C182.02 11.2933 181.693 11.5333 181.427 11.84C181.16 12.1333 180.973 12.48 180.867 12.88V14.54C180.973 14.94 181.153 15.3 181.407 15.62C181.66 15.9267 181.98 16.1733 182.367 16.36C182.753 16.5333 183.187 16.62 183.667 16.62ZM194.702 18.2C193.756 18.2 192.942 18.0133 192.262 17.64C191.582 17.2533 191.056 16.7333 190.682 16.08C190.322 15.4133 190.142 14.6533 190.142 13.8C190.142 12.9867 190.349 12.2467 190.762 11.58C191.176 10.9133 191.729 10.38 192.422 9.98C193.116 9.58 193.889 9.38 194.742 9.38C195.836 9.38 196.742 9.7 197.462 10.34C198.182 10.98 198.669 11.86 198.922 12.98L192.102 15.38L191.662 14.28L197.262 12.24L196.862 12.5C196.702 12.06 196.436 11.68 196.062 11.36C195.689 11.0267 195.202 10.86 194.602 10.86C194.096 10.86 193.642 10.9867 193.242 11.24C192.842 11.48 192.529 11.8133 192.302 12.24C192.076 12.6667 191.962 13.1533 191.962 13.7C191.962 14.2733 192.082 14.78 192.322 15.22C192.562 15.6467 192.889 15.9867 193.302 16.24C193.729 16.48 194.209 16.6 194.742 16.6C195.102 16.6 195.449 16.5333 195.782 16.4C196.129 16.2667 196.449 16.0933 196.742 15.88L197.602 17.26C197.189 17.54 196.722 17.7667 196.202 17.94C195.696 18.1133 195.196 18.2 194.702 18.2ZM202.913 9.72L203.093 12.12L202.993 11.8C203.206 11.2933 203.513 10.8667 203.913 10.52C204.326 10.16 204.753 9.88667 205.193 9.7C205.646 9.5 206.039 9.4 206.373 9.4L206.273 11.24C205.646 11.2 205.093 11.32 204.613 11.6C204.146 11.88 203.773 12.2533 203.493 12.72C203.226 13.1867 203.093 13.6867 203.093 14.22V18H201.253V9.72H202.913ZM211.392 18.32C210.646 18.32 210.026 18.0933 209.532 17.64C209.052 17.1733 208.799 16.5733 208.772 15.84V9.72H210.632V15.18C210.659 15.6333 210.786 16 211.012 16.28C211.252 16.56 211.626 16.7067 212.132 16.72C212.599 16.72 213.012 16.5867 213.372 16.32C213.746 16.04 214.046 15.6667 214.272 15.2C214.499 14.72 214.612 14.18 214.612 13.58V9.72H216.472V18H214.772L214.612 15.96L214.712 16.32C214.552 16.7067 214.306 17.0533 213.972 17.36C213.652 17.6533 213.272 17.8867 212.832 18.06C212.392 18.2333 211.912 18.32 211.392 18.32Z" fill="#FF4C4C"/>
<circle cx="13" cy="13" r="13" transform="matrix(1 0 0 -1 0 26)" fill="#FF4C4C"/>
<circle cx="10.9474" cy="10.9474" r="10.9474" transform="matrix(1 0 0 -1 2.05261 23.9474)" fill="#FB9696"/>
<path d="M19.6069 17.9055C19.8293 18.0669 19.897 18.38 19.7441 18.5994C19.1341 19.4751 18.3567 20.1978 17.4642 20.7156C16.5884 21.2238 15.6254 21.5211 14.6398 21.5902C14.3631 21.6096 14.1326 21.363 14.135 21.0724L14.1858 14.9071C14.1891 14.5042 14.6175 14.2839 14.9411 14.5188L19.6069 17.9055Z" fill="#F05959"/>
<path d="M19.5706 8.36308C19.7913 8.19935 19.8559 7.88605 19.7011 7.66848C19.1064 6.83255 18.3581 6.13964 17.5025 5.63569C16.6637 5.14169 15.743 4.84166 14.7975 4.75182C14.5212 4.72558 14.2852 4.9673 14.2816 5.25853L14.2055 11.3842C14.2004 11.7949 14.6379 12.023 14.9652 11.7802L19.5706 8.36308Z" fill="#F05959"/>
<path d="M20.1503 9.25029C20.377 9.10092 20.6716 9.17889 20.7907 9.4348C21.3247 10.5823 21.5873 11.8631 21.5509 13.1606C21.5145 14.4584 21.1804 15.7256 20.5827 16.8473C20.4495 17.0972 20.1512 17.1612 19.9331 17.0016L15.0835 13.4526C14.7942 13.2409 14.8071 12.7704 15.1077 12.5724L20.1503 9.25029Z" fill="#F05959"/>
<path d="M12.0671 5.11438C12.0736 4.83831 11.8549 4.60744 11.579 4.62004C10.7079 4.65984 9.84693 4.85714 9.03108 5.20518C8.05945 5.61967 7.17086 6.23983 6.41604 7.03024C5.66123 7.82066 5.05498 8.76585 4.6319 9.81186C4.20882 10.8579 3.9772 11.9842 3.95026 13.1266C3.92332 14.2689 4.1016 15.4049 4.47491 16.4697C4.84821 17.5345 5.40924 18.5072 6.12596 19.3323C6.84268 20.1574 7.70105 20.8188 8.65207 21.2786C9.45061 21.6647 10.3013 21.9024 11.1696 21.9832C11.4445 22.0088 11.6739 21.7885 11.6804 21.5124L11.8738 13.3134L12.0671 5.11438Z" fill="#E93636" fill-opacity="0.63"/>
<path d="M10.9474 17.9263C10.9474 18.4176 10.6411 18.8158 10.2632 18.8158C9.88531 18.8158 9.57898 18.4176 9.57898 17.9263C9.57898 17.4351 10.2632 16.7632 10.2632 16.7632C10.2632 16.7632 10.9474 17.4351 10.9474 17.9263Z" fill="#F2B65C"/>
<path d="M16.0904 18.0782C16.2233 18.5512 16.0361 19.0174 15.6723 19.1196C15.3085 19.2219 14.9059 18.9213 14.773 18.4484C14.6401 17.9755 15.1171 17.1435 15.1171 17.1435C15.1171 17.1435 15.9575 17.6053 16.0904 18.0782Z" fill="#F2B65C"/>
<path d="M8.42873 15.4776C8.07187 15.8152 7.57206 15.8664 7.31237 15.5919C7.05268 15.3174 7.13144 14.8212 7.4883 14.4836C7.84515 14.146 8.80347 14.1812 8.80347 14.1812C8.80347 14.1812 8.78558 15.14 8.42873 15.4776Z" fill="#F2B65C"/>
<path d="M7.55741 12.3193C7.09907 12.1425 6.83771 11.7134 6.97366 11.3608C7.10961 11.0083 7.59139 10.8657 8.04974 11.0425C8.50809 11.2192 8.88885 12.0993 8.88885 12.0993C8.88885 12.0993 8.01576 12.496 7.55741 12.3193Z" fill="#F2B65C"/>
<path d="M17.9876 12.7275C18.4492 12.8957 18.7185 13.3198 18.5891 13.6749C18.4597 14.0299 17.9807 14.1814 17.5191 14.0132C17.0576 13.845 16.6605 12.9721 16.6605 12.9721C16.6605 12.9721 17.5261 12.5593 17.9876 12.7275Z" fill="#F2B65C"/>
<path d="M9.27507 8.81598C9.25393 8.32519 9.54285 7.91415 9.92038 7.89789C10.2979 7.88164 10.6211 8.26632 10.6422 8.75711C10.6634 9.2479 10.0087 9.94863 10.0087 9.94863C10.0087 9.94863 9.2962 9.30677 9.27507 8.81598Z" fill="#F2B65C"/>
<path d="M15.6286 8.29904C15.8719 7.87225 16.3352 7.67795 16.6635 7.86506C16.9918 8.05217 17.0608 8.54983 16.8175 8.97663C16.5743 9.40342 15.6471 9.64839 15.6471 9.64839C15.6471 9.64839 15.3854 8.72584 15.6286 8.29904Z" fill="#F2B65C"/>
</svg>
