<svg width="142" height="158" viewBox="0 0 142 158" fill="none" xmlns="http://www.w3.org/2000/svg">
<path d="M76.6811 89.8221C77.8025 89.3907 78.1334 88.7571 78.491 87.5341C80.0031 82.362 80.2625 76.7966 80.5399 71.4498C80.6793 68.764 80.6765 66.0785 80.6765 63.3906" stroke="#FF8282" stroke-width="2" stroke-linecap="round"/>
<path d="M80.9841 63.3906C82.6498 63.2926 83.9088 60.2711 85.0478 59.2244C85.8238 58.5113 86.5946 57.879 87.6432 57.8584C88.5435 57.8408 93.9516 58.0488 94.1656 57.1925C94.5212 55.7702 93.5505 54.4407 92.9704 53.2483C92.0937 51.4462 94.2968 51.4063 95.5999 50.9262C98.1412 49.9899 100.057 48.9825 102.122 47.2381C103.762 45.8535 100.876 42.8512 100.347 41.262" stroke="#FF8282" stroke-width="2" stroke-linecap="round"/>
<path d="M100.346 41.2618C100.519 39.5329 104.401 38.8025 105.708 38.4275C107.527 37.9055 110.761 37.1145 111.445 35.0638C112.078 33.1652 110.265 30.0446 109.413 28.4047C109.03 27.6671 106.797 24.1914 107.176 24.2897C108.621 24.6643 109.786 23.4759 109.037 22.0359C108.613 21.2199 106.78 19.9654 108.047 19.2527C109.76 18.2894 111.678 17.9017 113.426 16.9818C115.765 15.7504 112.381 12.6601 111.103 11.8082C109.783 10.9282 108.61 10.835 107.108 10.835" stroke="#FF8282" stroke-width="2" stroke-linecap="round"/>
<path d="M107.108 10.5276C107.564 10.0444 110.095 6.47101 109.413 6.05411C107.076 4.62561 104.781 6.67149 102.617 5.14916C101.656 4.47242 99.0704 2.73906 97.7511 3.49292C96.5686 4.16867 99.0102 7.20944 98.7927 8.18843C98.7266 8.48577 97.4816 7.82605 97.2389 7.79571C96.3739 7.68759 94.7221 7.50483 93.9606 8.06891C93.1267 8.68663 93.9494 9.94478 94.1655 10.6472C94.4492 11.5693 92.3877 10.9384 92.0141 10.9033C91.4038 10.8458 89.3198 10.4722 88.8553 11.0399C87.8913 12.218 89.9178 15.9347 90.3749 17.016C91.1652 18.8852 93.2776 21.0647 93.2776 23.1287" stroke="#FF8282" stroke-width="2" stroke-linecap="round"/>
<path d="M93.2776 23.1287C92.0837 23.1287 87.0036 22.5293 86.3795 23.7776C85.8184 24.8998 86.9586 26.7919 87.3698 27.773C88.0901 29.492 88.8431 31.2769 89.7602 32.8954C90.1834 33.6421 89.8346 34.9433 89.5895 35.6785C89.1605 36.9654 88.3415 36.6163 87.1307 36.8055C84.3876 37.2341 84.3647 37.327 84.3647 40.2033C84.3647 40.9218 84.5457 41.9456 84.3305 42.645C83.9148 43.9961 81.2152 45.3521 80.1643 46.1111C79.4917 46.5969 79.0981 47.1465 78.3544 47.4771C77.5618 47.8293 75.3431 45.1683 74.7346 44.6768C74.267 44.2991 72.48 43.0566 73.898 42.645C75.883 42.0687 77.9777 42.0595 79.7204 40.8009C81.2727 39.6798 79.274 36.7546 78.7301 35.5932C78.0019 34.0385 77.2791 32.6396 76.0664 31.427" stroke="#FF8282" stroke-width="2" stroke-linecap="round"/>
<path d="M76.0664 31.427C77.4477 30.1911 85.3538 30.2815 85.0818 28.5585C84.7187 26.2592 82.561 23.4792 80.7278 22.1043C80.2802 21.7687 79.5533 21.6659 80.335 21.5238C81.7255 21.2709 89.5128 20.2599 87.643 17.8015C86.3421 16.0911 83.4809 12.7943 81.2912 12.0645" stroke="#FF8282" stroke-width="2" stroke-linecap="round"/>
<path d="M81.2914 12.0644C81.2914 9.48814 82.8148 7.45387 83.1354 4.9955C83.288 3.82572 82.647 4.11064 81.7695 4.44912C80.0986 5.0936 78.4805 6.01909 77.3642 7.45424C76.5268 8.53094 75.8627 8.45092 74.5299 8.00063C72.9669 7.47261 67.6112 5.71435 67.9732 9.0934C68.1669 10.9008 69.1119 12.4739 70.1588 13.9084C70.5309 14.4184 71.0509 15.0032 70.7734 15.6842C69.9637 17.6718 64.8102 17.6723 64.6949 19.7479C64.5691 22.0126 69.7479 22.3198 70.91 24.2215C72.0616 26.1058 63.5707 27.9026 62.6118 28.7292C61.6379 29.5687 61.0558 30.1976 59.7774 30.1976" stroke="#FF8282" stroke-width="2" stroke-linecap="round"/>
<path d="M60.392 29.8902C60.1401 27.3711 56.7232 25.2647 57.5064 22.4798C57.7554 21.5944 58.2701 18.6685 59.47 18.5185C59.8806 18.4672 65.0736 17.8545 63.9606 16.8111C62.5153 15.4561 61.0067 15.8207 61.0067 13.6181C61.0067 12.1982 62.2493 11.2524 62.8508 10.0495C63.1768 9.39736 60.3521 9.40755 60.4433 7.67616C60.5879 4.92702 62.8643 2.83051 64.6948 1" stroke="#FF8282" stroke-width="2" stroke-linecap="round"/>
<path d="M65.3096 1C63.514 1.08162 60.8313 1.27594 59.3164 2.31474C58.2351 3.05618 57.373 4.24 56.5332 5.23449C55.8745 6.01456 55.7156 5.46495 55.099 4.79055C54.2801 3.89487 53.3555 3.12261 52.4695 2.29767C51.8646 1.73446 52.0939 2.83269 52.0939 3.23677C52.0939 5.53288 51.9456 7.87934 51.7694 10.169C51.6156 12.1683 45.8199 8.4485 44.4103 8.37621C39.6424 8.13171 45.1846 13.5517 46.5617 14.8304" stroke="#FF8282" stroke-width="2" stroke-linecap="round"/>
<path d="M65.2994 37.5734C65.5918 37.4759 64.8454 38.2484 64.7819 38.3284C64.4939 38.6911 64.2762 39.0542 63.9167 39.3463C63.5622 39.6343 62.9842 40.1908 63.2295 40.6951C63.3954 41.0361 63.6498 41.4261 64.0015 41.5943C64.3096 41.7417 64.5359 41.6753 64.5359 42.0778C64.5359 43.0581 63.7226 44.2556 63.3144 45.1401C62.7301 46.406 64.3749 48.1391 64.9855 49.0931C65.551 49.9767 67.0877 53.0866 68.4719 51.0102C69.0339 50.1673 71.5597 47.4804 71.5597 49.9244C71.5597 51.4507 71.6399 52.9976 71.5597 54.5221C71.5507 54.6935 71.3289 54.7699 71.2204 54.8784C70.3637 55.735 69.6988 56.8509 69.0912 57.8898C68.5568 58.8034 68.5101 59.5717 69.0997 60.4601C70.2487 62.1915 71.5847 63.7531 72.866 65.3717C73.8295 66.5887 73.9952 67.0744 74.0367 68.6884C74.0863 70.6185 74.1554 72.5513 74.1554 74.4822C74.1554 74.8505 74.3747 75.0424 74.5287 75.3644C74.8211 75.976 74.7436 76.5871 74.6983 77.2561C74.57 79.1507 74.1912 81.0419 74.1554 82.9396C74.148 83.335 74.4087 84.4495 73.85 84.4495" stroke="#FF8282" stroke-width="2" stroke-linecap="round"/>
<path d="M73.5447 85.3657C73.5447 85.0675 73.5225 84.9552 73.3072 84.704C71.9021 83.0647 70.5753 81.5423 69.5662 79.6143C66.6761 74.0921 64.4365 68.2444 62.0759 62.479C61.8223 61.8595 61.0547 60.6325 61.4651 59.9172C61.9411 59.0876 62.5742 58.3222 63.0854 57.5081C63.5174 56.8199 65.3185 54.9708 63.8149 54.4373C63.1476 54.2005 62.4552 53.9724 61.7451 53.9198C60.7456 53.8458 61.1788 51.1238 61.1767 50.5182C61.1709 48.8368 61.1413 47.1746 61.058 45.4964C60.9345 43.0101 61.2269 40.4991 61.1682 38.006C61.1524 37.3311 61 36.7467 60.566 36.2162C60.384 35.9938 59.7863 35.528 60.3793 35.809C62.3044 36.7209 64.0976 37.4207 66.2155 37.4207" stroke="#FF8282" stroke-width="2" stroke-linecap="round"/>
<path d="M47.1149 15.916C47.8758 16.0111 46.2588 18.3129 46.1367 18.557C45.3432 20.1439 49.0162 22.2523 49.4869 23.5701C49.7638 24.3456 49.3262 24.4929 48.8022 24.915C46.9923 26.373 46.3302 27.2705 47.1149 29.5123C47.7742 31.3962 47.4491 33.282 48.1664 35.1856C49.113 37.6977 49.8663 40.6271 51.4065 42.8519C51.8412 43.4798 52.5706 43.1448 53.0082 42.7174C53.9494 41.7981 54.8296 41.1484 56.2606 41.2257C56.9659 41.2638 57.5474 43.1754 57.7767 43.7322C58.1726 44.6937 57.2877 45.4085 56.9086 46.2265C56.3316 47.4715 55.8472 48.8758 55.4781 50.2002C55.3592 50.6268 55.4143 51.6015 55.0379 51.7897" stroke="#FF8282" stroke-width="2" stroke-linecap="round"/>
<path d="M55.0378 51.7898C53.7696 49.0228 53.2199 46.1116 52.3968 43.231C52.2781 42.8156 51.6289 42.296 51.382 41.9594C50.6103 40.9071 49.8825 39.8754 49.2178 38.7559C47.8712 36.4879 46.1593 34.4104 44.1437 32.7403C43.1871 31.9477 41.7372 31.1308 41.1725 30.0015" stroke="#FF8282" stroke-width="2" stroke-linecap="round"/>
<path d="M41.1725 30.8818C41.2222 31.4785 41.5304 31.6605 41.9061 32.129C43.2646 33.8231 44.457 35.6945 45.5864 37.5455C46.6536 39.2945 47.9951 41.0979 47.9951 43.2066" stroke="#FF8282" stroke-width="2" stroke-linecap="round"/>
<path d="M47.9951 43.2064C45.4573 40.8921 42.6148 38.6924 40.4633 35.9926C39.8411 35.2117 38.9048 34.2945 38.6293 33.3026C38.2821 32.0528 38.4145 30.924 39.5096 30.2215C42.3469 28.4013 45.3437 26.9306 47.775 24.4993" stroke="#FF8282" stroke-width="2" stroke-linecap="round"/>
<path d="M47.7751 24.7194C46.1798 24.0043 45.2531 22.4181 43.5935 21.7605C42.8013 21.4466 42.2534 20.8724 42.273 20.0488C42.3031 18.7883 43.7832 18.6921 44.4739 17.8479C45.3315 16.7998 44.96 15.5581 45.3542 14.3755" stroke="#FF8282" stroke-width="2" stroke-linecap="round"/>
<path d="M45.3542 14.3756C43.3807 13.0187 40.9599 12.478 38.6661 12.1503C36.6175 11.8576 34.7457 10.7104 32.7116 10.4508C30.8744 10.2162 28.8995 10.6449 27.0995 10.9765C25.8876 11.1998 24.2843 11.2417 25.3755 12.7616C25.6973 13.2098 28.633 16.2824 28.1021 16.6009C25.9705 17.8798 23.2527 18.4878 20.8638 19.0952C19.9283 19.333 18.0564 19.6692 18.8708 21.0759C19.4032 21.9956 21.2321 22.9347 22.2943 22.9589C23.0427 22.9759 23.8613 22.6765 24.0061 23.4969C24.6675 27.245 28.5002 29.8098 28.4078 33.6941C28.3879 34.5271 27.0882 34.1686 26.4759 34.1832C25.0437 34.2173 27.5039 36.7232 27.7964 37.0443C29.8152 39.26 31.9652 41.2997 33.9099 43.5979C34.5772 44.3866 35.2304 44.999 35.2304 46.0677" stroke="#FF8282" stroke-width="2" stroke-linecap="round"/>
<path d="M47.335 58.1723C47.2791 57.7255 46.2914 52.8464 47.0293 52.6824C48.0985 52.4448 49.3166 54.7506 49.8293 55.3601C49.8688 55.4071 51.1069 57.1264 51.2598 56.3871C51.315 56.1203 51.1535 54.2453 51.5166 54.2108C52.9046 54.0786 54.1027 59.3465 54.3288 60.0797C55.4541 63.7286 57.0771 67.2107 58.4248 70.7782C58.8758 71.972 59.3971 73.0652 59.9654 74.2017C60.1328 74.5365 60.2599 75.1988 60.54 75.3388" stroke="#FF8282" stroke-width="2" stroke-linecap="round"/>
<path d="M60.54 75.3388C57.0779 70.195 53.931 64.5576 49.5847 60.0796C48.8214 59.2932 47.9951 58.2272 46.8948 57.9521" stroke="#FF8282" stroke-width="2" stroke-linecap="round"/>
<path d="M46.0144 62.3538C45.7355 62.3538 45.5628 62.3855 45.3175 62.2071C42.9245 60.4667 40.9447 58.0321 38.8494 55.9592C37.3618 54.4873 35.6819 53.0455 34.301 51.4719C33.0447 50.0403 33.9637 52.7758 34.4722 53.3182C35.2032 54.0979 36.2025 54.4492 37.211 54.6509" stroke="#FF8282" stroke-width="2" stroke-linecap="round"/>
<path d="M35.0103 46.2876C34.8609 44.3448 31.4067 43.3529 29.9851 42.5584C27.9018 41.3942 25.7571 40.8024 23.5782 39.9052C22.2984 39.3782 19.8887 38.6678 20.3992 36.9096C20.5277 36.4669 23.0914 31.2065 22.3188 30.9306C20.97 30.4489 12.3961 32.4551 12.3416 30.9306C12.2706 28.9427 12.3416 26.9415 12.3416 24.9517C12.3416 23.31 11.8664 24.525 10.7399 25.3062C8.34952 26.9641 6.08828 28.9449 4.11293 31.0896C3.19125 32.0903 2.29593 33.0237 1.44747 34.0607C0.706939 34.9658 0.866073 35.0633 2.07104 35.0633C3.57655 35.0633 4.99096 35.0736 6.47272 35.2712C7.31467 35.3834 7.83172 37.0836 8.16004 37.7655C8.85317 39.205 9.80004 41.1371 9.92071 42.7663C9.97486 43.4972 10.3183 44.4533 10.6788 45.0894C10.7782 45.2648 11.4373 46.813 11.767 46.5566C12.0437 46.3414 12.0272 45.4105 12.1705 45.0894C12.5927 44.1425 14.3744 41.9837 15.594 41.9837C15.7143 41.9837 15.4717 42.1917 15.4228 42.3016C15.2064 42.7886 15.2027 43.3442 15.2027 43.8667C15.2027 45.5446 15.7642 47.0512 15.8508 48.6963C15.877 49.1953 15.5851 50.8271 15.9853 51.2273C16.585 51.827 18.7286 50.7924 19.3843 50.567C20.8259 50.0715 20.7141 50.0962 21.0472 51.7408C21.3054 53.0157 20.9141 54.3699 21.1939 55.629C21.4654 56.8508 22.333 56.3189 23.4437 56.5093C25.102 56.7936 26.5957 57.506 28.1388 58.1232C28.4078 58.2308 26.8962 59.3707 26.6471 59.6149C26.3377 59.9183 25.6459 60.2072 26.1703 60.6175C27.0042 61.2702 28.0384 61.6505 28.9702 62.1337C32.4441 63.9349 35.5891 65.8751 39.6321 65.8751" stroke="#FF8282" stroke-width="2" stroke-linecap="round"/>
<path d="M39.4118 65.8752C38.704 65.8752 38.9717 66.9392 38.9717 67.4281C38.9717 68.0697 39.0316 68.7596 38.8494 69.3844C38.8156 69.5 38.4879 70.138 38.6904 70.228C38.9454 70.3413 39.676 69.9987 39.9254 69.959C40.8605 69.8103 41.8184 69.8368 42.762 69.8368C44.1435 69.8368 45.4334 70.1991 46.748 70.6071C48.1047 71.0281 48.617 72.9332 48.6554 74.2384C48.6831 75.1816 52.1981 73.8979 52.9837 73.8472C54.7616 73.7325 55.2476 76.489 55.7959 77.7109C56.3787 79.0097 57.0223 80.2596 57.691 81.5135C58.3854 82.8153 58.9993 83.6689 58.9993 85.1326C58.9993 86.0468 59.176 86.999 59.2194 87.9326C59.25 88.5898 60.0402 89.6055 60.3198 90.3046" stroke="#FF8282" stroke-width="2" stroke-linecap="round"/>
<path d="M60.3199 90.3045C61.8527 90.4578 63.2472 90.7447 64.8439 90.7447C66.898 90.7447 68.9521 90.7447 71.0062 90.7447C72.8492 90.7447 74.6896 90.4515 76.5205 90.2923C78.0101 90.1628 79.3645 89.2384 80.8 88.8984C82.7517 88.4361 84.5634 87.6147 86.5099 87.1011C86.9217 86.9924 88.9595 86.5413 88.9309 85.8539C88.8882 84.8302 84.9847 84.5928 84.2113 84.5823C82.9239 84.5649 81.6352 84.5823 80.3476 84.5823" stroke="#FF8282" stroke-width="2" stroke-linecap="round"/>
<path d="M60.54 90.5246C59.504 89.6037 56.9557 90.0353 55.6737 89.8643C54.6786 89.7317 47.9567 89.9593 49.0101 87.6268C49.3832 86.8006 51.8295 86.4144 52.5926 86.2696C53.6135 86.076 54.6643 86.1229 55.6982 86.1229C56.872 86.1229 58.0458 86.1229 59.2195 86.1229" stroke="#FF8282" stroke-width="2" stroke-linecap="round"/>
<path d="M74.1851 79.3003H70.8838" stroke="#FF8282" stroke-width="2" stroke-linecap="round"/>
<path d="M57.2388 81.5012C50.7444 82.0916 44.3244 84.3917 38.5194 87.2234C33.0991 89.8674 28.1194 93.3023 24.5196 98.2521C23.3885 99.8074 22.1151 101.235 21.0594 102.849C19.5536 105.152 19.1094 107.689 18.3083 110.283C15.7472 118.577 12.7124 127.869 14.5547 136.62C15.1609 139.5 15.5915 142.349 15.6429 145.301C15.6809 147.489 15.961 149.53 16.6088 151.622C16.781 152.179 16.9634 152.664 16.9634 153.249" stroke="#FF8282" stroke-width="2" stroke-linecap="round"/>
<path d="M139.33 138.063C139.33 137.778 139.373 137.538 139.428 137.256C140.226 133.176 140.235 128.735 139.929 124.613C139.533 119.277 138.256 114.069 136.885 108.914C135.805 104.853 134.488 100.743 132.3 97.1272C130.216 93.6851 126.763 90.3093 123.117 88.5439C121.174 87.6029 119.153 86.8207 117.187 85.9274C115.964 85.3714 114.825 84.6231 113.507 84.3134C109.659 83.4097 105.827 82.3586 101.965 81.5257C98.2852 80.7321 94.4544 80.5054 90.716 80.0951C86.9128 79.6777 83.9589 79.6521 80.1387 79.6521" stroke="#FF8282" stroke-width="2" stroke-linecap="round"/>
<path d="M139.59 138.577C138.63 138.897 137.932 139.447 137.1 140.018C135.631 141.025 134.202 142.256 132.551 142.957C130.402 143.87 128.093 144.532 125.888 145.297C120.823 147.053 115.78 148.005 110.52 148.947C105.959 149.763 101.563 151.04 96.9396 151.595C94.014 151.947 91.3452 150.636 88.4134 150.912C86.568 151.086 84.9621 152.093 83.0973 152.26C81.0806 152.441 79.091 152.855 77.1449 153.402C75.0686 153.985 72.93 153.864 70.818 154.151C69.4058 154.342 67.9888 154.384 66.5689 154.487C65.5043 154.565 64.4294 154.792 63.3587 154.74C61.6076 154.655 60.21 154.713 58.4638 155.068C55.9149 155.585 53.1789 155.253 50.5927 155.526C48.5078 155.747 46.256 156.94 44.1442 156.603C39.5909 155.876 35.2304 154.803 30.5921 155.049C28.8683 155.14 27.1333 155.086 25.4071 155.086C23.5005 155.086 21.8918 154.72 20.0536 154.282C19.0046 154.031 17.691 153.739 16.6094 153.739" stroke="#FF8282" stroke-width="2" stroke-linecap="round"/>
<path d="M86.4169 85.9598C87.1528 85.9598 85.938 86.0978 85.7569 86.1527C84.6115 86.5004 83.4727 86.875 82.2893 87.0767C82.1828 87.0949 80.9493 87.1781 81.4212 87.0666C83.5355 86.5668 85.8321 86.1101 88.011 86.0512C88.0598 86.0499 88.5361 85.976 88.3055 85.8735C87.6276 85.5722 86.5271 85.7771 85.8077 85.7771C84.4993 85.7771 83.3727 85.8025 82.1929 86.4371C81.699 86.7027 81.2115 87.0112 80.7764 87.3661C80.6003 87.5098 80.4407 87.7749 80.223 87.8586C79.9531 87.9624 80.5065 86.7945 80.548 86.6909C80.6639 86.401 80.7945 85.793 81.1166 85.6857" stroke="#FF8282" stroke-width="2" stroke-linecap="round"/>
<path d="M57.4478 86.9651C57.4478 87.3565 57.4975 87.7171 57.5341 88.1023C57.5386 88.1489 57.5783 88.4627 57.5189 88.4983C57.3518 88.5986 56.8904 88.5068 56.7269 88.4983C56.0143 88.4613 55.3023 88.421 54.5946 88.3257C53.5195 88.181 52.3948 88.037 51.3454 87.7419C50.5699 87.5238 51.6204 87.3428 51.914 87.2951C53.6664 87.0105 55.4923 87.1479 57.2651 87.1479" stroke="#FF8282" stroke-width="2" stroke-linecap="round"/>
<path d="M71.718 128.784C70.501 128.996 69.3007 129.375 68.0977 129.645C63.6177 130.648 59.1493 131.263 54.5576 131.347C47.3084 131.48 40.0575 131.176 32.809 131.329C29.7492 131.394 26.5361 131.585 23.4895 131.204" stroke="#FF8282" stroke-width="2" stroke-linecap="round"/>
<path d="M49.6202 136.365C55.8367 136.365 37.1825 136.885 30.9722 136.607C28.4793 136.496 25.9845 136.527 23.4897 136.527" stroke="#FF8282" stroke-width="2" stroke-linecap="round"/>
<path d="M43.3293 140.237H26.0703" stroke="#FF8282" stroke-width="2" stroke-linecap="round"/>
</svg>
