<svg width="200" height="117" viewBox="0 0 200 117" fill="none" xmlns="http://www.w3.org/2000/svg">
<line x1="15" y1="62.25" x2="183" y2="62.25" stroke="#DED2C4" stroke-opacity="0.72" stroke-width="1.5"/>
<path d="M107 117L94 117L94 6.5C94 2.91015 96.9102 -8.82083e-07 100.5 -5.68249e-07C104.09 -2.54414e-07 107 2.91015 107 6.50001L107 117Z" fill="#70604D"/>
<path d="M0 18C0 15.2386 2.23858 13 5 13H194.111C196.873 13 199.111 15.2386 199.111 18V55.0741L193.185 59.2222H199.111V72C199.111 74.7614 196.873 77 194.111 77H4.99999C2.23857 77 0 74.7614 0 72V28.4074H4.74074L0 23.0741V18Z" fill="#917A5F"/>
<line x1="6.63476e-08" y1="66.7686" x2="199.111" y2="66.7686" stroke="#BBA38B" stroke-opacity="0.72" stroke-width="1.5"/>
<line x1="4.42318e-08" y1="22.5371" x2="199.111" y2="22.5371" stroke="#BBA38B" stroke-opacity="0.72"/>
<line x1="4.42318e-08" y1="62.2778" x2="199.111" y2="62.2779" stroke="#BBA38B" stroke-opacity="0.72"/>
<path d="M64 52.7037C64 56.9583 54.1835 60.4074 42.0741 60.4074C29.9648 60.4074 20.1482 56.9583 20.1482 52.7037C20.1482 48.4491 29.9648 45 42.0741 45C54.1835 45 64 48.4491 64 52.7037ZM25.208 52.7037C25.208 56.507 31.2493 59.5902 42.0741 59.5902C52.899 59.5902 60.2052 56.507 60.2052 52.7037C60.2052 48.9004 52.899 45.8172 42.0741 45.8172C31.2493 45.8172 25.208 48.9004 25.208 52.7037Z" fill="#AF977F"/>
<path d="M73.4815 52.7037C73.4815 58.2675 57.0321 62.7778 36.7407 62.7778C16.4494 62.7778 0 58.2675 0 52.7037C0 47.14 16.4494 42.6296 36.7407 42.6296C57.0321 42.6296 73.4815 47.14 73.4815 52.7037ZM8.47863 52.7037C8.47863 57.6773 18.6018 61.7092 36.7407 61.7092C54.8797 61.7092 67.1225 57.6773 67.1225 52.7037C67.1225 47.7301 54.8797 43.6982 36.7407 43.6982C18.6018 43.6982 8.47863 47.7301 8.47863 52.7037Z" fill="#AF977F"/>
<path d="M172.896 58.7823C173.717 59.5277 174.208 59.7704 175.11 59.9558M171.428 61.2846C172.249 62.03 172.74 62.2727 173.642 62.4581M172.218 59.9594C172.96 60.7228 173.399 60.9774 174.198 61.1864M189.838 40.6896L189.076 40.1096L183.664 49.0963C183.49 49.9987 183.565 50.2586 184.425 49.6764L189.838 40.6896ZM186.49 44.5244C186.642 45.397 186.493 46.1526 186.158 46.2121C185.823 46.2716 185.428 45.6124 185.276 44.7398C185.124 43.8672 185.272 43.1117 185.607 43.0522C185.943 42.9927 186.338 43.6518 186.49 44.5244ZM187.349 42.2776C187.523 43.2749 187.302 44.1476 186.855 44.2269C186.408 44.3062 185.905 43.5621 185.731 42.5649C185.557 41.5676 185.778 40.6949 186.225 40.6156C186.672 40.5363 187.175 41.2804 187.349 42.2776ZM188.08 41.6826C188.253 42.6798 188.123 43.5365 187.788 43.596C187.452 43.6555 187.04 42.8953 186.866 41.898C186.692 40.9008 186.823 40.0441 187.158 39.9846C187.493 39.9252 187.906 40.6854 188.08 41.6826ZM189.096 40.3386C189.292 41.4605 189.088 42.4343 188.642 42.5136C188.195 42.5929 187.674 41.7478 187.478 40.6259C187.283 39.504 187.486 38.5302 187.933 38.4509C188.38 38.3716 188.901 39.2167 189.096 40.3386ZM189.709 39.0665C189.883 40.0637 189.661 40.9365 189.214 41.0158C188.768 41.0951 188.264 40.351 188.091 39.3537C187.917 38.3565 188.138 37.4838 188.585 37.4044C189.032 37.3251 189.535 38.0693 189.709 39.0665ZM190.843 38.8099C190.614 39.8519 190.1 40.5958 189.693 40.4716C189.287 40.3473 189.143 39.4019 189.372 38.3599C189.601 37.318 190.116 36.574 190.522 36.6983C190.929 36.8225 191.072 37.7679 190.843 38.8099ZM191.134 40.2022C190.287 40.7062 189.433 40.7824 189.226 40.3723C189.018 39.9622 189.536 39.2211 190.383 38.717C191.23 38.213 192.084 38.1368 192.292 38.5469C192.499 38.957 191.981 39.6981 191.134 40.2022ZM187.505 46.6698C186.685 46.7542 185.977 46.4484 185.924 45.9869C185.872 45.5253 186.494 45.0828 187.314 44.9984C188.134 44.914 188.841 45.2198 188.894 45.6813C188.947 46.1429 188.325 46.5854 187.505 46.6698ZM188.302 45.3889C187.482 45.4732 186.775 45.1675 186.722 44.7059C186.669 44.2444 187.291 43.8018 188.111 43.7174C188.931 43.633 189.639 43.9388 189.692 44.4004C189.745 44.8619 189.123 45.3045 188.302 45.3889ZM189.1 44.108C188.28 44.1923 187.573 43.8866 187.52 43.425C187.467 42.9635 188.089 42.5209 188.909 42.4365C189.729 42.3521 190.437 42.6579 190.489 43.1195C190.542 43.581 189.92 44.0236 189.1 44.108ZM189.898 42.827C189.078 42.9114 188.37 42.6056 188.318 42.1441C188.265 41.6825 188.887 41.24 189.707 41.1556C190.527 41.0712 191.234 41.3769 191.287 41.8385C191.34 42.3001 190.718 42.7426 189.898 42.827ZM190.696 41.5461C189.876 41.6304 189.168 41.3247 189.115 40.8631C189.063 40.4016 189.685 39.959 190.505 39.8746C191.325 39.7902 192.032 40.096 192.085 40.5576C192.138 41.0191 191.516 41.4617 190.696 41.5461ZM188.23 39.6197L185.907 38.6628C184.367 44.1942 183.417 47.2288 180.676 51.8453C181.038 53.2042 181.439 53.6076 183 52.8022C184.289 46.6176 185.602 43.9625 188.23 39.6197ZM184.708 44.018C185.013 44.7738 185.001 45.4926 184.682 45.6234C184.363 45.7542 183.858 45.2476 183.553 44.4917C183.249 43.7359 183.26 43.0172 183.579 42.8863C183.898 42.7555 184.403 43.2622 184.708 44.018ZM185.154 41.7847C185.502 42.6484 185.439 43.4901 185.014 43.6645C184.589 43.839 183.962 43.2801 183.614 42.4163C183.266 41.5525 183.329 40.7109 183.754 40.5365C184.179 40.362 184.806 40.9209 185.154 41.7847ZM185.766 41.0778C186.114 41.9416 186.138 42.7479 185.819 42.8787C185.5 43.0096 184.959 42.4154 184.611 41.5516C184.263 40.6878 184.24 39.8815 184.558 39.7507C184.877 39.6198 185.418 40.214 185.766 41.0778ZM186.527 39.6265C186.919 40.5983 186.891 41.5275 186.466 41.7019C186.041 41.8763 185.379 41.23 184.987 40.2582C184.596 39.2864 184.623 38.3573 185.048 38.1828C185.473 38.0084 186.136 38.6548 186.527 39.6265ZM186.903 38.3332C187.251 39.197 187.189 40.0386 186.763 40.213C186.338 40.3875 185.711 39.8286 185.363 38.9648C185.015 38.1011 185.078 37.2594 185.503 37.085C185.928 36.9105 186.555 37.4694 186.903 38.3332ZM187.973 37.8402C187.933 38.837 187.559 39.6293 187.137 39.61C186.716 39.5906 186.407 38.7669 186.447 37.7701C186.487 36.7734 186.861 35.981 187.282 36.0003C187.704 36.0197 188.013 36.8434 187.973 37.8402ZM188.506 39.0351C187.763 39.6862 186.937 39.9514 186.66 39.6273C186.383 39.3033 186.761 38.5128 187.504 37.8617C188.247 37.2106 189.073 36.9455 189.35 37.2695C189.627 37.5935 189.249 38.384 188.506 39.0351ZM186.087 45.7291C185.296 45.9938 184.546 45.8791 184.412 45.473C184.278 45.0668 184.811 44.523 185.602 44.2583C186.394 43.9937 187.143 44.1084 187.277 44.5145C187.411 44.9207 186.878 45.4645 186.087 45.7291ZM186.644 44.3853C185.853 44.65 185.103 44.5353 184.969 44.1291C184.835 43.723 185.368 43.1792 186.159 42.9145C186.95 42.6498 187.7 42.7645 187.834 43.1706C187.968 43.5768 187.435 44.1206 186.644 44.3853ZM187.2 43.0414C186.409 43.3061 185.659 43.1914 185.526 42.7852C185.392 42.3791 185.925 41.8353 186.716 41.5706C187.507 41.3059 188.257 41.4206 188.391 41.8268C188.524 42.2329 187.992 42.7767 187.2 43.0414ZM187.757 41.6975C186.966 41.9622 186.216 41.8475 186.082 41.4414C185.948 41.0352 186.481 40.4914 187.272 40.2267C188.063 39.9621 188.813 40.0767 188.947 40.4829C189.081 40.889 188.548 41.4329 187.757 41.6975ZM188.314 40.3536C187.523 40.6183 186.773 40.5036 186.639 40.0975C186.505 39.6913 187.038 39.1475 187.829 38.8828C188.62 38.6181 189.37 38.7328 189.504 39.139C189.638 39.5451 189.105 40.0889 188.314 40.3536ZM194.809 42.4195L193.168 40.1776C189.026 45.0521 186.657 47.6691 181.874 50.9511C181.53 52.5482 181.695 53.181 183.515 53.193C187.753 47.5095 190.264 45.4799 194.809 42.4195ZM189.423 45.0543C189.326 45.9984 188.959 46.7336 188.604 46.6963C188.249 46.6591 188.04 45.8635 188.137 44.9194C188.234 43.9753 188.601 43.2401 188.956 43.2774C189.311 43.3146 189.52 44.1102 189.423 45.0543ZM190.936 42.9913C190.824 44.0703 190.35 44.9047 189.877 44.8551C189.403 44.8054 189.11 43.8904 189.221 42.8114C189.332 41.7324 189.806 40.898 190.28 40.9476C190.753 40.9973 191.047 41.9123 190.936 42.9913ZM191.843 42.5928C191.732 43.6718 191.354 44.5163 190.999 44.4791C190.644 44.4418 190.446 43.5369 190.557 42.4579C190.668 41.3789 191.046 40.5344 191.402 40.5717C191.757 40.6089 191.954 41.5138 191.843 42.5928ZM193.255 41.5067C193.13 42.7206 192.645 43.6644 192.171 43.6147C191.698 43.565 191.415 42.5407 191.54 41.3268C191.666 40.1129 192.151 39.1692 192.624 39.2188C193.098 39.2685 193.38 40.2928 193.255 41.5067ZM194.238 40.3756C194.127 41.4546 193.653 42.289 193.179 42.2394C192.706 42.1897 192.412 41.2747 192.524 40.1957C192.635 39.1167 193.109 38.2823 193.582 38.3319C194.056 38.3816 194.349 39.2966 194.238 40.3756ZM195.456 40.4448C194.926 41.4515 194.193 42.0668 193.819 41.8193C193.445 41.5717 193.571 40.555 194.102 39.5484C194.632 38.5417 195.365 37.9264 195.739 38.1739C196.113 38.4215 195.986 39.4382 195.456 40.4448ZM195.349 41.9654C194.351 42.2359 193.467 42.0631 193.376 41.5794C193.284 41.0957 194.02 40.4843 195.019 40.2138C196.017 39.9432 196.901 40.116 196.992 40.5997C197.084 41.0834 196.348 41.6948 195.349 41.9654ZM189.83 47.5641C188.979 47.4099 188.353 46.8867 188.433 46.3954C188.512 45.9042 189.267 45.631 190.118 45.7852C190.969 45.9394 191.595 46.4627 191.516 46.9539C191.436 47.4451 190.682 47.7184 189.83 47.5641ZM191.003 46.4785C190.152 46.3243 189.526 45.8011 189.605 45.3098C189.685 44.8186 190.439 44.5454 191.291 44.6996C192.142 44.8538 192.768 45.377 192.688 45.8683C192.609 46.3595 191.854 46.6328 191.003 46.4785ZM192.176 45.3929C191.324 45.2387 190.699 44.7154 190.778 44.2242C190.858 43.7329 191.612 43.4597 192.463 43.6139C193.315 43.7681 193.94 44.2914 193.861 44.7826C193.781 45.2739 193.027 45.5471 192.176 45.3929ZM193.348 44.3072C192.497 44.153 191.871 43.6298 191.951 43.1385C192.03 42.6473 192.785 42.374 193.636 42.5283C194.487 42.6825 195.113 43.2057 195.034 43.697C194.954 44.1882 194.2 44.4614 193.348 44.3072ZM194.521 43.2216C193.67 43.0674 193.044 42.5441 193.123 42.0529C193.203 41.5617 193.957 41.2884 194.809 41.4427C195.66 41.5969 196.286 42.1201 196.206 42.6114C196.127 43.1026 195.372 43.3758 194.521 43.2216ZM180.942 52.1405L181.586 51.0591L182.952 51.8872L182.308 52.9686L180.942 52.1405ZM167.13 67.5102L175.165 53.1694C176.208 51.3096 178.187 50.1878 180.303 50.2581C182.421 50.3284 184.325 51.5808 185.243 53.5077L185.357 53.7479C186.407 55.9514 186.07 58.5722 184.498 60.4326L174.258 72.5503L173.062 73.7534C169.798 77.0372 164.467 73.2614 166.418 69.0478L167.13 67.5102Z" stroke="#F5F5F5" stroke-linecap="round"/>
</svg>
