<svg width="323" height="74" viewBox="0 0 323 74" fill="none" xmlns="http://www.w3.org/2000/svg">
<path d="M70.2238 19.328C70.1598 19.648 70.0958 19.968 70.0318 20.288C70.0318 20.608 70.0318 20.896 70.0318 21.152V23.072C70.0958 23.84 70.0318 24.64 69.8398 25.472C69.7118 26.24 69.3278 27.136 68.6878 28.16C68.3038 28.736 67.5678 29.568 66.4798 30.656C66.1598 30.976 65.6798 31.072 65.0398 30.944C64.8478 30.88 64.6238 30.816 64.3678 30.752C64.1758 30.688 64.0158 30.624 63.8878 30.56C63.5038 30.56 63.2478 30.592 63.1198 30.656C62.6078 30.848 62.0958 30.976 61.5838 31.04C61.0718 31.104 60.5598 31.104 60.0478 31.04C58.7678 30.592 57.8398 29.824 57.2638 28.736C57.1998 28.544 57.1358 28.352 57.0718 28.16C57.0078 27.968 57.0398 27.776 57.1678 27.584C57.2318 27.264 57.2638 27.008 57.2638 26.816C57.3278 26.56 57.3278 26.304 57.2638 26.048C56.8798 24.576 56.6878 23.104 56.6878 21.632C56.7518 20.16 56.8478 18.656 56.9758 17.12C57.9998 16.032 58.8958 14.912 59.6638 13.76C60.0478 13.568 60.4958 13.408 61.0078 13.28C61.5838 13.088 62.1278 12.928 62.6398 12.8C63.1518 12.8 63.6958 12.832 64.2718 12.896C64.8478 12.896 65.4558 12.928 66.0958 12.992C66.6078 13.248 67.0878 13.504 67.5358 13.76C68.0478 14.016 68.5598 14.24 69.0718 14.432C69.7758 14.752 70.0638 15.296 69.9358 16.064C69.8718 16.384 69.7758 16.736 69.6478 17.12C69.5198 17.44 69.4238 17.792 69.3598 18.176C69.4238 18.304 69.5198 18.432 69.6478 18.56C69.7758 18.624 69.8718 18.72 69.9358 18.848C69.9998 19.04 70.0958 19.2 70.2238 19.328ZM54.2878 28.16C53.9678 28.992 53.5198 29.568 52.9438 29.888C51.7278 30.528 50.5118 30.976 49.2958 31.232C48.9118 31.296 48.4958 31.232 48.0478 31.04C47.8558 30.912 47.6638 30.784 47.4718 30.656C47.2798 30.464 47.0558 30.24 46.7998 29.984C46.2238 29.856 45.6158 29.76 44.9758 29.696C44.3998 29.568 43.8558 29.472 43.3438 29.408C43.2798 29.28 43.1838 29.184 43.0558 29.12C42.9278 29.056 42.8638 28.992 42.8638 28.928C42.6718 28.352 42.4478 27.808 42.1918 27.296C41.9358 26.72 41.6798 26.144 41.4238 25.568C41.5518 25.056 41.6798 24.608 41.8078 24.224C41.9358 23.776 41.9038 23.328 41.7118 22.88V20.864C41.8398 20.608 41.9358 20.416 41.9998 20.288C42.1278 20.096 42.2238 19.904 42.2878 19.712C42.2238 19.264 42.0638 18.88 41.8078 18.56C41.5518 18.176 41.5198 17.728 41.7118 17.216C41.8398 16.896 41.9998 16.576 42.1918 16.256C42.4478 15.872 42.6718 15.488 42.8638 15.104C43.4398 14.784 43.9838 14.56 44.4958 14.432C45.0078 14.24 45.5838 14.208 46.2238 14.336C46.4158 14.4 46.7998 14.368 47.3758 14.24C47.9518 14.176 48.4958 14.176 49.0078 14.24C49.5838 14.304 50.1278 14.56 50.6398 15.008C50.8958 15.264 51.2158 15.424 51.5998 15.488C51.9838 15.552 52.3678 15.648 52.7518 15.776C52.8798 16.032 53.0398 16.288 53.2318 16.544C53.4878 16.736 53.7118 16.96 53.9038 17.216C53.8398 18.24 53.8078 18.944 53.8078 19.328C53.8078 19.648 53.9358 20.32 54.1918 21.344C54.1278 21.792 54.0318 22.24 53.9038 22.688C53.8398 23.072 53.7438 23.52 53.6158 24.032C53.7438 24.608 53.8398 25.184 53.9038 25.76C54.0318 26.336 54.1598 26.976 54.2878 27.68V28.16ZM65.3278 55.328C65.1358 55.776 64.8478 56.128 64.4638 56.384C64.1438 56.576 63.8558 56.832 63.5998 57.152C63.3438 57.472 63.0878 57.792 62.8318 58.112C62.5758 58.432 62.2878 58.752 61.9678 59.072C61.7758 59.392 61.5838 59.744 61.3918 60.128C61.1998 60.448 61.0398 60.768 60.9118 61.088C60.5278 61.536 60.1438 61.952 59.7598 62.336C59.4398 62.72 59.1198 63.072 58.7998 63.392C58.4798 63.712 58.1598 64 57.8398 64.256C57.5198 64.448 57.1678 64.576 56.7838 64.64C56.5278 64.512 56.3038 64.384 56.1118 64.256C55.9198 64.128 55.6638 64 55.3438 63.872C54.9598 63.936 54.5758 64 54.1918 64.064C53.8078 64.128 53.4558 64.192 53.1358 64.256C52.7518 64 52.5278 63.84 52.4638 63.776C52.0798 63.008 51.5998 62.368 51.0238 61.856C50.4478 61.344 49.7758 60.864 49.0078 60.416C48.1118 59.968 47.3118 59.296 46.6078 58.4C46.4158 58.08 46.1278 57.824 45.7438 57.632C45.6798 57.568 45.5518 57.472 45.3598 57.344C45.1678 57.152 45.0718 57.056 45.0718 57.056L44.4958 56.672L44.3038 56.384C43.4718 55.488 42.6398 54.72 41.8078 54.08C40.9758 53.376 40.1118 52.544 39.2158 51.584C39.0878 51.264 38.8638 50.912 38.5438 50.528C38.2878 50.08 37.9678 49.632 37.5838 49.184C37.2638 48.736 36.9118 48.32 36.5278 47.936C36.0798 47.552 35.6318 47.232 35.1838 46.976C34.7998 46.72 34.3198 46.592 33.7438 46.592C33.2318 46.656 32.7198 46.592 32.2078 46.4C31.7598 46.208 31.3118 45.984 30.8638 45.728C30.5438 45.536 30.2238 45.376 29.9038 45.248C29.5838 45.056 29.3278 44.832 29.1358 44.576C28.5598 44.064 27.9518 43.648 27.3118 43.328C26.6718 43.008 25.9998 42.72 25.2958 42.464C24.3998 42.784 23.7598 43.072 23.3758 43.328C22.9918 43.584 22.5438 44 22.0318 44.576C21.7758 44.832 21.4878 45.088 21.1678 45.344C20.8478 45.6 20.6878 45.984 20.6878 46.496C20.6878 46.56 20.5918 46.688 20.3998 46.88C19.6958 47.328 19.1198 47.872 18.6718 48.512C18.2878 49.152 17.9358 49.92 17.6158 50.816C16.9118 51.392 16.4318 51.744 16.1758 51.872C15.9838 51.936 15.7918 52.032 15.5998 52.16C15.4718 52.288 15.1518 52.736 14.6398 53.504C14.3838 53.824 14.1278 54.144 13.8718 54.464C13.6798 54.784 13.4238 55.104 13.1038 55.424C12.7838 55.68 12.4318 55.936 12.0478 56.192C11.7278 56.384 11.4078 56.64 11.0878 56.96C10.7678 56.896 10.4158 56.832 10.0318 56.768C9.64778 56.704 9.29578 56.672 8.97578 56.672C8.71978 56.672 8.43178 56.736 8.11178 56.864C7.85578 56.928 7.59978 56.96 7.34378 56.96C6.89578 56.832 6.51178 56.64 6.19178 56.384C5.93578 56.128 5.64778 55.872 5.32778 55.616C5.07178 54.912 4.71978 54.272 4.27178 53.696C3.82378 53.12 3.43978 52.48 3.11978 51.776C2.86378 51.072 2.51178 50.464 2.06378 49.952C1.67978 49.376 1.29578 48.768 0.911778 48.128C1.03978 47.616 1.13578 47.104 1.19978 46.592C1.32778 46.016 1.42378 45.504 1.48778 45.056C1.61578 44.928 1.74378 44.928 1.87178 45.056C1.99978 45.12 2.09578 45.184 2.15978 45.248C2.28778 45.312 2.41578 45.312 2.54378 45.248C2.73578 45.184 2.83178 45.12 2.83178 45.056V43.712C3.27978 43.264 3.50378 43.072 3.50378 43.136C3.56778 43.136 3.59978 43.168 3.59978 43.232C3.66378 43.232 3.91978 42.976 4.36778 42.464C5.07178 42.144 5.99978 41.6 7.15178 40.832C7.59978 40.192 8.11178 39.648 8.68778 39.2C9.32778 38.752 9.83978 38.208 10.2238 37.568C10.5438 36.864 10.8638 36.192 11.1838 35.552C11.5678 34.912 11.9518 34.24 12.3358 33.536C12.5278 33.408 12.7518 33.248 13.0078 33.056C13.3278 32.8 13.6478 32.608 13.9678 32.48C14.2238 32.16 14.3838 31.84 14.4478 31.52C14.5758 31.136 14.6718 30.784 14.7358 30.464C14.7998 30.4 14.8638 30.336 14.9278 30.272C14.9918 30.144 15.0878 30.048 15.2158 29.984C15.3438 29.92 15.5038 29.856 15.6958 29.792C15.8878 29.664 16.0158 29.472 16.0798 29.216C16.2078 29.088 16.2718 28.928 16.2718 28.736C16.3358 28.48 16.3998 28.288 16.4638 28.16C16.5918 27.84 16.7198 27.552 16.8478 27.296C17.0398 27.04 17.2638 26.88 17.5198 26.816C17.7758 26.688 17.9998 26.656 18.1918 26.72C18.4478 26.784 18.6718 26.816 18.8638 26.816C19.3758 26.944 19.8878 26.848 20.3998 26.528C20.7198 26.272 21.0398 26.048 21.3598 25.856C21.6798 25.6 21.9998 25.344 22.3198 25.088C22.5758 24.96 22.7678 24.832 22.8958 24.704C23.0878 24.512 23.3118 24.384 23.5678 24.32C24.3358 23.744 24.9758 23.84 25.4878 24.608C25.6798 24.8 25.8398 25.024 25.9678 25.28C26.9278 25.536 27.8238 25.76 28.6558 25.952C29.4878 26.08 30.3198 26.208 31.1518 26.336C31.2798 26.528 31.3438 26.656 31.3438 26.72C31.3438 26.784 31.3758 26.88 31.4398 27.008C31.5678 27.264 31.7278 27.36 31.9198 27.296C32.1758 27.168 32.3998 27.168 32.5918 27.296C33.1038 27.424 33.4558 27.552 33.6478 27.68C33.9038 28 34.1918 28.288 34.5118 28.544C34.8958 28.8 35.2478 29.024 35.5678 29.216C35.8878 29.472 36.2078 29.696 36.5278 29.888C36.8478 30.016 37.1678 30.176 37.4878 30.368C37.8078 30.56 38.1278 31.008 38.4478 31.712C39.9198 32.544 41.3918 33.696 42.8638 35.168C43.0558 35.36 43.2798 35.552 43.5358 35.744C43.7918 35.936 44.0158 36.128 44.2078 36.32C44.5918 36.64 44.9758 36.992 45.3598 37.376C45.8078 37.696 46.1598 38.08 46.4158 38.528C46.5438 38.784 46.6718 39.008 46.7998 39.2C46.9918 39.392 47.1838 39.584 47.3758 39.776C47.8878 40.16 48.3998 40.576 48.9118 41.024C49.4238 41.472 49.9038 41.888 50.3518 42.272C50.9918 42.72 51.5998 43.168 52.1758 43.616C52.7518 44 53.2958 44.448 53.8078 44.96C54.1918 45.664 54.7358 46.208 55.4398 46.592C56.1438 46.912 56.8158 47.232 57.4558 47.552C58.6718 48.128 59.7278 48.768 60.6238 49.472C61.0078 49.856 61.4558 50.208 61.9678 50.528C62.4798 50.784 62.9598 51.072 63.4078 51.392C63.9838 51.776 64.1758 52.32 63.9838 53.024C63.9838 53.024 63.9838 53.12 63.9838 53.312C64.0478 53.568 64.2078 53.76 64.4638 53.888C64.7198 53.952 64.9118 54.048 65.0398 54.176C65.2318 54.368 65.3278 54.56 65.3278 54.752C65.3278 54.944 65.3278 55.136 65.3278 55.328ZM126.245 8.192C126.501 9.024 126.501 9.888 126.245 10.784C125.989 11.616 125.957 12.48 126.149 13.376C126.021 14.208 125.989 15.04 126.053 15.872C126.181 16.704 126.181 17.568 126.053 18.464C125.925 18.784 125.733 19.168 125.477 19.616C125.285 20 125.125 20.384 124.997 20.768C124.869 20.832 124.773 20.896 124.709 20.96C124.645 20.96 124.549 20.992 124.421 21.056C123.845 21.184 123.269 21.28 122.693 21.344C122.117 21.408 121.541 21.44 120.965 21.44C120.197 21.376 119.429 21.376 118.661 21.44C117.957 21.504 117.189 21.6 116.357 21.728C115.717 21.408 115.141 21.12 114.629 20.864C114.117 20.608 113.605 20.416 113.093 20.288C112.901 19.84 112.805 19.424 112.805 19.04C112.805 18.592 112.805 18.176 112.805 17.792C112.869 17.408 112.901 17.024 112.901 16.64C112.965 16.256 113.093 15.936 113.285 15.68C113.541 14.976 113.701 14.304 113.765 13.664C113.893 12.96 113.989 12.288 114.053 11.648C114.117 11.072 114.213 10.496 114.341 9.92C114.469 9.344 114.469 8.8 114.341 8.288C114.725 7.584 115.141 7.2 115.589 7.136C116.101 7.136 116.645 7.136 117.221 7.136C117.797 7.136 118.341 7.232 118.853 7.424C120.325 7.872 121.893 7.808 123.557 7.232C123.621 7.168 123.685 7.136 123.749 7.136C123.877 7.136 123.973 7.104 124.037 7.04C124.549 7.104 124.933 7.264 125.189 7.51999C125.509 7.712 125.861 7.936 126.245 8.192ZM110.597 16.352C110.213 17.056 109.957 17.568 109.829 17.888C109.765 18.144 109.605 18.752 109.349 19.712C109.221 19.776 109.029 19.84 108.773 19.904C108.581 19.968 108.389 20.032 108.197 20.096C108.197 20.736 108.165 21.216 108.101 21.536C108.037 21.6 107.973 21.664 107.909 21.728C107.909 21.728 107.877 21.76 107.813 21.824C107.365 21.952 106.917 22.08 106.469 22.208C106.021 22.336 105.637 22.464 105.317 22.592C104.869 22.656 104.517 22.624 104.261 22.496C104.005 22.304 103.813 22.112 103.685 21.92C103.557 21.984 103.429 22.048 103.301 22.112C103.237 22.112 103.141 22.144 103.013 22.208C102.245 22.784 101.413 22.816 100.517 22.304C100.453 21.984 100.357 21.632 100.229 21.248C100.101 20.8 99.941 20.416 99.749 20.096C99.685 19.712 99.461 19.392 99.077 19.136C98.821 18.496 98.789 17.888 98.981 17.312C99.173 16.736 99.269 16.128 99.269 15.488C98.821 14.4 98.597 13.248 98.597 12.032C98.597 10.816 98.629 9.59999 98.693 8.384C98.693 8.256 98.725 8.16 98.789 8.096C98.853 8.032 98.917 7.968 98.981 7.904C99.621 8.224 100.293 8.448 100.997 8.576C101.701 8.704 102.405 8.64 103.109 8.384C103.429 8.256 103.749 8.16 104.069 8.096C104.389 8.032 104.677 7.968 104.933 7.904C105.253 7.776 105.541 7.68 105.797 7.616C106.053 7.552 106.277 7.488 106.469 7.424C106.789 7.296 107.077 7.232 107.333 7.232C107.653 7.232 107.973 7.2 108.293 7.136C108.933 7.264 109.541 7.488 110.117 7.808C110.117 7.936 110.117 8.064 110.117 8.192C110.181 8.32 110.181 8.448 110.117 8.576C110.053 8.96 109.989 9.376 109.925 9.824C109.925 10.272 109.957 10.688 110.021 11.072C110.405 12.352 110.405 13.664 110.021 15.008C109.957 15.264 110.149 15.712 110.597 16.352ZM115.877 49.568L115.205 52.256C115.013 52.64 114.757 52.992 114.437 53.312C114.373 53.44 114.341 53.6 114.341 53.792C114.405 53.984 114.373 54.144 114.245 54.272C114.053 54.592 113.861 54.944 113.669 55.328C113.541 55.648 113.413 55.968 113.285 56.288C113.029 56.672 112.741 56.928 112.421 57.056C112.101 57.184 111.781 57.408 111.461 57.728C111.525 57.984 111.557 58.304 111.557 58.688V59.36C111.493 59.424 111.461 59.52 111.461 59.648C111.461 59.712 111.429 59.808 111.365 59.936C110.597 60.896 109.829 61.856 109.061 62.816C108.293 63.776 107.525 64.704 106.757 65.6C106.501 65.856 106.181 66.112 105.797 66.368C105.477 66.624 105.157 66.912 104.837 67.232C104.773 67.296 104.677 67.328 104.549 67.328C104.485 67.328 104.389 67.36 104.261 67.424C103.813 67.424 103.365 67.584 102.917 67.904C102.533 68.16 102.085 68.384 101.573 68.576C101.189 69.152 100.965 69.504 100.901 69.632C100.581 70.016 100.197 70.208 99.749 70.208C99.365 70.272 99.013 70.432 98.693 70.688C98.629 70.752 98.533 70.848 98.405 70.976C98.341 71.104 98.277 71.264 98.213 71.456C98.021 71.84 97.701 72.096 97.253 72.224C96.805 72.224 96.357 72.224 95.909 72.224C95.461 72.288 94.981 72.288 94.469 72.224C94.213 72.224 93.957 72.16 93.701 72.032C93.509 71.904 93.253 71.808 92.933 71.744C92.869 71.808 92.805 71.808 92.741 71.744C92.677 71.744 92.581 71.776 92.453 71.84C91.237 72.416 90.021 72.32 88.805 71.552C88.357 71.232 87.877 70.912 87.365 70.592C86.853 70.336 86.341 70.048 85.829 69.728C85.701 69.6 85.573 69.408 85.445 69.152C85.317 68.96 85.189 68.736 85.061 68.48C84.677 67.776 84.133 67.328 83.429 67.136C83.109 67.008 82.789 66.88 82.469 66.752C82.213 66.56 81.925 66.432 81.605 66.368C81.349 66.048 81.029 65.728 80.645 65.408C80.325 65.024 80.005 64.64 79.685 64.256C79.493 64 79.333 63.776 79.205 63.584C79.077 63.392 78.949 63.168 78.821 62.912C78.565 62.272 78.277 61.696 77.957 61.184C77.637 60.608 77.285 60.096 76.901 59.648C76.773 59.328 76.645 59.008 76.517 58.688C76.389 58.368 76.293 58.048 76.229 57.728C76.229 56.896 76.133 56.096 75.941 55.328C75.749 54.56 75.557 53.792 75.365 53.024C75.301 52.704 75.237 52.384 75.173 52.064C75.173 51.744 75.173 51.424 75.173 51.104C75.237 50.592 75.269 50.08 75.269 49.568C75.269 49.056 75.269 48.576 75.269 48.128C75.333 48 75.397 47.84 75.461 47.648C75.589 47.392 75.717 47.2 75.845 47.072C75.461 46.048 75.205 45.376 75.077 45.056C75.013 44.736 74.981 44.096 74.981 43.136C74.917 42.176 74.885 41.184 74.885 40.16C74.949 39.072 74.981 37.984 74.981 36.896C75.109 36.64 75.205 36.416 75.269 36.224C75.397 35.968 75.557 35.744 75.749 35.552V34.88C75.557 34.112 75.557 33.344 75.749 32.576C75.877 32.256 75.973 31.904 76.037 31.52C76.101 31.136 76.069 30.752 75.941 30.368C75.813 30.24 75.813 30.016 75.941 29.696C76.197 29.184 76.293 28.672 76.229 28.16C76.229 27.584 76.261 27.04 76.325 26.528C76.453 26.144 76.453 25.792 76.325 25.472C76.197 25.088 76.165 24.704 76.229 24.32C76.421 23.936 76.517 23.552 76.517 23.168C76.517 22.784 76.517 22.368 76.517 21.92C76.517 21.792 76.549 21.664 76.613 21.536C76.741 21.408 76.837 21.248 76.901 21.056C76.901 20.736 76.773 20.416 76.517 20.096C76.325 19.712 76.325 19.328 76.517 18.944C76.645 18.688 76.773 18.624 76.901 18.752C77.093 18.816 77.157 18.784 77.093 18.656C77.029 18.528 77.061 18.528 77.189 18.656C77.381 18.592 77.413 18.4 77.285 18.08C77.093 17.696 77.029 17.472 77.093 17.408C77.221 17.28 77.189 16.992 76.997 16.544C76.805 15.648 76.805 14.784 76.997 13.952C77.189 13.12 77.669 12.416 78.437 11.84C78.949 11.712 79.397 11.68 79.781 11.744C80.165 11.808 80.581 11.744 81.029 11.552C81.349 11.424 81.669 11.392 81.989 11.456C82.373 11.456 82.757 11.456 83.141 11.456C83.333 11.456 83.557 11.456 83.813 11.456C84.133 11.392 84.421 11.424 84.677 11.552C85.701 11.936 86.789 12.064 87.941 11.936C88.197 11.872 88.421 11.872 88.613 11.936C88.805 11.936 88.997 11.936 89.189 11.936C89.701 11.936 90.213 11.936 90.725 11.936C91.301 11.872 91.813 11.712 92.261 11.456C92.709 11.392 93.029 11.616 93.221 12.128V14.528C92.965 15.168 92.645 15.808 92.261 16.448C92.325 16.704 92.357 16.928 92.357 17.12C92.357 17.248 92.389 17.472 92.453 17.792L91.973 19.904C91.781 20.416 91.781 20.96 91.973 21.536C92.101 21.92 92.101 22.368 91.973 22.88C91.717 23.328 91.557 23.84 91.493 24.416C91.493 24.992 91.493 25.536 91.493 26.048C91.493 26.688 91.461 27.296 91.397 27.872C91.333 28.384 91.205 28.96 91.013 29.6C90.885 30.368 90.821 31.168 90.821 32C90.821 32.832 90.853 33.632 90.917 34.4C90.981 34.592 91.045 34.784 91.109 34.976C91.173 35.104 91.205 35.264 91.205 35.456C91.397 36.416 91.461 37.184 91.397 37.76C91.397 38.272 91.269 39.104 91.013 40.256C91.205 41.28 91.301 42.24 91.301 43.136C91.365 43.392 91.365 43.68 91.301 44C91.301 44.256 91.301 44.544 91.301 44.864C91.237 45.12 91.141 45.376 91.013 45.632C90.949 45.888 90.917 46.176 90.917 46.496C90.853 46.816 90.821 47.2 90.821 47.648C90.885 48.032 90.917 48.48 90.917 48.992C90.981 49.248 91.077 49.568 91.205 49.952C91.333 50.272 91.429 50.592 91.493 50.912C91.877 51.36 92.229 51.808 92.549 52.256C92.933 52.704 93.413 53.056 93.989 53.312C94.373 53.312 94.693 53.28 94.949 53.216C95.845 52.704 96.709 52.64 97.541 53.024C97.797 53.088 97.989 53.152 98.117 53.216C98.309 53.216 98.533 53.248 98.789 53.312C99.237 53.312 99.525 53.248 99.653 53.12C100.037 52.928 100.389 52.736 100.709 52.544C101.029 52.288 101.317 51.968 101.573 51.584C101.637 51.2 101.861 50.976 102.245 50.912C102.885 50.656 103.301 50.208 103.493 49.568C103.493 49.248 103.621 48.96 103.877 48.704C104.517 48.192 104.965 47.616 105.221 46.976C105.541 46.272 105.829 45.568 106.085 44.864C106.213 44.352 106.469 43.968 106.853 43.712C107.045 43.776 107.269 43.84 107.525 43.904C107.781 43.968 108.037 43.968 108.293 43.904C109.317 43.712 110.149 43.936 110.789 44.576C111.109 44.832 111.429 45.056 111.749 45.248C112.069 45.44 112.389 45.6 112.709 45.728C113.669 46.176 114.661 46.752 115.685 47.456C115.749 47.84 115.781 48.192 115.781 48.512C115.781 48.832 115.813 49.184 115.877 49.568ZM175.38 14.816C175.444 15.2 175.412 15.52 175.284 15.776C175.22 15.968 175.124 16.192 174.996 16.448C174.74 16.96 174.612 17.536 174.612 18.176C174.612 18.816 174.388 19.264 173.94 19.52C173.94 19.904 173.748 20.352 173.364 20.864C173.108 21.248 172.884 21.664 172.692 22.112C172.5 22.56 172.34 23.04 172.212 23.552C171.188 24.192 170.484 24.576 170.1 24.704C169.78 24.832 169.076 24.96 167.988 25.088C167.796 25.024 167.604 24.96 167.412 24.896C167.22 24.768 166.996 24.672 166.74 24.608C166.676 24.608 166.58 24.64 166.452 24.704C166.324 24.704 166.164 24.736 165.972 24.8C165.908 24.864 165.78 24.928 165.588 24.992C165.46 25.056 165.332 25.12 165.204 25.184C164.756 25.056 164.34 24.96 163.956 24.896C163.572 24.768 163.188 24.672 162.804 24.608C161.972 24.48 161.332 24.768 160.884 25.472C160.884 25.792 160.884 26.144 160.884 26.528C160.884 26.848 160.852 27.168 160.788 27.488C160.724 27.808 160.66 28.128 160.596 28.448C160.596 28.768 160.596 29.088 160.596 29.408C160.532 29.664 160.436 29.984 160.308 30.368C160.244 30.688 160.212 31.04 160.212 31.424C160.212 31.744 160.212 32.096 160.212 32.48C160.276 32.8 160.34 33.152 160.404 33.536C160.02 33.984 159.636 34.432 159.252 34.88C158.932 35.328 158.612 35.776 158.292 36.224C158.1 36.416 158.004 36.608 158.004 36.8C157.812 38.08 157.556 39.392 157.236 40.736C156.98 42.08 156.724 43.392 156.468 44.672C156.404 45.44 156.052 46.144 155.412 46.784C155.156 46.976 154.964 47.168 154.836 47.36C154.708 47.552 154.484 47.712 154.164 47.84C153.844 47.84 153.588 47.744 153.396 47.552C153.204 47.296 152.948 47.136 152.628 47.072C152.372 46.944 152.116 46.944 151.86 47.072C151.668 47.136 151.444 47.2 151.188 47.264C149.972 46.944 149.14 46.784 148.692 46.784C148.308 46.72 147.572 46.848 146.484 47.168C146.228 47.104 146.036 46.944 145.908 46.688C145.78 46.432 145.588 46.24 145.332 46.112C145.14 45.984 145.012 45.792 144.948 45.536C144.884 45.28 144.692 45.12 144.372 45.056C144.116 45.184 143.892 45.344 143.7 45.536C143.508 45.728 143.252 45.888 142.932 46.016C142.74 46.016 142.548 46.048 142.356 46.112C142.164 46.112 141.972 46.112 141.78 46.112C141.652 45.856 141.524 45.632 141.396 45.44C141.268 45.184 141.108 44.928 140.916 44.672C140.98 44.352 141.012 44.032 141.012 43.712C141.012 43.392 141.012 43.008 141.012 42.56C141.076 41.92 141.172 41.248 141.3 40.544C141.428 39.84 141.652 39.168 141.972 38.528C142.1 38.208 142.164 37.728 142.164 37.088C142.1 36.576 142.132 36.096 142.26 35.648C142.452 35.136 142.676 34.688 142.932 34.304C142.676 33.536 142.612 32.8 142.74 32.096C142.932 31.392 143.092 30.688 143.22 29.984C143.028 29.472 142.644 29.216 142.068 29.216C141.94 29.216 141.78 29.248 141.588 29.312C141.46 29.312 141.3 29.344 141.108 29.408C139.764 29.728 138.388 29.792 136.98 29.6C136.724 29.536 136.468 29.536 136.212 29.6C135.956 29.6 135.732 29.6 135.54 29.6H133.62C133.428 29.6 133.14 29.536 132.756 29.408C132.692 29.216 132.628 29.056 132.564 28.928C132.5 28.8 132.404 28.672 132.276 28.544C132.084 27.648 131.924 26.784 131.796 25.952C131.668 25.056 131.668 24.128 131.796 23.168V21.92C131.796 21.728 131.764 21.536 131.7 21.344C131.7 21.152 131.7 20.96 131.7 20.768C131.764 20.512 131.796 20.32 131.796 20.192C131.86 20 131.924 19.776 131.988 19.52C131.924 19.328 131.828 19.104 131.7 18.848C131.636 18.592 131.54 18.336 131.412 18.08C131.476 17.952 131.54 17.792 131.604 17.6C131.668 17.344 131.732 17.152 131.796 17.024C131.796 16.96 131.764 16.896 131.7 16.832C131.7 16.768 131.7 16.704 131.7 16.64C131.316 15.872 131.22 15.328 131.412 15.008C131.604 14.688 131.956 14.304 132.468 13.856C132.596 13.728 132.852 13.6 133.236 13.472C134.068 13.024 134.868 12.384 135.636 11.552C136.148 11.552 136.692 11.616 137.268 11.744C137.844 11.872 138.388 11.936 138.9 11.936C139.476 12 140.02 12.064 140.532 12.128C141.108 12.128 141.684 12.192 142.26 12.32C142.772 12.448 143.22 12.48 143.604 12.416C143.988 12.288 144.372 12.096 144.756 11.84C144.884 11.712 145.012 11.616 145.14 11.552C145.268 11.424 145.396 11.328 145.524 11.264C146.228 10.688 146.58 9.984 146.58 9.152C146.644 8.896 146.644 8.64 146.58 8.384C146.58 8.128 146.58 7.872 146.58 7.616C146.58 6.4 146.708 5.28 146.964 4.256C147.092 4.192 147.22 4.128 147.348 4.064C147.476 4 147.572 3.936 147.636 3.872C148.084 3.68 148.5 3.488 148.884 3.296C149.332 3.04 149.684 2.752 149.94 2.432C150.068 2.24 150.1 2.112 150.036 2.048C150.036 1.92 149.876 1.792 149.556 1.664C149.556 1.664 149.524 1.664 149.46 1.664C149.46 1.6 149.46 1.536 149.46 1.472V1.184C149.78 0.991995 150.068 0.895994 150.324 0.895994C151.028 0.831995 151.7 0.831995 152.34 0.895994C152.98 0.959997 153.556 1.184 154.068 1.568C154.772 1.952 155.54 2.08 156.372 1.952C156.948 1.952 157.492 1.92 158.004 1.856C158.516 1.792 158.996 1.75999 159.444 1.75999C160.084 1.632 160.532 1.856 160.788 2.432C160.788 2.688 160.756 2.976 160.692 3.296C160.692 3.552 160.692 3.84 160.692 4.16C160.948 4.672 161.172 5.184 161.364 5.696C161.556 6.208 161.62 6.784 161.556 7.424C161.492 7.552 161.428 7.712 161.364 7.904C161.3 8.096 161.236 8.288 161.172 8.48C161.364 9.184 161.716 9.568 162.228 9.632C162.932 9.632 163.668 9.664 164.436 9.72799C165.204 9.72799 165.972 9.72799 166.74 9.72799C167.892 9.664 168.98 9.856 170.004 10.304C170.132 10.368 170.228 10.4 170.292 10.4C170.42 10.336 170.516 10.336 170.58 10.4C170.836 10.336 171.092 10.272 171.348 10.208C171.604 10.08 171.892 9.984 172.212 9.92C172.596 10.176 172.98 10.432 173.364 10.688C173.812 10.88 174.26 11.136 174.708 11.456C174.772 11.776 174.804 12.096 174.804 12.416C174.804 12.672 174.836 12.96 174.9 13.28C175.028 13.536 175.124 13.824 175.188 14.144C175.252 14.4 175.316 14.624 175.38 14.816ZM197.46 35.648C197.46 35.776 197.428 35.936 197.364 36.128C197.364 36.256 197.364 36.384 197.364 36.512C197.556 37.088 197.62 37.664 197.556 38.24C197.556 38.752 197.492 39.296 197.364 39.872C197.3 40.256 197.204 40.64 197.076 41.024C197.012 41.408 196.916 41.856 196.788 42.368C196.532 42.688 196.308 43.072 196.116 43.52C195.924 43.904 195.668 44.352 195.348 44.864C195.092 45.184 194.932 45.568 194.868 46.016C194.804 46.464 194.708 46.912 194.58 47.36C194.324 47.808 194.068 48.256 193.812 48.704C193.556 49.152 193.268 49.632 192.948 50.144C192.692 50.208 192.468 50.304 192.276 50.432C192.148 50.56 191.956 50.688 191.7 50.816C191.636 50.816 191.54 50.848 191.412 50.912C191.284 50.912 191.156 50.88 191.028 50.816C190.708 50.688 190.356 50.656 189.972 50.72C189.588 50.72 189.236 50.752 188.916 50.816C188.084 50.88 187.508 50.912 187.188 50.912C186.868 50.912 186.228 50.784 185.268 50.528C185.012 50.656 184.692 50.752 184.308 50.816C183.988 50.88 183.668 50.976 183.348 51.104C182.516 51.232 181.908 50.976 181.524 50.336C181.396 50.08 181.268 49.856 181.14 49.664C181.012 49.472 180.884 49.248 180.756 48.992C181.012 48.672 181.236 48.384 181.428 48.128C181.684 47.808 181.876 47.488 182.004 47.168C182.132 46.784 182.228 46.464 182.292 46.208C182.228 45.888 182.164 45.568 182.1 45.248C182.036 44.928 181.972 44.64 181.908 44.384C181.46 43.744 180.948 43.424 180.372 43.424C179.796 43.232 179.284 43.232 178.836 43.424C178.58 43.488 178.292 43.552 177.972 43.616C177.652 43.68 177.332 43.712 177.012 43.712C176.756 43.776 176.468 43.808 176.148 43.808C175.892 43.744 175.604 43.712 175.284 43.712C175.028 43.968 174.772 44.256 174.516 44.576C174.26 44.832 174.068 45.056 173.94 45.248C173.3 45.504 172.692 45.664 172.116 45.728C171.604 45.728 171.092 45.824 170.58 46.016C169.94 46.272 169.332 46.304 168.756 46.112C168.18 45.92 167.7 45.6 167.316 45.152C166.548 44.32 165.716 43.648 164.82 43.136C164.436 42.624 164.276 42.112 164.34 41.6C164.404 41.088 164.468 40.544 164.532 39.968C164.596 39.392 164.788 38.88 165.108 38.432C165.3 38.112 165.396 37.824 165.396 37.568C165.396 37.248 165.396 36.928 165.396 36.608C165.46 35.84 165.492 35.104 165.492 34.4C165.556 33.632 165.62 32.864 165.684 32.096C165.684 31.968 165.716 31.84 165.78 31.712C165.844 31.584 165.908 31.456 165.972 31.328C166.292 31.264 166.58 31.232 166.836 31.232C167.156 31.168 167.476 31.104 167.796 31.04C167.924 30.784 168.084 30.528 168.276 30.272C168.532 30.016 168.692 29.792 168.756 29.6C169.076 29.6 169.332 29.568 169.524 29.504C169.716 29.44 169.876 29.44 170.004 29.504C170.644 29.696 171.284 29.792 171.924 29.792C172.628 29.728 173.3 29.76 173.94 29.888C174.9 30.08 175.604 30.176 176.052 30.176C176.564 30.112 177.332 29.952 178.356 29.696C178.484 29.76 178.612 29.856 178.74 29.984C178.868 30.048 178.964 30.144 179.028 30.272C179.348 30.4 179.604 30.432 179.796 30.368C180.052 30.304 180.308 30.304 180.564 30.368C180.82 30.368 181.204 30.432 181.716 30.56C181.908 30.432 182.1 30.272 182.292 30.08C182.548 29.888 182.772 29.76 182.964 29.696C183.284 29.824 183.604 30.016 183.924 30.272C184.244 30.464 184.532 30.624 184.788 30.752C185.364 30.688 185.972 30.656 186.612 30.656C187.252 30.656 187.892 30.624 188.532 30.56C189.556 30.752 190.58 31.008 191.604 31.328C192.116 31.456 192.596 31.616 193.044 31.808C193.556 32 194.004 32.256 194.388 32.576C194.836 32.832 195.252 33.12 195.636 33.44C196.02 33.696 196.436 33.984 196.884 34.304C197.268 34.688 197.46 35.136 197.46 35.648ZM192.564 62.624C192.5 62.944 192.404 63.296 192.276 63.68C192.148 64.064 191.988 64.448 191.796 64.832C191.604 65.6 191.604 66.4 191.796 67.232C191.86 67.296 191.892 67.424 191.892 67.616C191.956 67.744 192.02 67.872 192.084 68C191.7 68.448 191.412 68.736 191.22 68.864C191.028 69.056 190.484 69.408 189.588 69.92C189.46 70.176 189.3 70.432 189.108 70.688C188.916 71.008 188.756 71.328 188.628 71.648C188.18 71.712 187.764 71.744 187.38 71.744C186.996 71.808 186.612 71.872 186.228 71.936C185.972 72 185.716 72.064 185.46 72.128C185.204 72.192 184.98 72.256 184.788 72.32H184.404C184.148 72.32 183.892 72.288 183.636 72.224C183.38 72.288 183.092 72.384 182.772 72.512C182.516 72.704 182.196 72.896 181.812 73.088C181.3 73.024 180.788 72.896 180.276 72.704C179.764 72.512 179.22 72.352 178.644 72.224C177.684 72.096 176.724 72.16 175.764 72.416C174.868 72.736 173.94 72.8 172.98 72.608C172.596 72.544 172.212 72.448 171.828 72.32C171.444 72.192 171.028 72.064 170.58 71.936C170.452 71.872 170.26 71.808 170.004 71.744C169.812 71.68 169.652 71.616 169.524 71.552C169.204 71.296 168.852 71.104 168.468 70.976C168.084 70.912 167.668 70.848 167.22 70.784C166.836 70.72 166.452 70.592 166.068 70.4C165.748 70.272 165.396 70.112 165.012 69.92C164.884 69.664 164.756 69.504 164.628 69.44C164.628 69.312 164.596 69.152 164.532 68.96C164.532 68.832 164.564 68.704 164.628 68.576C164.756 67.872 164.82 67.2 164.82 66.56C164.884 65.92 164.788 65.28 164.532 64.64C164.468 64.448 164.436 64.256 164.436 64.064C164.5 63.872 164.532 63.68 164.532 63.488C164.66 63.104 164.692 62.72 164.628 62.336C164.628 61.952 164.692 61.568 164.82 61.184C164.948 60.736 164.98 60.32 164.916 59.936C164.852 59.488 164.756 59.072 164.628 58.688C164.564 58.432 164.5 58.144 164.436 57.824C164.436 57.504 164.436 57.216 164.436 56.96C164.564 56.832 164.66 56.736 164.724 56.672C164.852 56.544 164.948 56.48 165.012 56.48C165.46 56.352 165.94 56.256 166.452 56.192C166.964 56.128 167.444 56.064 167.892 56C168.34 55.872 168.756 55.68 169.14 55.424C169.588 55.168 170.068 55.104 170.58 55.232C171.092 55.296 171.54 55.456 171.924 55.712C172.372 55.904 172.82 56.064 173.268 56.192C173.78 56.384 174.26 56.544 174.708 56.672C175.22 56.8 175.7 56.928 176.148 57.056C176.276 57.12 176.372 57.152 176.436 57.152C176.564 57.152 176.66 57.184 176.724 57.248C177.236 57.696 177.78 58.016 178.356 58.208C178.932 58.336 179.508 58.56 180.084 58.88C181.556 58.944 182.932 58.912 184.212 58.784C185.556 58.656 186.836 58.368 188.052 57.92C188.372 57.792 188.628 57.728 188.82 57.728C189.076 57.728 189.332 57.696 189.588 57.632C190.356 57.568 190.9 57.632 191.22 57.824C191.54 58.016 191.828 58.56 192.084 59.456C192.212 59.968 192.308 60.48 192.372 60.992C192.436 61.504 192.5 62.048 192.564 62.624ZM274.411 19.328C274.347 19.648 274.283 19.968 274.219 20.288C274.219 20.608 274.219 20.896 274.219 21.152V23.072C274.283 23.84 274.219 24.64 274.027 25.472C273.899 26.24 273.515 27.136 272.875 28.16C272.491 28.736 271.755 29.568 270.667 30.656C270.347 30.976 269.867 31.072 269.227 30.944C269.035 30.88 268.811 30.816 268.555 30.752C268.363 30.688 268.203 30.624 268.075 30.56C267.691 30.56 267.435 30.592 267.307 30.656C266.795 30.848 266.283 30.976 265.771 31.04C265.259 31.104 264.747 31.104 264.235 31.04C262.955 30.592 262.027 29.824 261.451 28.736C261.387 28.544 261.323 28.352 261.259 28.16C261.195 27.968 261.227 27.776 261.355 27.584C261.419 27.264 261.451 27.008 261.451 26.816C261.515 26.56 261.515 26.304 261.451 26.048C261.067 24.576 260.875 23.104 260.875 21.632C260.939 20.16 261.035 18.656 261.163 17.12C262.187 16.032 263.083 14.912 263.851 13.76C264.235 13.568 264.683 13.408 265.195 13.28C265.771 13.088 266.315 12.928 266.827 12.8C267.339 12.8 267.883 12.832 268.459 12.896C269.035 12.896 269.643 12.928 270.283 12.992C270.795 13.248 271.275 13.504 271.723 13.76C272.235 14.016 272.747 14.24 273.259 14.432C273.963 14.752 274.251 15.296 274.123 16.064C274.059 16.384 273.963 16.736 273.835 17.12C273.707 17.44 273.611 17.792 273.547 18.176C273.611 18.304 273.707 18.432 273.835 18.56C273.963 18.624 274.059 18.72 274.123 18.848C274.187 19.04 274.283 19.2 274.411 19.328ZM258.475 28.16C258.155 28.992 257.707 29.568 257.131 29.888C255.915 30.528 254.699 30.976 253.483 31.232C253.099 31.296 252.683 31.232 252.235 31.04C252.043 30.912 251.851 30.784 251.659 30.656C251.467 30.464 251.243 30.24 250.987 29.984C250.411 29.856 249.803 29.76 249.163 29.696C248.587 29.568 248.043 29.472 247.531 29.408C247.467 29.28 247.371 29.184 247.243 29.12C247.115 29.056 247.051 28.992 247.051 28.928C246.859 28.352 246.635 27.808 246.379 27.296C246.123 26.72 245.867 26.144 245.611 25.568C245.739 25.056 245.867 24.608 245.995 24.224C246.123 23.776 246.091 23.328 245.899 22.88V20.864C246.027 20.608 246.123 20.416 246.187 20.288C246.315 20.096 246.411 19.904 246.475 19.712C246.411 19.264 246.251 18.88 245.995 18.56C245.739 18.176 245.707 17.728 245.899 17.216C246.027 16.896 246.187 16.576 246.379 16.256C246.635 15.872 246.859 15.488 247.051 15.104C247.627 14.784 248.171 14.56 248.683 14.432C249.195 14.24 249.771 14.208 250.411 14.336C250.603 14.4 250.987 14.368 251.563 14.24C252.139 14.176 252.683 14.176 253.195 14.24C253.771 14.304 254.315 14.56 254.827 15.008C255.083 15.264 255.403 15.424 255.787 15.488C256.171 15.552 256.555 15.648 256.939 15.776C257.067 16.032 257.227 16.288 257.419 16.544C257.675 16.736 257.899 16.96 258.091 17.216C258.027 18.24 257.995 18.944 257.995 19.328C257.995 19.648 258.123 20.32 258.379 21.344C258.315 21.792 258.219 22.24 258.091 22.688C258.027 23.072 257.931 23.52 257.803 24.032C257.931 24.608 258.027 25.184 258.091 25.76C258.219 26.336 258.347 26.976 258.475 27.68V28.16ZM269.515 55.328C269.323 55.776 269.035 56.128 268.651 56.384C268.331 56.576 268.043 56.832 267.787 57.152C267.531 57.472 267.275 57.792 267.019 58.112C266.763 58.432 266.475 58.752 266.155 59.072C265.963 59.392 265.771 59.744 265.579 60.128C265.387 60.448 265.227 60.768 265.099 61.088C264.715 61.536 264.331 61.952 263.947 62.336C263.627 62.72 263.307 63.072 262.987 63.392C262.667 63.712 262.347 64 262.027 64.256C261.707 64.448 261.355 64.576 260.971 64.64C260.715 64.512 260.491 64.384 260.299 64.256C260.107 64.128 259.851 64 259.531 63.872C259.147 63.936 258.763 64 258.379 64.064C257.995 64.128 257.643 64.192 257.323 64.256C256.939 64 256.715 63.84 256.651 63.776C256.267 63.008 255.787 62.368 255.211 61.856C254.635 61.344 253.963 60.864 253.195 60.416C252.299 59.968 251.499 59.296 250.795 58.4C250.603 58.08 250.315 57.824 249.931 57.632C249.867 57.568 249.739 57.472 249.547 57.344C249.355 57.152 249.259 57.056 249.259 57.056L248.683 56.672L248.491 56.384C247.659 55.488 246.827 54.72 245.995 54.08C245.163 53.376 244.299 52.544 243.403 51.584C243.275 51.264 243.051 50.912 242.731 50.528C242.475 50.08 242.155 49.632 241.771 49.184C241.451 48.736 241.099 48.32 240.715 47.936C240.267 47.552 239.819 47.232 239.371 46.976C238.987 46.72 238.507 46.592 237.931 46.592C237.419 46.656 236.907 46.592 236.395 46.4C235.947 46.208 235.499 45.984 235.051 45.728C234.731 45.536 234.411 45.376 234.091 45.248C233.771 45.056 233.515 44.832 233.323 44.576C232.747 44.064 232.139 43.648 231.499 43.328C230.859 43.008 230.187 42.72 229.483 42.464C228.587 42.784 227.947 43.072 227.563 43.328C227.179 43.584 226.731 44 226.219 44.576C225.963 44.832 225.675 45.088 225.355 45.344C225.035 45.6 224.875 45.984 224.875 46.496C224.875 46.56 224.779 46.688 224.587 46.88C223.883 47.328 223.307 47.872 222.859 48.512C222.475 49.152 222.123 49.92 221.803 50.816C221.099 51.392 220.619 51.744 220.363 51.872C220.171 51.936 219.979 52.032 219.787 52.16C219.659 52.288 219.339 52.736 218.827 53.504C218.571 53.824 218.315 54.144 218.059 54.464C217.867 54.784 217.611 55.104 217.291 55.424C216.971 55.68 216.619 55.936 216.235 56.192C215.915 56.384 215.595 56.64 215.275 56.96C214.955 56.896 214.603 56.832 214.219 56.768C213.835 56.704 213.483 56.672 213.163 56.672C212.907 56.672 212.619 56.736 212.299 56.864C212.043 56.928 211.787 56.96 211.531 56.96C211.083 56.832 210.699 56.64 210.379 56.384C210.123 56.128 209.835 55.872 209.515 55.616C209.259 54.912 208.907 54.272 208.459 53.696C208.011 53.12 207.627 52.48 207.307 51.776C207.051 51.072 206.699 50.464 206.251 49.952C205.867 49.376 205.483 48.768 205.099 48.128C205.227 47.616 205.323 47.104 205.387 46.592C205.515 46.016 205.611 45.504 205.675 45.056C205.803 44.928 205.931 44.928 206.059 45.056C206.187 45.12 206.283 45.184 206.347 45.248C206.475 45.312 206.603 45.312 206.731 45.248C206.923 45.184 207.019 45.12 207.019 45.056V43.712C207.467 43.264 207.691 43.072 207.691 43.136C207.755 43.136 207.787 43.168 207.787 43.232C207.851 43.232 208.107 42.976 208.555 42.464C209.259 42.144 210.187 41.6 211.339 40.832C211.787 40.192 212.299 39.648 212.875 39.2C213.515 38.752 214.027 38.208 214.411 37.568C214.731 36.864 215.051 36.192 215.371 35.552C215.755 34.912 216.139 34.24 216.523 33.536C216.715 33.408 216.939 33.248 217.195 33.056C217.515 32.8 217.835 32.608 218.155 32.48C218.411 32.16 218.571 31.84 218.635 31.52C218.763 31.136 218.859 30.784 218.923 30.464C218.987 30.4 219.051 30.336 219.115 30.272C219.179 30.144 219.275 30.048 219.403 29.984C219.531 29.92 219.691 29.856 219.883 29.792C220.075 29.664 220.203 29.472 220.267 29.216C220.395 29.088 220.459 28.928 220.459 28.736C220.523 28.48 220.587 28.288 220.651 28.16C220.779 27.84 220.907 27.552 221.035 27.296C221.227 27.04 221.451 26.88 221.707 26.816C221.963 26.688 222.187 26.656 222.379 26.72C222.635 26.784 222.859 26.816 223.051 26.816C223.563 26.944 224.075 26.848 224.587 26.528C224.907 26.272 225.227 26.048 225.547 25.856C225.867 25.6 226.187 25.344 226.507 25.088C226.763 24.96 226.955 24.832 227.083 24.704C227.275 24.512 227.499 24.384 227.755 24.32C228.523 23.744 229.163 23.84 229.675 24.608C229.867 24.8 230.027 25.024 230.155 25.28C231.115 25.536 232.011 25.76 232.843 25.952C233.675 26.08 234.507 26.208 235.339 26.336C235.467 26.528 235.531 26.656 235.531 26.72C235.531 26.784 235.563 26.88 235.627 27.008C235.755 27.264 235.915 27.36 236.107 27.296C236.363 27.168 236.587 27.168 236.779 27.296C237.291 27.424 237.643 27.552 237.835 27.68C238.091 28 238.379 28.288 238.699 28.544C239.083 28.8 239.435 29.024 239.755 29.216C240.075 29.472 240.395 29.696 240.715 29.888C241.035 30.016 241.355 30.176 241.675 30.368C241.995 30.56 242.315 31.008 242.635 31.712C244.107 32.544 245.579 33.696 247.051 35.168C247.243 35.36 247.467 35.552 247.723 35.744C247.979 35.936 248.203 36.128 248.395 36.32C248.779 36.64 249.163 36.992 249.547 37.376C249.995 37.696 250.347 38.08 250.603 38.528C250.731 38.784 250.859 39.008 250.987 39.2C251.179 39.392 251.371 39.584 251.563 39.776C252.075 40.16 252.587 40.576 253.099 41.024C253.611 41.472 254.091 41.888 254.539 42.272C255.179 42.72 255.787 43.168 256.363 43.616C256.939 44 257.483 44.448 257.995 44.96C258.379 45.664 258.923 46.208 259.627 46.592C260.331 46.912 261.003 47.232 261.643 47.552C262.859 48.128 263.915 48.768 264.811 49.472C265.195 49.856 265.643 50.208 266.155 50.528C266.667 50.784 267.147 51.072 267.595 51.392C268.171 51.776 268.363 52.32 268.171 53.024C268.171 53.024 268.171 53.12 268.171 53.312C268.235 53.568 268.395 53.76 268.651 53.888C268.907 53.952 269.099 54.048 269.227 54.176C269.419 54.368 269.515 54.56 269.515 54.752C269.515 54.944 269.515 55.136 269.515 55.328ZM322.657 45.44C322.465 45.696 322.337 45.92 322.273 46.112C322.209 46.24 322.113 46.4 321.985 46.592C322.049 46.848 322.081 47.168 322.081 47.552C322.145 47.936 322.177 48.288 322.177 48.608V49.76C322.305 50.848 322.049 51.744 321.409 52.448V53.6C321.281 54.112 321.121 54.592 320.929 55.04C320.737 55.488 320.577 55.968 320.449 56.48C320.129 57.312 319.809 58.24 319.489 59.264C319.297 59.456 319.073 59.648 318.817 59.84C318.625 59.968 318.433 60.16 318.241 60.416C318.049 60.608 317.889 60.832 317.761 61.088C317.697 61.28 317.601 61.472 317.473 61.664C316.833 61.984 316.225 62.4 315.649 62.912C315.137 63.36 314.753 63.936 314.497 64.64C314.177 65.344 313.729 65.952 313.153 66.464C312.641 66.848 312.129 67.264 311.617 67.712C311.169 68.096 310.689 68.512 310.177 68.96C309.473 69.536 308.737 69.92 307.969 70.112C307.713 70.176 307.425 70.272 307.105 70.4C306.849 70.528 306.561 70.688 306.241 70.88C305.025 71.712 303.585 72.256 301.921 72.512C300.321 72.832 298.721 73.056 297.121 73.184C296.673 73.248 296.225 73.248 295.777 73.184C295.329 73.184 294.849 73.184 294.337 73.184C294.081 73.056 293.825 72.896 293.569 72.704C293.377 72.512 293.121 72.384 292.801 72.32C292.161 72.384 291.553 72.512 290.977 72.704C290.657 72.576 290.305 72.448 289.921 72.32C289.601 72.192 289.281 72.064 288.961 71.936C288.193 71.68 287.489 71.264 286.849 70.688C286.465 70.304 286.049 69.92 285.601 69.536C285.153 69.216 284.769 68.8 284.449 68.288C284.257 68.096 284.001 67.904 283.681 67.712C283.425 67.52 283.201 67.36 283.009 67.232C282.945 66.72 282.881 66.208 282.817 65.696C282.753 65.12 282.625 64.608 282.433 64.16C282.305 63.648 282.209 63.136 282.145 62.624C282.145 62.112 281.985 61.536 281.665 60.896C281.985 60.384 282.145 59.872 282.145 59.36C282.145 58.848 282.145 58.336 282.145 57.824C282.401 57.312 282.657 56.768 282.913 56.192C283.169 55.616 283.329 55.04 283.393 54.464C283.457 54.144 283.585 53.856 283.777 53.6C283.969 53.28 284.161 52.96 284.353 52.64C284.737 52.32 285.121 51.968 285.505 51.584C285.889 51.2 286.305 50.816 286.753 50.432C287.073 49.984 287.329 49.568 287.521 49.184C287.777 48.736 288.097 48.32 288.481 47.936H289.921C290.305 47.744 290.561 47.392 290.689 46.88C291.009 46.176 291.649 45.76 292.609 45.632C293.185 45.632 293.761 45.632 294.337 45.632C294.977 45.568 295.617 45.6 296.257 45.728C296.577 45.792 296.865 45.824 297.121 45.824C297.441 45.76 297.761 45.76 298.081 45.824C298.593 45.888 299.073 45.92 299.521 45.92C300.033 45.92 300.481 45.856 300.865 45.728C301.825 45.92 302.561 46.336 303.073 46.976C303.585 47.552 304.193 48.096 304.897 48.608C305.025 48.928 305.153 49.28 305.281 49.664C305.473 49.984 305.665 50.304 305.857 50.624C305.729 51.008 305.601 51.328 305.473 51.584C305.345 51.84 305.345 52 305.473 52.064C305.601 52.128 305.697 52.16 305.761 52.16C305.889 52.096 305.985 52.064 306.049 52.064H306.433C306.625 52.128 306.817 52.224 307.009 52.352C307.265 52.416 307.489 52.512 307.681 52.64C308.065 52.576 308.353 52.416 308.545 52.16C308.801 51.904 308.961 51.648 309.025 51.392C309.217 51.008 309.377 50.624 309.505 50.24C309.633 49.856 309.729 49.472 309.793 49.088C309.793 48.768 309.761 48.48 309.697 48.224C309.633 47.904 309.633 47.584 309.697 47.264C309.889 46.56 309.857 45.952 309.601 45.44C309.345 44.928 308.961 44.448 308.449 44C308.321 43.872 308.193 43.776 308.065 43.712C307.937 43.584 307.809 43.488 307.681 43.424C307.617 43.104 307.521 42.784 307.393 42.464C307.329 42.08 307.233 41.696 307.105 41.312C306.849 40.992 306.561 40.704 306.241 40.448C305.985 40.128 305.697 39.808 305.377 39.488C305.313 39.36 305.217 39.296 305.089 39.296C304.961 39.232 304.897 39.2 304.897 39.2C304.577 38.88 304.257 38.72 303.937 38.72C303.681 38.72 303.425 38.72 303.169 38.72C302.977 38.656 302.753 38.624 302.497 38.624C302.305 38.56 302.145 38.496 302.017 38.432C301.313 38.112 300.577 37.792 299.809 37.472C299.105 37.152 298.369 36.832 297.601 36.512C297.537 36.576 297.409 36.608 297.217 36.608C297.089 36.608 296.961 36.672 296.833 36.8C296.129 37.248 295.329 37.568 294.433 37.76C293.601 37.952 292.737 38.08 291.841 38.144C291.009 38.208 290.177 38.368 289.345 38.624C288.577 38.816 287.841 39.104 287.137 39.488C286.881 39.68 286.625 39.84 286.369 39.968C286.113 40.032 285.825 40.128 285.505 40.256C285.057 40.32 284.641 40.288 284.257 40.16C283.873 39.968 283.521 39.84 283.201 39.776C282.945 39.584 282.753 39.392 282.625 39.2C282.497 39.008 282.369 38.784 282.241 38.528C281.665 37.952 281.441 37.28 281.569 36.512C281.633 36 281.601 35.52 281.473 35.072C281.409 34.624 281.313 34.176 281.185 33.728C281.121 33.28 281.089 32.864 281.089 32.48C281.089 32.032 281.121 31.584 281.185 31.136C281.185 30.88 281.249 30.656 281.377 30.464C281.505 30.272 281.601 30.08 281.665 29.888C281.857 29.568 282.081 29.28 282.337 29.024C282.593 28.768 282.849 28.512 283.105 28.256C283.233 28.192 283.393 28.128 283.585 28.064C283.777 28 283.969 27.904 284.161 27.776C284.417 27.584 284.737 27.264 285.121 26.816C286.337 26.56 287.553 25.856 288.769 24.704C288.833 24.512 288.897 24.32 288.961 24.128C289.089 23.872 289.185 23.616 289.249 23.36C290.145 22.784 290.689 22.4 290.881 22.208C291.137 21.952 291.489 21.408 291.937 20.576C291.937 19.68 291.489 19.136 290.593 18.944C289.889 18.816 289.153 18.72 288.385 18.656C287.681 18.528 286.977 18.464 286.273 18.464C284.801 18.464 283.297 18.08 281.761 17.312C281.377 16.928 281.089 16.48 280.897 15.968C280.769 15.456 280.577 14.912 280.321 14.336C280.513 14.016 280.673 13.696 280.801 13.376C280.929 12.992 281.057 12.64 281.185 12.32C281.121 12 281.057 11.68 280.993 11.36C280.929 11.04 280.833 10.72 280.705 10.4C280.833 9.888 280.961 9.44 281.089 9.056C281.217 8.608 281.185 8.16 280.993 7.712C281.057 7.648 281.089 7.616 281.089 7.616C281.089 7.552 281.121 7.488 281.185 7.424C281.505 7.04 281.825 6.688 282.145 6.368C282.529 5.984 282.881 5.6 283.201 5.216C284.801 5.152 286.017 5.088 286.849 5.024C287.681 4.96 288.449 4.96 289.153 5.024C289.921 5.024 290.881 5.12 292.033 5.31199C293.249 5.504 295.009 5.824 297.313 6.272C297.505 6.208 297.697 6.144 297.889 6.08C298.081 6.016 298.273 5.952 298.465 5.888C298.657 5.952 298.849 5.984 299.041 5.984C299.233 5.984 299.425 6.016 299.617 6.08C300.129 5.888 300.577 5.696 300.961 5.504C301.409 5.312 301.761 5.024 302.017 4.64C302.337 4.256 302.689 4.192 303.073 4.44799C303.521 4.70399 303.969 4.896 304.417 5.024C304.865 5.088 305.313 5.184 305.761 5.31199C306.337 5.44 306.881 5.696 307.393 6.08C307.713 6.208 307.969 6.368 308.161 6.56C308.417 6.752 308.673 6.912 308.929 7.04H309.313C309.825 6.912 310.145 7.104 310.273 7.616C310.401 8.256 310.561 8.864 310.753 9.44C310.945 9.952 311.233 10.432 311.617 10.88C311.681 11.392 311.713 11.872 311.713 12.32C311.777 12.768 311.841 13.248 311.905 13.76C311.905 13.824 311.873 13.92 311.809 14.048C311.809 14.112 311.809 14.208 311.809 14.336C311.745 14.912 311.521 15.392 311.137 15.776C310.753 16.096 310.497 16.512 310.369 17.024C310.305 17.536 310.081 18.016 309.697 18.464C309.377 18.848 309.057 19.232 308.737 19.616C308.481 20.064 308.193 20.48 307.873 20.864C307.553 21.248 307.169 21.6 306.721 21.92C306.593 22.112 306.433 22.336 306.241 22.592C306.049 22.784 305.889 22.976 305.761 23.168C305.697 23.232 305.633 23.36 305.569 23.552C305.505 23.68 305.473 23.808 305.473 23.936C305.409 24.192 305.441 24.448 305.569 24.704C305.761 24.896 305.889 25.024 305.953 25.088C306.529 25.152 307.009 25.344 307.393 25.664C307.777 25.92 308.225 26.112 308.737 26.24C309.185 26.304 309.601 26.464 309.985 26.72C310.433 26.912 310.849 27.104 311.233 27.296C311.809 27.488 312.353 27.712 312.865 27.968C313.441 28.16 313.985 28.352 314.497 28.544C314.881 28.8 315.265 29.056 315.649 29.312C316.033 29.568 316.321 29.888 316.513 30.272C317.089 31.104 317.761 31.68 318.529 32C318.849 32.576 319.105 33.088 319.297 33.536C319.553 33.984 319.841 34.464 320.161 34.976C320.545 35.936 320.737 37.056 320.737 38.336C320.993 38.592 321.185 38.848 321.313 39.104C321.441 39.296 321.569 39.456 321.697 39.584C321.697 40.032 321.697 40.48 321.697 40.928C321.697 41.312 321.793 41.696 321.985 42.08C322.113 42.592 322.177 43.168 322.177 43.808C322.241 44.384 322.401 44.928 322.657 45.44ZM298.465 60.128C298.401 59.808 298.337 59.52 298.273 59.264C298.209 58.944 298.177 58.624 298.177 58.304C297.793 57.856 297.505 57.376 297.313 56.864C297.121 56.352 296.769 55.904 296.257 55.52C296.129 55.52 296.001 55.52 295.873 55.52C295.809 55.456 295.745 55.424 295.681 55.424H293.377C292.289 55.872 291.617 56.544 291.361 57.44C291.105 58.464 291.265 59.456 291.841 60.416C291.905 60.48 291.937 60.544 291.937 60.608C292.001 60.672 292.065 60.768 292.129 60.896C292.513 61.408 292.961 61.664 293.473 61.664C294.113 61.664 294.721 61.664 295.297 61.664C295.873 61.664 296.481 61.632 297.121 61.568C297.441 61.568 297.729 61.408 297.985 61.088C298.305 60.768 298.465 60.448 298.465 60.128Z" fill="#FF8282"/>
</svg>
