<svg width="26" height="26" viewBox="0 0 26 26" fill="none" xmlns="http://www.w3.org/2000/svg">
<circle cx="13" cy="13" r="13" transform="matrix(1 0 0 -1 0 26)" fill="#FF4C4C"/>
<circle cx="10.9474" cy="10.9474" r="10.9474" transform="matrix(1 0 0 -1 2.05273 23.9474)" fill="#FB9696"/>
<path d="M19.6069 17.9054C19.8293 18.0669 19.897 18.3799 19.7441 18.5993C19.1341 19.4751 18.3567 20.1977 17.4642 20.7156C16.5884 21.2238 15.6254 21.521 14.6398 21.5901C14.3631 21.6095 14.1326 21.3629 14.135 21.0724L14.1858 14.9071C14.1891 14.5041 14.6175 14.2839 14.9411 14.5188L19.6069 17.9054Z" fill="#F05959"/>
<path d="M19.5706 8.36302C19.7913 8.19929 19.8559 7.88599 19.7011 7.66842C19.1064 6.83249 18.3581 6.13957 17.5025 5.63563C16.6637 5.14163 15.743 4.8416 14.7974 4.75176C14.5212 4.72552 14.2852 4.96724 14.2816 5.25847L14.2055 11.3841C14.2004 11.7949 14.6379 12.023 14.9652 11.7802L19.5706 8.36302Z" fill="#F05959"/>
<path d="M20.1504 9.2503C20.3772 9.10092 20.6718 9.17889 20.7908 9.4348C21.3248 10.5823 21.5874 11.8631 21.551 13.1606C21.5146 14.4584 21.1806 15.7256 20.5828 16.8473C20.4497 17.0972 20.1513 17.1612 19.9332 17.0016L15.0836 13.4526C14.7943 13.2409 14.8072 12.7704 15.1078 12.5724L20.1504 9.2503Z" fill="#F05959"/>
<path d="M12.0672 5.11435C12.0737 4.83828 11.855 4.6074 11.5791 4.62001C10.708 4.65981 9.84705 4.85711 9.0312 5.20515C8.05957 5.61964 7.17098 6.2398 6.41617 7.03021C5.66135 7.82063 5.0551 8.76582 4.63202 9.81183C4.20894 10.8578 3.97732 11.9842 3.95038 13.1265C3.92345 14.2689 4.10172 15.4049 4.47503 16.4697C4.84833 17.5344 5.40936 18.5072 6.12608 19.3323C6.8428 20.1574 7.70118 20.8187 8.65219 21.2786C9.45073 21.6647 10.3015 21.9023 11.1697 21.9832C11.4447 22.0087 11.6741 21.7884 11.6806 21.5124L11.8739 13.3134L12.0672 5.11435Z" fill="#E93636" fill-opacity="0.63"/>
<path d="M10.9475 17.9263C10.9475 18.4176 10.6412 18.8158 10.2633 18.8158C9.88543 18.8158 9.5791 18.4176 9.5791 17.9263C9.5791 17.4351 10.2633 16.7632 10.2633 16.7632C10.2633 16.7632 10.9475 17.4351 10.9475 17.9263Z" fill="#F2B65C"/>
<path d="M16.0905 18.0782C16.2234 18.5512 16.0362 19.0174 15.6724 19.1196C15.3087 19.2219 14.906 18.9213 14.7731 18.4484C14.6403 17.9755 15.1172 17.1435 15.1172 17.1435C15.1172 17.1435 15.9577 17.6053 16.0905 18.0782Z" fill="#F2B65C"/>
<path d="M8.42848 15.4776C8.07163 15.8152 7.57182 15.8664 7.31213 15.5919C7.05243 15.3174 7.1312 14.8212 7.48805 14.4836C7.84491 14.146 8.80322 14.1812 8.80322 14.1812C8.80322 14.1812 8.78534 15.14 8.42848 15.4776Z" fill="#F2B65C"/>
<path d="M7.55766 12.3192C7.09931 12.1425 6.83795 11.7134 6.97391 11.3608C7.10986 11.0083 7.59163 10.8657 8.04998 11.0424C8.50833 11.2192 8.88909 12.0993 8.88909 12.0993C8.88909 12.0993 8.01601 12.496 7.55766 12.3192Z" fill="#F2B65C"/>
<path d="M17.9876 12.7274C18.4492 12.8956 18.7185 13.3198 18.5891 13.6748C18.4597 14.0298 17.9807 14.1813 17.5191 14.0131C17.0576 13.845 16.6605 12.9721 16.6605 12.9721C16.6605 12.9721 17.5261 12.5592 17.9876 12.7274Z" fill="#F2B65C"/>
<path d="M9.27519 8.81595C9.25405 8.32516 9.54297 7.91412 9.9205 7.89786C10.298 7.88161 10.6212 8.26629 10.6423 8.75708C10.6635 9.24787 10.0088 9.94859 10.0088 9.94859C10.0088 9.94859 9.29632 9.30674 9.27519 8.81595Z" fill="#F2B65C"/>
<path d="M15.6288 8.29909C15.872 7.8723 16.3353 7.67799 16.6636 7.8651C16.9919 8.05221 17.0609 8.54988 16.8176 8.97667C16.5744 9.40347 15.6473 9.64844 15.6473 9.64844C15.6473 9.64844 15.3855 8.72588 15.6288 8.29909Z" fill="#F2B65C"/>
</svg>
